<svg version="1.1" viewBox="0.0 0.0 600.0 371.0" fill="none" stroke="none" stroke-linecap="square" stroke-miterlimit="10" width="600" height="371" xmlns:xlink="http://www.w3.org/1999/xlink" xmlns="http://www.w3.org/2000/svg"><path fill="#ffffff" d="M0 0L600.0 0L600.0 371.0L0 371.0L0 0Z" fill-rule="nonzero"/><path stroke="#333333" stroke-width="1.0" stroke-linecap="butt" d="M45.5 332.5L581.5 332.5" fill-rule="nonzero"/><path stroke="#cccccc" stroke-width="1.0" stroke-linecap="butt" d="M45.5 255.5L581.5 255.5" fill-rule="nonzero"/><path stroke="#cccccc" stroke-width="1.0" stroke-linecap="butt" d="M45.5 179.5L581.5 179.5" fill-rule="nonzero"/><path stroke="#cccccc" stroke-width="1.0" stroke-linecap="butt" d="M45.5 102.5L581.5 102.5" fill-rule="nonzero"/><path stroke="#cccccc" stroke-width="1.0" stroke-linecap="butt" d="M45.5 25.5L581.5 25.5" fill-rule="nonzero"/><clipPath id="id_0"><path d="M45.55 25.55L581.45 25.55L581.45 332.45L45.55 332.45L45.55 25.55Z" clip-rule="nonzero"/></clipPath><path fill="#4285f4" clip-path="url(#id_0)" d="M88.328575 75.42125C88.328575 77.90653 86.31385 79.92125 83.828575 79.92125C81.34329 79.92125 79.328575 77.90653 79.328575 75.42125C79.328575 72.93597 81.34329 70.92125 83.828575 70.92125C86.31385 70.92125 88.328575 72.93597 88.328575 75.42125Z" fill-rule="nonzero"/><path fill="#4285f4" clip-path="url(#id_0)" d="M164.88571 123.758C164.88571 126.24328 162.871 128.258 160.38571 128.258C157.90044 128.258 155.88571 126.24328 155.88571 123.758C155.88571 121.27272 157.90044 119.258 160.38571 119.258C162.871 119.258 164.88571 121.27272 164.88571 123.758Z" fill-rule="nonzero"/><path fill="#4285f4" clip-path="url(#id_0)" d="M241.44286 121.45625C241.44286 123.94153 239.42813 125.95625 236.94286 125.95625C234.45758 125.95625 232.44286 123.94153 232.44286 121.45625C232.44286 118.97097 234.45758 116.95625 236.94286 116.95625C239.42813 116.95625 241.44286 118.97097 241.44286 121.45625Z" fill-rule="nonzero"/><path fill="#4285f4" clip-path="url(#id_0)" d="M318.0 129.896C318.0 132.38129 315.9853 134.396 313.5 134.396C311.0147 134.396 309.0 132.38129 309.0 129.896C309.0 127.41072 311.0147 125.396 313.5 125.396C315.9853 125.396 318.0 127.41072 318.0 129.896Z" fill-rule="nonzero"/><path fill="#4285f4" clip-path="url(#id_0)" d="M394.55713 115.31825C394.55713 117.80353 392.54242 119.81825 390.05713 119.81825C387.57187 119.81825 385.55713 117.80353 385.55713 115.31825C385.55713 112.83297 387.57187 110.81825 390.05713 110.81825C392.54242 110.81825 394.55713 112.83297 394.55713 115.31825Z" fill-rule="nonzero"/><path fill="#4285f4" clip-path="url(#id_0)" d="M471.1143 99.97325C471.1143 102.458534 469.09958 104.47325 466.6143 104.47325C464.129 104.47325 462.1143 102.458534 462.1143 99.97325C462.1143 97.48797 464.129 95.47325 466.6143 95.47325C469.09958 95.47325 471.1143 97.48797 471.1143 99.97325Z" fill-rule="nonzero"/><path fill="#4285f4" clip-path="url(#id_0)" d="M547.67145 116.85275C547.67145 119.33803 545.65674 121.35275 543.17145 121.35275C540.68616 121.35275 538.67145 119.33803 538.67145 116.85275C538.67145 114.36747 540.68616 112.35275 543.17145 112.35275C545.65674 112.35275 547.67145 114.36747 547.67145 116.85275Z" fill-rule="nonzero"/><path fill="#000000" d="M23.05 332.21564Q23.05 330.6844 23.3625 329.7625Q23.675 328.825 24.284374 328.325Q24.909374 327.825 25.846874 327.825Q26.534374 327.825 27.05 328.10626Q27.58125 328.3875 27.925 328.91876Q28.26875 329.4344 28.45625 330.1844Q28.64375 330.9344 28.64375 332.21564Q28.64375 333.73126 28.33125 334.65314Q28.034374 335.575 27.409374 336.09064Q26.8 336.59064 25.846874 336.59064Q24.6125 336.59064 23.89375 335.7Q23.05 334.6375 23.05 332.21564ZM24.128124 332.21564Q24.128124 334.325 24.628124 335.02814Q25.128124 335.73126 25.846874 335.73126Q26.58125 335.73126 27.065624 335.02814Q27.565624 334.325 27.565624 332.21564Q27.565624 330.09064 27.065624 329.40314Q26.58125 328.7 25.83125 328.7Q25.1125 328.7 24.675 329.3094Q24.128124 330.09064 24.128124 332.21564ZM30.64375 336.45L30.64375 335.2469L31.846874 335.2469L31.846874 336.45L30.64375 336.45ZM33.05 332.21564Q33.05 330.6844 33.3625 329.7625Q33.675 328.825 34.284374 328.325Q34.909374 327.825 35.846874 327.825Q36.534374 327.825 37.05 328.10626Q37.58125 328.3875 37.925 328.91876Q38.26875 329.4344 38.45625 330.1844Q38.64375 330.9344 38.64375 332.21564Q38.64375 333.73126 38.33125 334.65314Q38.034374 335.575 37.409374 336.09064Q36.8 336.59064 35.846874 336.59064Q34.6125 336.59064 33.89375 335.7Q33.05 334.6375 33.05 332.21564ZM34.128124 332.21564Q34.128124 334.325 34.628124 335.02814Q35.128124 335.73126 35.846874 335.73126Q36.58125 335.73126 37.065624 335.02814Q37.565624 334.325 37.565624 332.21564Q37.565624 330.09064 37.065624 329.40314Q36.58125 328.7 35.83125 328.7Q35.1125 328.7 34.675 329.3094Q34.128124 330.09064 34.128124 332.21564Z" fill-rule="nonzero"/><path fill="#000000" d="M23.05 255.49063Q23.05 253.95938 23.3625 253.0375Q23.675 252.1 24.284374 251.6Q24.909374 251.1 25.846874 251.1Q26.534374 251.1 27.05 251.38126Q27.58125 251.6625 27.925 252.19376Q28.26875 252.70938 28.45625 253.45938Q28.64375 254.20938 28.64375 255.49063Q28.64375 257.00626 28.33125 257.92813Q28.034374 258.85 27.409374 259.36563Q26.8 259.86563 25.846874 259.86563Q24.6125 259.86563 23.89375 258.975Q23.05 257.9125 23.05 255.49063ZM24.128124 255.49063Q24.128124 257.6 24.628124 258.30313Q25.128124 259.00626 25.846874 259.00626Q26.58125 259.00626 27.065624 258.30313Q27.565624 257.6 27.565624 255.49063Q27.565624 253.36563 27.065624 252.67813Q26.58125 251.975 25.83125 251.975Q25.1125 251.975 24.675 252.58438Q24.128124 253.36563 24.128124 255.49063ZM30.64375 259.725L30.64375 258.52188L31.846874 258.52188L31.846874 259.725L30.64375 259.725ZM37.01875 259.725L35.971874 259.725L35.971874 253.00626Q35.58125 253.36563 34.95625 253.74063Q34.346874 254.1 33.8625 254.27188L33.8625 253.25626Q34.7375 252.83438 35.39375 252.25626Q36.065624 251.6625 36.346874 251.1L37.01875 251.1L37.01875 259.725Z" fill-rule="nonzero"/><path fill="#000000" d="M23.05 178.76562Q23.05 177.23438 23.3625 176.3125Q23.675 175.375 24.284374 174.875Q24.909374 174.375 25.846874 174.375Q26.534374 174.375 27.05 174.65625Q27.58125 174.9375 27.925 175.46875Q28.26875 175.98438 28.45625 176.73438Q28.64375 177.48438 28.64375 178.76562Q28.64375 180.28125 28.33125 181.20312Q28.034374 182.125 27.409374 182.64062Q26.8 183.14062 25.846874 183.14062Q24.6125 183.14062 23.89375 182.25Q23.05 181.1875 23.05 178.76562ZM24.128124 178.76562Q24.128124 180.875 24.628124 181.57812Q25.128124 182.28125 25.846874 182.28125Q26.58125 182.28125 27.065624 181.57812Q27.565624 180.875 27.565624 178.76562Q27.565624 176.64062 27.065624 175.95312Q26.58125 175.25 25.83125 175.25Q25.1125 175.25 24.675 175.85938Q24.128124 176.64062 24.128124 178.76562ZM30.64375 183.0L30.64375 181.79688L31.846874 181.79688L31.846874 183.0L30.64375 183.0ZM38.596874 181.98438L38.596874 183.0L32.909374 183.0Q32.909374 182.625 33.034374 182.26562Q33.253124 181.6875 33.721874 181.125Q34.20625 180.5625 35.1125 179.82812Q36.51875 178.67188 37.003124 178.0Q37.503124 177.32812 37.503124 176.73438Q37.503124 176.10938 37.05 175.6875Q36.596874 175.25 35.878124 175.25Q35.1125 175.25 34.659374 175.70312Q34.20625 176.15625 34.190624 176.96875L33.1125 176.85938Q33.221874 175.64062 33.940624 175.01562Q34.675 174.375 35.909374 174.375Q37.14375 174.375 37.8625 175.0625Q38.58125 175.75 38.58125 176.76562Q38.58125 177.28125 38.3625 177.78125Q38.159374 178.26562 37.659374 178.82812Q37.175 179.375 36.05 180.32812Q35.096874 181.125 34.815624 181.42188Q34.55 181.70312 34.378124 181.98438L38.596874 181.98438Z" fill-rule="nonzero"/><path fill="#000000" d="M23.05 102.04063Q23.05 100.50938 23.3625 99.5875Q23.675 98.65 24.284374 98.15Q24.909374 97.65 25.846874 97.65Q26.534374 97.65 27.05 97.93125Q27.58125 98.2125 27.925 98.74375Q28.26875 99.25938 28.45625 100.00938Q28.64375 100.75938 28.64375 102.04063Q28.64375 103.55625 28.33125 104.47813Q28.034374 105.4 27.409374 105.91563Q26.8 106.41563 25.846874 106.41563Q24.6125 106.41563 23.89375 105.525Q23.05 104.4625 23.05 102.04063ZM24.128124 102.04063Q24.128124 104.15 24.628124 104.85313Q25.128124 105.55625 25.846874 105.55625Q26.58125 105.55625 27.065624 104.85313Q27.565624 104.15 27.565624 102.04063Q27.565624 99.91563 27.065624 99.22813Q26.58125 98.525 25.83125 98.525Q25.1125 98.525 24.675 99.13438Q24.128124 99.91563 24.128124 102.04063ZM30.64375 106.275L30.64375 105.07188L31.846874 105.07188L31.846874 106.275L30.64375 106.275ZM33.05 104.00938L34.1125 103.86875Q34.284374 104.75938 34.721874 105.16563Q35.159374 105.55625 35.784374 105.55625Q36.534374 105.55625 37.05 105.04063Q37.565624 104.525 37.565624 103.75938Q37.565624 103.04063 37.08125 102.57188Q36.6125 102.0875 35.878124 102.0875Q35.58125 102.0875 35.128124 102.2125L35.253124 101.275Q35.3625 101.29063 35.425 101.29063Q36.096874 101.29063 36.628124 100.94688Q37.175 100.5875 37.175 99.85313Q37.175 99.275 36.784374 98.9Q36.39375 98.50938 35.76875 98.50938Q35.159374 98.50938 34.7375 98.9Q34.33125 99.29063 34.221874 100.05625L33.159374 99.86875Q33.346874 98.82188 34.034374 98.24375Q34.721874 97.65 35.7375 97.65Q36.440624 97.65 37.034374 97.9625Q37.628124 98.25938 37.940624 98.775Q38.253124 99.29063 38.253124 99.88438Q38.253124 100.43125 37.95625 100.9Q37.659374 101.35313 37.08125 101.61875Q37.83125 101.79063 38.253124 102.35313Q38.675 102.9 38.675 103.74375Q38.675 104.86875 37.846874 105.65Q37.034374 106.43125 35.784374 106.43125Q34.659374 106.43125 33.909374 105.75938Q33.159374 105.07188 33.05 104.00938Z" fill-rule="nonzero"/><path fill="#000000" d="M23.05 25.315624Q23.05 23.784374 23.3625 22.8625Q23.675 21.925 24.284374 21.425Q24.909374 20.925 25.846874 20.925Q26.534374 20.925 27.05 21.20625Q27.58125 21.4875 27.925 22.01875Q28.26875 22.534374 28.45625 23.284374Q28.64375 24.034374 28.64375 25.315624Q28.64375 26.83125 28.33125 27.753124Q28.034374 28.675 27.409374 29.190624Q26.8 29.690624 25.846874 29.690624Q24.6125 29.690624 23.89375 28.8Q23.05 27.7375 23.05 25.315624ZM24.128124 25.315624Q24.128124 27.425 24.628124 28.128124Q25.128124 28.83125 25.846874 28.83125Q26.58125 28.83125 27.065624 28.128124Q27.565624 27.425 27.565624 25.315624Q27.565624 23.190624 27.065624 22.503124Q26.58125 21.8 25.83125 21.8Q25.1125 21.8 24.675 22.409374Q24.128124 23.190624 24.128124 25.315624ZM30.64375 29.55L30.64375 28.346874L31.846874 28.346874L31.846874 29.55L30.64375 29.55ZM36.425 29.55L36.425 27.4875L32.70625 27.4875L32.70625 26.51875L36.628124 20.95625L37.4875 20.95625L37.4875 26.51875L38.64375 26.51875L38.64375 27.4875L37.4875 27.4875L37.4875 29.55L36.425 29.55ZM36.425 26.51875L36.425 22.659374L33.7375 26.51875L36.425 26.51875Z" fill-rule="nonzero"/><path fill="#000000" d="M72.797325 342.96564L71.75045 343.04376Q71.609825 342.41876 71.359825 342.1375Q70.922325 341.6844 70.297325 341.6844Q69.797325 341.6844 69.4067 341.96564Q68.922325 342.34064 68.62545 343.04376Q68.3442 343.73126 68.328575 345.0125Q68.703575 344.4344 69.25045 344.15314Q69.81295 343.8719 70.422325 343.8719Q71.4692 343.8719 72.203575 344.65314Q72.953575 345.4344 72.953575 346.65314Q72.953575 347.46564 72.5942 348.16876Q72.25045 348.85626 71.641075 349.23126Q71.0317 349.59064 70.266075 349.59064Q68.93795 349.59064 68.109825 348.6219Q67.2817 347.65314 67.2817 345.4344Q67.2817 342.9344 68.203575 341.8094Q69.00045 340.825 70.359825 340.825Q71.37545 340.825 72.016075 341.40314Q72.672325 341.96564 72.797325 342.96564ZM68.50045 346.66876Q68.50045 347.21564 68.7192 347.71564Q68.953575 348.2 69.359825 348.46564Q69.7817 348.73126 70.25045 348.73126Q70.9067 348.73126 71.391075 348.2Q71.87545 347.65314 71.87545 346.73126Q71.87545 345.84064 71.391075 345.325Q70.922325 344.8094 70.203575 344.8094Q69.484825 344.8094 68.984825 345.325Q68.50045 345.84064 68.50045 346.66876ZM74.328575 347.2L75.43795 347.10626Q75.56295 347.91876 76.00045 348.325Q76.453575 348.73126 77.0942 348.73126Q77.8442 348.73126 78.37545 348.15314Q78.9067 347.575 78.9067 346.6375Q78.9067 345.73126 78.391075 345.21564Q77.891075 344.6844 77.06295 344.6844Q76.56295 344.6844 76.141075 344.91876Q75.734825 345.15314 75.50045 345.5125L74.516075 345.3875L75.3442 340.98126L79.62545 340.98126L79.62545 341.98126L76.18795 341.98126L75.734825 344.29376Q76.50045 343.7469 77.3442 343.7469Q78.4692 343.7469 79.234825 344.52814Q80.016075 345.3094 80.016075 346.54376Q80.016075 347.7 79.3442 348.5594Q78.516075 349.59064 77.0942 349.59064Q75.922325 349.59064 75.172325 348.9344Q74.43795 348.27814 74.328575 347.2ZM81.62545 349.45L81.62545 340.85626L82.68795 340.85626L82.68795 345.7625L85.172325 343.23126L86.547325 343.23126L84.1567 345.52814L86.7817 349.45L85.484825 349.45L83.422325 346.2625L82.68795 346.98126L82.68795 349.45L81.62545 349.45ZM87.797325 349.45L87.797325 340.85626L88.922325 340.85626L88.922325 344.3875L93.391075 344.3875L93.391075 340.85626L94.5317 340.85626L94.5317 349.45L93.391075 349.45L93.391075 345.40314L88.922325 345.40314L88.922325 349.45L87.797325 349.45ZM96.06295 349.45L96.06295 348.59064L100.0317 344.04376Q99.3442 344.075 98.828575 344.075L96.297325 344.075L96.297325 343.23126L101.391075 343.23126L101.391075 343.91876L98.016075 347.8719L97.359825 348.59064Q98.078575 348.54376 98.68795 348.54376L101.578575 348.54376L101.578575 349.45L96.06295 349.45Z" fill-rule="nonzero"/><path fill="#000000" d="M144.35446 349.45L143.30759 349.45L143.30759 342.73126Q142.91696 343.09064 142.29196 343.46564Q141.68259 343.825 141.19821 343.9969L141.19821 342.98126Q142.07321 342.5594 142.72946 341.98126Q143.40134 341.3875 143.68259 340.825L144.35446 340.825L144.35446 349.45ZM147.38571 347.1844L148.44821 347.04376Q148.62009 347.9344 149.05759 348.34064Q149.49509 348.73126 150.12009 348.73126Q150.87009 348.73126 151.38571 348.21564Q151.90134 347.7 151.90134 346.9344Q151.90134 346.21564 151.41696 345.7469Q150.94821 345.2625 150.21384 345.2625Q149.91696 345.2625 149.46384 345.3875L149.58884 344.45Q149.69821 344.46564 149.76071 344.46564Q150.43259 344.46564 150.96384 344.1219Q151.51071 343.7625 151.51071 343.02814Q151.51071 342.45 151.12009 342.075Q150.72946 341.6844 150.10446 341.6844Q149.49509 341.6844 149.07321 342.075Q148.66696 342.46564 148.55759 343.23126L147.49509 343.04376Q147.68259 341.9969 148.37009 341.41876Q149.05759 340.825 150.07321 340.825Q150.77634 340.825 151.37009 341.1375Q151.96384 341.4344 152.27634 341.95Q152.58884 342.46564 152.58884 343.0594Q152.58884 343.60626 152.29196 344.075Q151.99509 344.52814 151.41696 344.79376Q152.16696 344.96564 152.58884 345.52814Q153.01071 346.075 153.01071 346.91876Q153.01071 348.04376 152.18259 348.825Q151.37009 349.60626 150.12009 349.60626Q148.99509 349.60626 148.24509 348.9344Q147.49509 348.2469 147.38571 347.1844ZM158.35446 349.45L157.30759 349.45L157.30759 342.73126Q156.91696 343.09064 156.29196 343.46564Q155.68259 343.825 155.19821 343.9969L155.19821 342.98126Q156.07321 342.5594 156.72946 341.98126Q157.40134 341.3875 157.68259 340.825L158.35446 340.825L158.35446 349.45ZM161.68259 349.45L161.68259 340.85626L162.74509 340.85626L162.74509 345.7625L165.22946 343.23126L166.60446 343.23126L164.21384 345.52814L166.83884 349.45L165.54196 349.45L163.47946 346.2625L162.74509 346.98126L162.74509 349.45L161.68259 349.45ZM167.85446 349.45L167.85446 340.85626L168.97946 340.85626L168.97946 344.3875L173.44821 344.3875L173.44821 340.85626L174.58884 340.85626L174.58884 349.45L173.44821 349.45L173.44821 345.40314L168.97946 345.40314L168.97946 349.45L167.85446 349.45ZM176.12009 349.45L176.12009 348.59064L180.08884 344.04376Q179.40134 344.075 178.88571 344.075L176.35446 344.075L176.35446 343.23126L181.44821 343.23126L181.44821 343.91876L178.07321 347.8719L177.41696 348.59064Q178.13571 348.54376 178.74509 348.54376L181.63571 348.54376L181.63571 349.45L176.12009 349.45Z" fill-rule="nonzero"/><path fill="#000000" d="M222.48973 348.4344L222.48973 349.45L216.80223 349.45Q216.80223 349.075 216.92723 348.71564Q217.14598 348.1375 217.61473 347.575Q218.0991 347.0125 219.00536 346.27814Q220.4116 345.1219 220.89598 344.45Q221.39598 343.77814 221.39598 343.1844Q221.39598 342.5594 220.94286 342.1375Q220.48973 341.7 219.77098 341.7Q219.00536 341.7 218.55223 342.15314Q218.0991 342.60626 218.08348 343.41876L217.00536 343.3094Q217.11473 342.09064 217.83348 341.46564Q218.56786 340.825 219.80223 340.825Q221.0366 340.825 221.75536 341.5125Q222.4741 342.2 222.4741 343.21564Q222.4741 343.73126 222.25536 344.23126Q222.05223 344.71564 221.55223 345.27814Q221.06786 345.825 219.94286 346.77814Q218.98973 347.575 218.70848 347.8719Q218.44286 348.15314 218.27098 348.4344L222.48973 348.4344ZM229.4116 342.96564L228.36473 343.04376Q228.2241 342.41876 227.9741 342.1375Q227.5366 341.6844 226.9116 341.6844Q226.4116 341.6844 226.02098 341.96564Q225.5366 342.34064 225.23973 343.04376Q224.95848 343.73126 224.94286 345.0125Q225.31786 344.4344 225.86473 344.15314Q226.42723 343.8719 227.0366 343.8719Q228.08348 343.8719 228.81786 344.65314Q229.56786 345.4344 229.56786 346.65314Q229.56786 347.46564 229.20848 348.16876Q228.86473 348.85626 228.25536 349.23126Q227.64598 349.59064 226.88036 349.59064Q225.55223 349.59064 224.7241 348.6219Q223.89598 347.65314 223.89598 345.4344Q223.89598 342.9344 224.81786 341.8094Q225.61473 340.825 226.9741 340.825Q227.98973 340.825 228.63036 341.40314Q229.2866 341.96564 229.4116 342.96564ZM225.11473 346.66876Q225.11473 347.21564 225.33348 347.71564Q225.56786 348.2 225.9741 348.46564Q226.39598 348.73126 226.86473 348.73126Q227.52098 348.73126 228.00536 348.2Q228.48973 347.65314 228.48973 346.73126Q228.48973 345.84064 228.00536 345.325Q227.5366 344.8094 226.81786 344.8094Q226.0991 344.8094 225.5991 345.325Q225.11473 345.84064 225.11473 346.66876ZM236.48973 348.4344L236.48973 349.45L230.80223 349.45Q230.80223 349.075 230.92723 348.71564Q231.14598 348.1375 231.61473 347.575Q232.0991 347.0125 233.00536 346.27814Q234.4116 345.1219 234.89598 344.45Q235.39598 343.77814 235.39598 343.1844Q235.39598 342.5594 234.94286 342.1375Q234.48973 341.7 233.77098 341.7Q233.00536 341.7 232.55223 342.15314Q232.0991 342.60626 232.08348 343.41876L231.00536 343.3094Q231.11473 342.09064 231.83348 341.46564Q232.56786 340.825 233.80223 340.825Q235.0366 340.825 235.75536 341.5125Q236.4741 342.2 236.4741 343.21564Q236.4741 343.73126 236.25536 344.23126Q236.05223 344.71564 235.55223 345.27814Q235.06786 345.825 233.94286 346.77814Q232.98973 347.575 232.70848 347.8719Q232.44286 348.15314 232.27098 348.4344L236.48973 348.4344ZM238.23973 349.45L238.23973 340.85626L239.30223 340.85626L239.30223 345.7625L241.7866 343.23126L243.1616 343.23126L240.77098 345.52814L243.39598 349.45L242.0991 349.45L240.0366 346.2625L239.30223 346.98126L239.30223 349.45L238.23973 349.45ZM244.4116 349.45L244.4116 340.85626L245.5366 340.85626L245.5366 344.3875L250.00536 344.3875L250.00536 340.85626L251.14598 340.85626L251.14598 349.45L250.00536 349.45L250.00536 345.40314L245.5366 345.40314L245.5366 349.45L244.4116 349.45ZM252.67723 349.45L252.67723 348.59064L256.646 344.04376Q255.95848 344.075 255.44286 344.075L252.9116 344.075L252.9116 343.23126L258.00537 343.23126L258.00537 343.91876L254.63036 347.8719L253.9741 348.59064Q254.69286 348.54376 255.30223 348.54376L258.19287 348.54376L258.19287 349.45L252.67723 349.45Z" fill-rule="nonzero"/><path fill="#000000" d="M293.5 347.2L294.60938 347.10626Q294.73438 347.91876 295.17188 348.325Q295.625 348.73126 296.26562 348.73126Q297.01562 348.73126 297.54688 348.15314Q298.07812 347.575 298.07812 346.6375Q298.07812 345.73126 297.5625 345.21564Q297.0625 344.6844 296.23438 344.6844Q295.73438 344.6844 295.3125 344.91876Q294.90625 345.15314 294.67188 345.5125L293.6875 345.3875L294.51562 340.98126L298.79688 340.98126L298.79688 341.98126L295.35938 341.98126L294.90625 344.29376Q295.67188 343.7469 296.51562 343.7469Q297.64062 343.7469 298.40625 344.52814Q299.1875 345.3094 299.1875 346.54376Q299.1875 347.7 298.51562 348.5594Q297.6875 349.59064 296.26562 349.59064Q295.09375 349.59064 294.34375 348.9344Q293.60938 348.27814 293.5 347.2ZM306.04688 348.4344L306.04688 349.45L300.35938 349.45Q300.35938 349.075 300.48438 348.71564Q300.70312 348.1375 301.17188 347.575Q301.65625 347.0125 302.5625 346.27814Q303.96875 345.1219 304.45312 344.45Q304.95312 343.77814 304.95312 343.1844Q304.95312 342.5594 304.5 342.1375Q304.04688 341.7 303.32812 341.7Q302.5625 341.7 302.10938 342.15314Q301.65625 342.60626 301.64062 343.41876L300.5625 343.3094Q300.67188 342.09064 301.39062 341.46564Q302.125 340.825 303.35938 340.825Q304.59375 340.825 305.3125 341.5125Q306.03125 342.2 306.03125 343.21564Q306.03125 343.73126 305.8125 344.23126Q305.60938 344.71564 305.10938 345.27814Q304.625 345.825 303.5 346.77814Q302.54688 347.575 302.26562 347.8719Q302.0 348.15314 301.82812 348.4344L306.04688 348.4344ZM310.875 349.45L310.875 347.3875L307.15625 347.3875L307.15625 346.41876L311.07812 340.85626L311.9375 340.85626L311.9375 346.41876L313.09375 346.41876L313.09375 347.3875L311.9375 347.3875L311.9375 349.45L310.875 349.45ZM310.875 346.41876L310.875 342.5594L308.1875 346.41876L310.875 346.41876ZM314.79688 349.45L314.79688 340.85626L315.85938 340.85626L315.85938 345.7625L318.34375 343.23126L319.71875 343.23126L317.32812 345.52814L319.95312 349.45L318.65625 349.45L316.59375 346.2625L315.85938 346.98126L315.85938 349.45L314.79688 349.45ZM320.96875 349.45L320.96875 340.85626L322.09375 340.85626L322.09375 344.3875L326.5625 344.3875L326.5625 340.85626L327.70312 340.85626L327.70312 349.45L326.5625 349.45L326.5625 345.40314L322.09375 345.40314L322.09375 349.45L320.96875 349.45ZM329.23438 349.45L329.23438 348.59064L333.20312 344.04376Q332.51562 344.075 332.0 344.075L329.46875 344.075L329.46875 343.23126L334.5625 343.23126L334.5625 343.91876L331.1875 347.8719L330.53125 348.59064Q331.25 348.54376 331.85938 348.54376L334.75 348.54376L334.75 349.45L329.23438 349.45Z" fill-rule="nonzero"/><path fill="#000000" d="M370.52588 349.45L369.479 349.45L369.479 342.73126Q369.08838 343.09064 368.46338 343.46564Q367.854 343.825 367.36963 343.9969L367.36963 342.98126Q368.24463 342.5594 368.90088 341.98126Q369.57275 341.3875 369.854 340.825L370.52588 340.825L370.52588 349.45ZM373.55713 345.21564Q373.55713 343.6844 373.86963 342.7625Q374.18213 341.825 374.7915 341.325Q375.4165 340.825 376.354 340.825Q377.0415 340.825 377.55713 341.10626Q378.08838 341.3875 378.43213 341.91876Q378.77588 342.4344 378.96338 343.1844Q379.15088 343.9344 379.15088 345.21564Q379.15088 346.73126 378.83838 347.65314Q378.5415 348.575 377.9165 349.09064Q377.30713 349.59064 376.354 349.59064Q375.11963 349.59064 374.40088 348.7Q373.55713 347.6375 373.55713 345.21564ZM374.63525 345.21564Q374.63525 347.325 375.13525 348.02814Q375.63525 348.73126 376.354 348.73126Q377.08838 348.73126 377.57275 348.02814Q378.07275 347.325 378.07275 345.21564Q378.07275 343.09064 377.57275 342.40314Q377.08838 341.7 376.33838 341.7Q375.61963 341.7 375.18213 342.3094Q374.63525 343.09064 374.63525 345.21564ZM383.93213 349.45L383.93213 347.3875L380.21338 347.3875L380.21338 346.41876L384.13525 340.85626L384.99463 340.85626L384.99463 346.41876L386.15088 346.41876L386.15088 347.3875L384.99463 347.3875L384.99463 349.45L383.93213 349.45ZM383.93213 346.41876L383.93213 342.5594L381.24463 346.41876L383.93213 346.41876ZM389.18213 344.79376Q388.52588 344.54376 388.19775 344.10626Q387.88525 343.65314 387.88525 343.04376Q387.88525 342.10626 388.55713 341.46564Q389.24463 340.825 390.354 340.825Q391.479 340.825 392.1665 341.48126Q392.854 342.1375 392.854 343.075Q392.854 343.66876 392.5415 344.10626Q392.229 344.54376 391.58838 344.79376Q392.38525 345.04376 392.7915 345.6219Q393.19775 346.2 393.19775 346.9969Q393.19775 348.09064 392.4165 348.84064Q391.65088 349.59064 390.36963 349.59064Q389.104 349.59064 388.32275 348.84064Q387.5415 348.09064 387.5415 346.96564Q387.5415 346.1219 387.96338 345.5594Q388.40088 344.9969 389.18213 344.79376ZM388.96338 342.9969Q388.96338 343.60626 389.354 343.9969Q389.76025 344.3875 390.38525 344.3875Q390.99463 344.3875 391.38525 344.0125Q391.77588 343.6219 391.77588 343.0594Q391.77588 342.48126 391.36963 342.09064Q390.96338 341.6844 390.36963 341.6844Q389.76025 341.6844 389.354 342.075Q388.96338 342.46564 388.96338 342.9969ZM388.63525 346.96564Q388.63525 347.41876 388.83838 347.84064Q389.05713 348.2625 389.479 348.4969Q389.90088 348.73126 390.38525 348.73126Q391.13525 348.73126 391.61963 348.2469Q392.11963 347.7625 392.11963 347.0125Q392.11963 346.2469 391.61963 345.7469Q391.11963 345.2469 390.354 345.2469Q389.604 345.2469 389.11963 345.7469Q388.63525 346.23126 388.63525 346.96564ZM394.854 349.45L394.854 340.85626L395.9165 340.85626L395.9165 345.7625L398.40088 343.23126L399.77588 343.23126L397.38525 345.52814L400.01025 349.45L398.71338 349.45L396.65088 346.2625L395.9165 346.98126L395.9165 349.45L394.854 349.45ZM401.02588 349.45L401.02588 340.85626L402.15088 340.85626L402.15088 344.3875L406.61963 344.3875L406.61963 340.85626L407.76025 340.85626L407.76025 349.45L406.61963 349.45L406.61963 345.40314L402.15088 345.40314L402.15088 349.45L401.02588 349.45ZM409.2915 349.45L409.2915 348.59064L413.26025 344.04376Q412.57275 344.075 412.05713 344.075L409.52588 344.075L409.52588 343.23126L414.61963 343.23126L414.61963 343.91876L411.24463 347.8719L410.58838 348.59064Q411.30713 348.54376 411.9165 348.54376L414.80713 348.54376L414.80713 349.45L409.2915 349.45Z" fill-rule="nonzero"/><path fill="#000000" d="M448.66116 348.4344L448.66116 349.45L442.97366 349.45Q442.97366 349.075 443.09866 348.71564Q443.3174 348.1375 443.78616 347.575Q444.27054 347.0125 445.1768 346.27814Q446.58304 345.1219 447.0674 344.45Q447.5674 343.77814 447.5674 343.1844Q447.5674 342.5594 447.1143 342.1375Q446.66116 341.7 445.9424 341.7Q445.1768 341.7 444.72366 342.15314Q444.27054 342.60626 444.2549 343.41876L443.1768 343.3094Q443.28616 342.09064 444.0049 341.46564Q444.7393 340.825 445.97366 340.825Q447.20804 340.825 447.9268 341.5125Q448.64554 342.2 448.64554 343.21564Q448.64554 343.73126 448.4268 344.23126Q448.22366 344.71564 447.72366 345.27814Q447.2393 345.825 446.1143 346.77814Q445.16116 347.575 444.8799 347.8719Q444.6143 348.15314 444.4424 348.4344L448.66116 348.4344ZM450.1143 345.21564Q450.1143 343.6844 450.4268 342.7625Q450.7393 341.825 451.34866 341.325Q451.97366 340.825 452.91116 340.825Q453.59866 340.825 454.1143 341.10626Q454.64554 341.3875 454.9893 341.91876Q455.33304 342.4344 455.52054 343.1844Q455.70804 343.9344 455.70804 345.21564Q455.70804 346.73126 455.39554 347.65314Q455.09866 348.575 454.47366 349.09064Q453.8643 349.59064 452.91116 349.59064Q451.6768 349.59064 450.95804 348.7Q450.1143 347.6375 450.1143 345.21564ZM451.1924 345.21564Q451.1924 347.325 451.6924 348.02814Q452.1924 348.73126 452.91116 348.73126Q453.64554 348.73126 454.1299 348.02814Q454.6299 347.325 454.6299 345.21564Q454.6299 343.09064 454.1299 342.40314Q453.64554 341.7 452.89554 341.7Q452.1768 341.7 451.7393 342.3094Q451.1924 343.09064 451.1924 345.21564ZM457.27054 347.46564L458.28616 347.3719Q458.41116 348.09064 458.77054 348.41876Q459.14554 348.73126 459.70804 348.73126Q460.1924 348.73126 460.5518 348.5125Q460.9268 348.27814 461.16116 347.91876Q461.39554 347.54376 461.5518 346.91876Q461.70804 346.27814 461.70804 345.6219Q461.70804 345.54376 461.70804 345.40314Q461.39554 345.90314 460.84866 346.23126Q460.3018 346.54376 459.66116 346.54376Q458.58304 346.54376 457.84866 345.77814Q457.1143 344.9969 457.1143 343.73126Q457.1143 342.41876 457.8799 341.6219Q458.66116 340.825 459.8174 340.825Q460.64554 340.825 461.33304 341.27814Q462.03616 341.73126 462.39554 342.575Q462.7549 343.40314 462.7549 344.98126Q462.7549 346.6219 462.39554 347.60626Q462.0518 348.575 461.33304 349.09064Q460.6299 349.59064 459.6924 349.59064Q458.6768 349.59064 458.03616 349.04376Q457.39554 348.48126 457.27054 347.46564ZM461.58304 343.66876Q461.58304 342.7625 461.09866 342.23126Q460.6299 341.7 459.9424 341.7Q459.2393 341.7 458.70804 342.27814Q458.1924 342.84064 458.1924 343.7625Q458.1924 344.575 458.6924 345.09064Q459.1924 345.60626 459.91116 345.60626Q460.64554 345.60626 461.1143 345.09064Q461.58304 344.575 461.58304 343.66876ZM469.58304 342.96564L468.53616 343.04376Q468.39554 342.41876 468.14554 342.1375Q467.70804 341.6844 467.08304 341.6844Q466.58304 341.6844 466.1924 341.96564Q465.70804 342.34064 465.41116 343.04376Q465.1299 343.73126 465.1143 345.0125Q465.4893 344.4344 466.03616 344.15314Q466.59866 343.8719 467.20804 343.8719Q468.2549 343.8719 468.9893 344.65314Q469.7393 345.4344 469.7393 346.65314Q469.7393 347.46564 469.3799 348.16876Q469.03616 348.85626 468.4268 349.23126Q467.8174 349.59064 467.0518 349.59064Q465.72366 349.59064 464.89554 348.6219Q464.0674 347.65314 464.0674 345.4344Q464.0674 342.9344 464.9893 341.8094Q465.78616 340.825 467.14554 340.825Q468.16116 340.825 468.8018 341.40314Q469.45804 341.96564 469.58304 342.96564ZM465.28616 346.66876Q465.28616 347.21564 465.5049 347.71564Q465.7393 348.2 466.14554 348.46564Q466.5674 348.73126 467.03616 348.73126Q467.6924 348.73126 468.1768 348.2Q468.66116 347.65314 468.66116 346.73126Q468.66116 345.84064 468.1768 345.325Q467.70804 344.8094 466.9893 344.8094Q466.27054 344.8094 465.77054 345.325Q465.28616 345.84064 465.28616 346.66876ZM471.41116 349.45L471.41116 340.85626L472.47366 340.85626L472.47366 345.7625L474.95804 343.23126L476.33304 343.23126L473.9424 345.52814L476.5674 349.45L475.27054 349.45L473.20804 346.2625L472.47366 346.98126L472.47366 349.45L471.41116 349.45ZM477.58304 349.45L477.58304 340.85626L478.70804 340.85626L478.70804 344.3875L483.1768 344.3875L483.1768 340.85626L484.3174 340.85626L484.3174 349.45L483.1768 349.45L483.1768 345.40314L478.70804 345.40314L478.70804 349.45L477.58304 349.45ZM485.84866 349.45L485.84866 348.59064L489.8174 344.04376Q489.1299 344.075 488.6143 344.075L486.08304 344.075L486.08304 343.23126L491.1768 343.23126L491.1768 343.91876L487.8018 347.8719L487.14554 348.59064Q487.8643 348.54376 488.47366 348.54376L491.3643 348.54376L491.3643 349.45L485.84866 349.45Z" fill-rule="nonzero"/><path fill="#000000" d="M523.04645 349.45L523.04645 347.3875L519.3277 347.3875L519.3277 346.41876L523.2496 340.85626L524.10895 340.85626L524.10895 346.41876L525.2652 346.41876L525.2652 347.3875L524.10895 347.3875L524.10895 349.45L523.04645 349.45ZM523.04645 346.41876L523.04645 342.5594L520.35895 346.41876L523.04645 346.41876ZM530.6402 349.45L529.5933 349.45L529.5933 342.73126Q529.2027 343.09064 528.5777 343.46564Q527.9683 343.825 527.48395 343.9969L527.48395 342.98126Q528.35895 342.5594 529.0152 341.98126Q529.6871 341.3875 529.9683 340.825L530.6402 340.825L530.6402 349.45ZM533.8277 347.46564L534.8433 347.3719Q534.9683 348.09064 535.3277 348.41876Q535.7027 348.73126 536.2652 348.73126Q536.7496 348.73126 537.10895 348.5125Q537.48395 348.27814 537.7183 347.91876Q537.9527 347.54376 538.10895 346.91876Q538.2652 346.27814 538.2652 345.6219Q538.2652 345.54376 538.2652 345.40314Q537.9527 345.90314 537.4058 346.23126Q536.85895 346.54376 536.2183 346.54376Q535.1402 346.54376 534.4058 345.77814Q533.67145 344.9969 533.67145 343.73126Q533.67145 342.41876 534.4371 341.6219Q535.2183 340.825 536.3746 340.825Q537.2027 340.825 537.8902 341.27814Q538.5933 341.73126 538.9527 342.575Q539.3121 343.40314 539.3121 344.98126Q539.3121 346.6219 538.9527 347.60626Q538.60895 348.575 537.8902 349.09064Q537.1871 349.59064 536.2496 349.59064Q535.23395 349.59064 534.5933 349.04376Q533.9527 348.48126 533.8277 347.46564ZM538.1402 343.66876Q538.1402 342.7625 537.6558 342.23126Q537.1871 341.7 536.4996 341.7Q535.79645 341.7 535.2652 342.27814Q534.7496 342.84064 534.7496 343.7625Q534.7496 344.575 535.2496 345.09064Q535.7496 345.60626 536.4683 345.60626Q537.2027 345.60626 537.67145 345.09064Q538.1402 344.575 538.1402 343.66876ZM544.04645 349.45L544.04645 347.3875L540.3277 347.3875L540.3277 346.41876L544.2496 340.85626L545.10895 340.85626L545.10895 346.41876L546.2652 346.41876L546.2652 347.3875L545.10895 347.3875L545.10895 349.45L544.04645 349.45ZM544.04645 346.41876L544.04645 342.5594L541.35895 346.41876L544.04645 346.41876ZM547.9683 349.45L547.9683 340.85626L549.0308 340.85626L549.0308 345.7625L551.5152 343.23126L552.8902 343.23126L550.4996 345.52814L553.1246 349.45L551.8277 349.45L549.7652 346.2625L549.0308 346.98126L549.0308 349.45L547.9683 349.45ZM554.1402 349.45L554.1402 340.85626L555.2652 340.85626L555.2652 344.3875L559.73395 344.3875L559.73395 340.85626L560.8746 340.85626L560.8746 349.45L559.73395 349.45L559.73395 345.40314L555.2652 345.40314L555.2652 349.45L554.1402 349.45ZM562.4058 349.45L562.4058 348.59064L566.3746 344.04376Q565.6871 344.075 565.17145 344.075L562.6402 344.075L562.6402 343.23126L567.73395 343.23126L567.73395 343.91876L564.35895 347.8719L563.7027 348.59064Q564.42145 348.54376 565.0308 348.54376L567.92145 348.54376L567.92145 349.45L562.4058 349.45Z" fill-rule="nonzero"/></svg>