<svg version="1.1" viewBox="0.0 0.0 600.0 393.0" fill="none" stroke="none" stroke-linecap="square" stroke-miterlimit="10" width="600" height="393" xmlns:xlink="http://www.w3.org/1999/xlink" xmlns="http://www.w3.org/2000/svg"><path fill="#ffffff" d="M0 0L600.0 0L600.0 393.0L0 393.0L0 0Z" fill-rule="nonzero"/><path stroke="#333333" stroke-width="1.0" stroke-linecap="butt" d="M45.5 256.5L580.5 256.5" fill-rule="nonzero"/><path stroke="#cccccc" stroke-width="1.0" stroke-linecap="butt" d="M45.5 210.5L580.5 210.5" fill-rule="nonzero"/><path stroke="#cccccc" stroke-width="1.0" stroke-linecap="butt" d="M45.5 164.5L580.5 164.5" fill-rule="nonzero"/><path stroke="#cccccc" stroke-width="1.0" stroke-linecap="butt" d="M45.5 117.5L580.5 117.5" fill-rule="nonzero"/><path stroke="#cccccc" stroke-width="1.0" stroke-linecap="butt" d="M45.5 71.5L580.5 71.5" fill-rule="nonzero"/><path stroke="#cccccc" stroke-width="1.0" stroke-linecap="butt" d="M45.5 25.5L580.5 25.5" fill-rule="nonzero"/><clipPath id="id_0"><path d="M45.65 25.65L580.35 25.65L580.35 256.5L45.65 256.5L45.65 25.65Z" clip-rule="nonzero"/></clipPath><path stroke="#000000" stroke-width="2.0" stroke-linecap="butt" stroke-opacity="0.0" clip-path="url(#id_0)" d="M93.0 257.0L62.0 257.0L62.0 78.0C62.0 76.89543 62.89543 76.0 64.0 76.0L91.0 76.0C92.10457 76.0 93.0 76.89543 93.0 78.0Z" fill-rule="nonzero"/><path fill="#4285f4" clip-path="url(#id_0)" d="M93.0 257.0L62.0 257.0L62.0 78.0C62.0 76.89543 62.89543 76.0 64.0 76.0L91.0 76.0C92.10457 76.0 93.0 76.89543 93.0 78.0Z" fill-rule="nonzero"/><path stroke="#000000" stroke-width="2.0" stroke-linecap="butt" stroke-opacity="0.0" clip-path="url(#id_0)" d="M141.0 257.0L110.0 257.0L110.0 101.0C110.0 99.89543 110.89543 99.0 112.0 99.0L139.0 99.0C140.10457 99.0 141.0 99.89543 141.0 101.0Z" fill-rule="nonzero"/><path fill="#4285f4" clip-path="url(#id_0)" d="M141.0 257.0L110.0 257.0L110.0 101.0C110.0 99.89543 110.89543 99.0 112.0 99.0L139.0 99.0C140.10457 99.0 141.0 99.89543 141.0 101.0Z" fill-rule="nonzero"/><path stroke="#000000" stroke-width="2.0" stroke-linecap="butt" stroke-opacity="0.0" clip-path="url(#id_0)" d="M188.0 257.0L157.0 257.0L157.0 83.0C157.0 81.89543 157.89543 81.0 159.0 81.0L186.0 81.0C187.10457 81.0 188.0 81.89543 188.0 83.0Z" fill-rule="nonzero"/><path fill="#4285f4" clip-path="url(#id_0)" d="M188.0 257.0L157.0 257.0L157.0 83.0C157.0 81.89543 157.89543 81.0 159.0 81.0L186.0 81.0C187.10457 81.0 188.0 81.89543 188.0 83.0Z" fill-rule="nonzero"/><path stroke="#000000" stroke-width="2.0" stroke-linecap="butt" stroke-opacity="0.0" clip-path="url(#id_0)" d="M235.0 257.0L204.0 257.0L204.0 77.0C204.0 75.89543 204.89543 75.0 206.0 75.0L233.0 75.0C234.10457 75.0 235.0 75.89543 235.0 77.0Z" fill-rule="nonzero"/><path fill="#4285f4" clip-path="url(#id_0)" d="M235.0 257.0L204.0 257.0L204.0 77.0C204.0 75.89543 204.89543 75.0 206.0 75.0L233.0 75.0C234.10457 75.0 235.0 75.89543 235.0 77.0Z" fill-rule="nonzero"/><path stroke="#000000" stroke-width="2.0" stroke-linecap="butt" stroke-opacity="0.0" clip-path="url(#id_0)" d="M282.0 257.0L251.0 257.0L251.0 79.0C251.0 77.89543 251.89543 77.0 253.0 77.0L280.0 77.0C281.10458 77.0 282.0 77.89543 282.0 79.0Z" fill-rule="nonzero"/><path fill="#4285f4" clip-path="url(#id_0)" d="M282.0 257.0L251.0 257.0L251.0 79.0C251.0 77.89543 251.89543 77.0 253.0 77.0L280.0 77.0C281.10458 77.0 282.0 77.89543 282.0 79.0Z" fill-rule="nonzero"/><path stroke="#000000" stroke-width="2.0" stroke-linecap="butt" stroke-opacity="0.0" clip-path="url(#id_0)" d="M329.0 257.0L298.0 257.0L298.0 80.0C298.0 78.89543 298.89542 78.0 300.0 78.0L327.0 78.0C328.10458 78.0 329.0 78.89543 329.0 80.0Z" fill-rule="nonzero"/><path fill="#4285f4" clip-path="url(#id_0)" d="M329.0 257.0L298.0 257.0L298.0 80.0C298.0 78.89543 298.89542 78.0 300.0 78.0L327.0 78.0C328.10458 78.0 329.0 78.89543 329.0 80.0Z" fill-rule="nonzero"/><path stroke="#000000" stroke-width="2.0" stroke-linecap="butt" stroke-opacity="0.0" clip-path="url(#id_0)" d="M376.0 257.0L345.0 257.0L345.0 77.0C345.0 75.89543 345.89542 75.0 347.0 75.0L374.0 75.0C375.10458 75.0 376.0 75.89543 376.0 77.0Z" fill-rule="nonzero"/><path fill="#4285f4" clip-path="url(#id_0)" d="M376.0 257.0L345.0 257.0L345.0 77.0C345.0 75.89543 345.89542 75.0 347.0 75.0L374.0 75.0C375.10458 75.0 376.0 75.89543 376.0 77.0Z" fill-rule="nonzero"/><path stroke="#000000" stroke-width="2.0" stroke-linecap="butt" stroke-opacity="0.0" clip-path="url(#id_0)" d="M423.0 257.0L392.0 257.0L392.0 80.0C392.0 78.89543 392.89542 78.0 394.0 78.0L421.0 78.0C422.10458 78.0 423.0 78.89543 423.0 80.0Z" fill-rule="nonzero"/><path fill="#4285f4" clip-path="url(#id_0)" d="M423.0 257.0L392.0 257.0L392.0 80.0C392.0 78.89543 392.89542 78.0 394.0 78.0L421.0 78.0C422.10458 78.0 423.0 78.89543 423.0 80.0Z" fill-rule="nonzero"/><path stroke="#000000" stroke-width="2.0" stroke-linecap="butt" stroke-opacity="0.0" clip-path="url(#id_0)" d="M470.0 257.0L439.0 257.0L439.0 84.0C439.0 82.89543 439.89542 82.0 441.0 82.0L468.0 82.0C469.10458 82.0 470.0 82.89543 470.0 84.0Z" fill-rule="nonzero"/><path fill="#4285f4" clip-path="url(#id_0)" d="M470.0 257.0L439.0 257.0L439.0 84.0C439.0 82.89543 439.89542 82.0 441.0 82.0L468.0 82.0C469.10458 82.0 470.0 82.89543 470.0 84.0Z" fill-rule="nonzero"/><path stroke="#000000" stroke-width="2.0" stroke-linecap="butt" stroke-opacity="0.0" clip-path="url(#id_0)" d="M517.0 257.0L486.0 257.0L486.0 72.0C486.0 70.89543 486.89542 70.0 488.0 70.0L515.0 70.0C516.10455 70.0 517.0 70.89543 517.0 72.0Z" fill-rule="nonzero"/><path fill="#4285f4" clip-path="url(#id_0)" d="M517.0 257.0L486.0 257.0L486.0 72.0C486.0 70.89543 486.89542 70.0 488.0 70.0L515.0 70.0C516.10455 70.0 517.0 70.89543 517.0 72.0Z" fill-rule="nonzero"/><path stroke="#000000" stroke-width="2.0" stroke-linecap="butt" stroke-opacity="0.0" clip-path="url(#id_0)" d="M565.0 257.0L534.0 257.0L534.0 119.0C534.0 117.89543 534.89545 117.0 536.0 117.0L563.0 117.0C564.10455 117.0 565.0 117.89543 565.0 119.0Z" fill-rule="nonzero"/><path fill="#4285f4" clip-path="url(#id_0)" d="M565.0 257.0L534.0 257.0L534.0 119.0C534.0 117.89543 534.89545 117.0 536.0 117.0L563.0 117.0C564.10455 117.0 565.0 117.89543 565.0 119.0Z" fill-rule="nonzero"/><path fill="#000000" d="M23.15 256.26562Q23.15 254.73438 23.4625 253.8125Q23.775 252.875 24.384375 252.375Q25.009375 251.875 25.946875 251.875Q26.634375 251.875 27.15 252.15625Q27.68125 252.4375 28.025 252.96875Q28.36875 253.48438 28.55625 254.23438Q28.74375 254.98438 28.74375 256.26562Q28.74375 257.78125 28.43125 258.70312Q28.134375 259.625 27.509375 260.14062Q26.9 260.64062 25.946875 260.64062Q24.7125 260.64062 23.99375 259.75Q23.15 258.6875 23.15 256.26562ZM24.228125 256.26562Q24.228125 258.375 24.728125 259.07812Q25.228125 259.78125 25.946875 259.78125Q26.68125 259.78125 27.165625 259.07812Q27.665625 258.375 27.665625 256.26562Q27.665625 254.14062 27.165625 253.45312Q26.68125 252.75 25.93125 252.75Q25.2125 252.75 24.775 253.35938Q24.228125 254.14062 24.228125 256.26562ZM30.74375 260.5L30.74375 259.29688L31.946875 259.29688L31.946875 260.5L30.74375 260.5ZM33.15 256.26562Q33.15 254.73438 33.4625 253.8125Q33.775 252.875 34.384377 252.375Q35.009377 251.875 35.946877 251.875Q36.634377 251.875 37.15 252.15625Q37.68125 252.4375 38.025 252.96875Q38.36875 253.48438 38.55625 254.23438Q38.74375 254.98438 38.74375 256.26562Q38.74375 257.78125 38.43125 258.70312Q38.134377 259.625 37.509377 260.14062Q36.9 260.64062 35.946877 260.64062Q34.7125 260.64062 33.99375 259.75Q33.15 258.6875 33.15 256.26562ZM34.228127 256.26562Q34.228127 258.375 34.728127 259.07812Q35.228127 259.78125 35.946877 259.78125Q36.68125 259.78125 37.165627 259.07812Q37.665627 258.375 37.665627 256.26562Q37.665627 254.14062 37.165627 253.45312Q36.68125 252.75 35.93125 252.75Q35.2125 252.75 34.775 253.35938Q34.228127 254.14062 34.228127 256.26562Z" fill-rule="nonzero"/><path fill="#000000" d="M23.15 210.09563Q23.15 208.56438 23.4625 207.6425Q23.775 206.705 24.384375 206.205Q25.009375 205.705 25.946875 205.705Q26.634375 205.705 27.15 205.98625Q27.68125 206.2675 28.025 206.79875Q28.36875 207.31438 28.55625 208.06438Q28.74375 208.81438 28.74375 210.09563Q28.74375 211.61125 28.43125 212.53313Q28.134375 213.455 27.509375 213.97063Q26.9 214.47063 25.946875 214.47063Q24.7125 214.47063 23.99375 213.58Q23.15 212.5175 23.15 210.09563ZM24.228125 210.09563Q24.228125 212.205 24.728125 212.90813Q25.228125 213.61125 25.946875 213.61125Q26.68125 213.61125 27.165625 212.90813Q27.665625 212.205 27.665625 210.09563Q27.665625 207.97063 27.165625 207.28313Q26.68125 206.58 25.93125 206.58Q25.2125 206.58 24.775 207.18938Q24.228125 207.97063 24.228125 210.09563ZM30.74375 214.33L30.74375 213.12688L31.946875 213.12688L31.946875 214.33L30.74375 214.33ZM37.11875 214.33L36.071877 214.33L36.071877 207.61125Q35.68125 207.97063 35.05625 208.34563Q34.446877 208.705 33.9625 208.87688L33.9625 207.86125Q34.8375 207.43938 35.49375 206.86125Q36.165627 206.2675 36.446877 205.705L37.11875 205.705L37.11875 214.33Z" fill-rule="nonzero"/><path fill="#000000" d="M23.15 163.92563Q23.15 162.39438 23.4625 161.4725Q23.775 160.535 24.384375 160.035Q25.009375 159.535 25.946875 159.535Q26.634375 159.535 27.15 159.81625Q27.68125 160.0975 28.025 160.62875Q28.36875 161.14438 28.55625 161.89438Q28.74375 162.64438 28.74375 163.92563Q28.74375 165.44125 28.43125 166.36313Q28.134375 167.285 27.509375 167.80063Q26.9 168.30063 25.946875 168.30063Q24.7125 168.30063 23.99375 167.41Q23.15 166.3475 23.15 163.92563ZM24.228125 163.92563Q24.228125 166.035 24.728125 166.73813Q25.228125 167.44125 25.946875 167.44125Q26.68125 167.44125 27.165625 166.73813Q27.665625 166.035 27.665625 163.92563Q27.665625 161.80063 27.165625 161.11313Q26.68125 160.41 25.93125 160.41Q25.2125 160.41 24.775 161.01938Q24.228125 161.80063 24.228125 163.92563ZM30.74375 168.16L30.74375 166.95688L31.946875 166.95688L31.946875 168.16L30.74375 168.16ZM38.696877 167.14438L38.696877 168.16L33.009377 168.16Q33.009377 167.785 33.134377 167.42563Q33.353127 166.8475 33.821877 166.285Q34.30625 165.7225 35.2125 164.98813Q36.61875 163.83188 37.103127 163.16Q37.603127 162.48813 37.603127 161.89438Q37.603127 161.26938 37.15 160.8475Q36.696877 160.41 35.978127 160.41Q35.2125 160.41 34.759377 160.86313Q34.30625 161.31625 34.290627 162.12875L33.2125 162.01938Q33.321877 160.80063 34.040627 160.17563Q34.775 159.535 36.009377 159.535Q37.24375 159.535 37.9625 160.2225Q38.68125 160.91 38.68125 161.92563Q38.68125 162.44125 38.4625 162.94125Q38.259377 163.42563 37.759377 163.98813Q37.275 164.535 36.15 165.48813Q35.196877 166.285 34.915627 166.58188Q34.65 166.86313 34.478127 167.14438L38.696877 167.14438Z" fill-rule="nonzero"/><path fill="#000000" d="M23.15 117.75562Q23.15 116.22437 23.4625 115.3025Q23.775 114.365 24.384375 113.865Q25.009375 113.365 25.946875 113.365Q26.634375 113.365 27.15 113.64625Q27.68125 113.9275 28.025 114.45875Q28.36875 114.97437 28.55625 115.72437Q28.74375 116.47437 28.74375 117.75562Q28.74375 119.27125 28.43125 120.19312Q28.134375 121.115 27.509375 121.63062Q26.9 122.13062 25.946875 122.13062Q24.7125 122.13062 23.99375 121.24Q23.15 120.1775 23.15 117.75562ZM24.228125 117.75562Q24.228125 119.865 24.728125 120.56812Q25.228125 121.27125 25.946875 121.27125Q26.68125 121.27125 27.165625 120.56812Q27.665625 119.865 27.665625 117.75562Q27.665625 115.63062 27.165625 114.94312Q26.68125 114.24 25.93125 114.24Q25.2125 114.24 24.775 114.84937Q24.228125 115.63062 24.228125 117.75562ZM30.74375 121.99L30.74375 120.78687L31.946875 120.78687L31.946875 121.99L30.74375 121.99ZM33.15 119.72437L34.2125 119.58375Q34.384377 120.47437 34.821877 120.88062Q35.259377 121.27125 35.884377 121.27125Q36.634377 121.27125 37.15 120.75562Q37.665627 120.24 37.665627 119.47437Q37.665627 118.75562 37.18125 118.28687Q36.7125 117.8025 35.978127 117.8025Q35.68125 117.8025 35.228127 117.9275L35.353127 116.99Q35.4625 117.00562 35.525 117.00562Q36.196877 117.00562 36.728127 116.66187Q37.275 116.3025 37.275 115.56812Q37.275 114.99 36.884377 114.615Q36.49375 114.22437 35.86875 114.22437Q35.259377 114.22437 34.8375 114.615Q34.43125 115.00562 34.321877 115.77125L33.259377 115.58375Q33.446877 114.53687 34.134377 113.95875Q34.821877 113.365 35.8375 113.365Q36.540627 113.365 37.134377 113.6775Q37.728127 113.97437 38.040627 114.49Q38.353127 115.00562 38.353127 115.59937Q38.353127 116.14625 38.05625 116.615Q37.759377 117.06812 37.18125 117.33375Q37.93125 117.50562 38.353127 118.06812Q38.775 118.615 38.775 119.45875Q38.775 120.58375 37.946877 121.365Q37.134377 122.14625 35.884377 122.14625Q34.759377 122.14625 34.009377 121.47437Q33.259377 120.78687 33.15 119.72437Z" fill-rule="nonzero"/><path fill="#000000" d="M23.15 71.585625Q23.15 70.054375 23.4625 69.1325Q23.775 68.195 24.384375 67.695Q25.009375 67.195 25.946875 67.195Q26.634375 67.195 27.15 67.47625Q27.68125 67.7575 28.025 68.28875Q28.36875 68.804375 28.55625 69.554375Q28.74375 70.304375 28.74375 71.585625Q28.74375 73.10125 28.43125 74.023125Q28.134375 74.945 27.509375 75.460625Q26.9 75.960625 25.946875 75.960625Q24.7125 75.960625 23.99375 75.07Q23.15 74.0075 23.15 71.585625ZM24.228125 71.585625Q24.228125 73.695 24.728125 74.398125Q25.228125 75.10125 25.946875 75.10125Q26.68125 75.10125 27.165625 74.398125Q27.665625 73.695 27.665625 71.585625Q27.665625 69.460625 27.165625 68.773125Q26.68125 68.07 25.93125 68.07Q25.2125 68.07 24.775 68.679375Q24.228125 69.460625 24.228125 71.585625ZM30.74375 75.82L30.74375 74.616875L31.946875 74.616875L31.946875 75.82L30.74375 75.82ZM36.525 75.82L36.525 73.7575L32.80625 73.7575L32.80625 72.78875L36.728127 67.22625L37.5875 67.22625L37.5875 72.78875L38.74375 72.78875L38.74375 73.7575L37.5875 73.7575L37.5875 75.82L36.525 75.82ZM36.525 72.78875L36.525 68.929375L33.8375 72.78875L36.525 72.78875Z" fill-rule="nonzero"/><path fill="#000000" d="M23.15 25.415625Q23.15 23.884375 23.4625 22.9625Q23.775 22.025 24.384375 21.525Q25.009375 21.025 25.946875 21.025Q26.634375 21.025 27.15 21.30625Q27.68125 21.5875 28.025 22.11875Q28.36875 22.634375 28.55625 23.384375Q28.74375 24.134375 28.74375 25.415625Q28.74375 26.93125 28.43125 27.853125Q28.134375 28.775 27.509375 29.290625Q26.9 29.790625 25.946875 29.790625Q24.7125 29.790625 23.99375 28.9Q23.15 27.8375 23.15 25.415625ZM24.228125 25.415625Q24.228125 27.525 24.728125 28.228125Q25.228125 28.93125 25.946875 28.93125Q26.68125 28.93125 27.165625 28.228125Q27.665625 27.525 27.665625 25.415625Q27.665625 23.290625 27.165625 22.603125Q26.68125 21.9 25.93125 21.9Q25.2125 21.9 24.775 22.509375Q24.228125 23.290625 24.228125 25.415625ZM30.74375 29.65L30.74375 28.446875L31.946875 28.446875L31.946875 29.65L30.74375 29.65ZM33.15 27.4L34.259377 27.30625Q34.384377 28.11875 34.821877 28.525Q35.275 28.93125 35.915627 28.93125Q36.665627 28.93125 37.196877 28.353125Q37.728127 27.775 37.728127 26.8375Q37.728127 25.93125 37.2125 25.415625Q36.7125 24.884375 35.884377 24.884375Q35.384377 24.884375 34.9625 25.11875Q34.55625 25.353125 34.321877 25.7125L33.3375 25.5875L34.165627 21.18125L38.446877 21.18125L38.446877 22.18125L35.009377 22.18125L34.55625 24.49375Q35.321877 23.946875 36.165627 23.946875Q37.290627 23.946875 38.05625 24.728125Q38.8375 25.509375 38.8375 26.74375Q38.8375 27.9 38.165627 28.759375Q37.3375 29.790625 35.915627 29.790625Q34.74375 29.790625 33.99375 29.134375Q33.259377 28.478125 33.15 27.4Z" fill-rule="nonzero"/><path fill="#000000" d="M69.52752 282.33212L68.77622 281.5808L71.07432 279.2827L71.82562 280.03403L69.52752 282.33212ZM71.36158 278.22208Q69.84793 276.7084 69.803734 275.05115Q69.759544 273.37177 71.041176 272.09012Q71.891914 271.23938 72.97467 270.9742Q74.04638 270.698 75.11809 271.06262Q76.1898 271.42722 77.10683 272.34424Q78.02385 273.26126 78.3774 274.36612Q78.73096 275.47098 78.4216 276.53165Q78.12329 277.58124 77.3278 278.37674Q76.46601 279.23853 75.38325 279.5037Q74.289444 279.7578 73.22878 279.40427Q72.16812 279.02863 71.36158 278.22208ZM72.20127 277.40448Q73.30612 278.50934 74.52146 278.55353Q75.747856 278.58667 76.642784 277.69174Q77.54877 276.78577 77.50457 275.5704Q77.449326 274.34402 76.267136 273.16183Q75.52688 272.42157 74.72034 272.12326Q73.92484 271.8139 73.140396 272.00174Q72.3449 272.17853 71.74828 272.77515Q70.897545 273.6259 70.864395 274.83017Q70.83125 276.03445 72.20127 277.40448ZM77.63715 271.88022Q76.5544 270.79745 76.123505 269.92462Q75.681564 269.04074 75.7589 268.2563Q75.84729 267.4608 76.5102 266.79788Q76.99634 266.31174 77.559814 266.146Q78.13434 265.96924 78.75306 266.1018Q79.360725 266.22336 80.023636 266.6211Q80.686554 267.01886 81.59253 267.92484Q82.66424 268.99652 83.09513 269.86935Q83.53708 270.73114 83.45974 271.5377Q83.38239 272.32214 82.708435 272.9961Q81.8356 273.86893 80.6976 273.7474Q79.34968 273.59274 77.63715 271.88022ZM78.399506 271.11786Q79.89106 272.6094 80.74179 272.75305Q81.59253 272.89667 82.10076 272.38843Q82.62005 271.86914 82.46537 271.02948Q82.32174 270.17874 80.830185 268.68716Q79.32758 267.18457 78.48789 267.052Q77.6482 266.8973 77.117874 267.42764Q76.60964 267.93588 76.73117 268.67612Q76.896904 269.61526 78.399506 271.11786Z" fill-rule="nonzero"/><path fill="#000000" d="M116.63766 282.33212L115.88635 281.58084L118.18445 279.2827L118.93575 280.03403L116.63766 282.33212ZM118.47171 278.22208Q116.95806 276.7084 116.913864 275.05115Q116.869675 273.37177 118.151306 272.09012Q119.002045 271.23938 120.0848 270.9742Q121.15651 270.698 122.22822 271.06262Q123.29993 271.42722 124.21696 272.34424Q125.13398 273.26126 125.48753 274.36612Q125.84109 275.47098 125.53173 276.53165Q125.23342 277.58127 124.43793 278.37674Q123.57614 279.23853 122.493385 279.5037Q121.399574 279.7578 120.33891 279.40427Q119.27825 279.02863 118.47171 278.22208ZM119.3114 277.40448Q120.41625 278.50934 121.63159 278.55353Q122.85799 278.58667 123.752914 277.69174Q124.6589 276.78577 124.6147 275.5704Q124.559456 274.34402 123.377266 273.16183Q122.63702 272.42157 121.83047 272.12326Q121.03497 271.8139 120.25053 272.00174Q119.45503 272.17853 118.85841 272.77515Q118.007675 273.6259 117.974525 274.83017Q117.94138 276.03445 119.3114 277.40448ZM130.54778 272.06802L129.80751 272.8083L125.05664 268.0574Q125.034546 268.58774 124.85777 269.29486Q124.68099 269.97986 124.46002 270.4439L123.74187 269.72574Q124.06227 268.80872 124.117516 267.93588Q124.17276 267.04095 123.973885 266.44434L124.448975 265.96924L130.54778 272.06802Z" fill-rule="nonzero"/><path fill="#000000" d="M163.74779 282.33212L162.99649 281.5808L165.29459 279.2827L166.04588 280.03403L163.74779 282.33212ZM165.58185 278.22208Q164.06819 276.7084 164.024 275.05115Q163.97981 273.37177 165.26144 272.09012Q166.11218 271.23938 167.19493 270.9742Q168.26665 270.698 169.33835 271.06262Q170.41006 271.42722 171.32709 272.34424Q172.24413 273.26126 172.59767 274.36612Q172.95123 275.47098 172.64186 276.53165Q172.34355 277.58124 171.54807 278.37674Q170.68628 279.23853 169.60352 279.5037Q168.5097 279.7578 167.44905 279.40427Q166.3884 279.0286 165.58185 278.22208ZM166.42154 277.40448Q167.5264 278.50934 168.74173 278.55353Q169.96812 278.58667 170.86305 277.69174Q171.76903 276.78577 171.72484 275.5704Q171.6696 274.34402 170.4874 273.16183Q169.74715 272.42157 168.9406 272.12326Q168.14511 271.8139 167.36066 272.00174Q166.56517 272.1785 165.96855 272.77515Q165.11781 273.6259 165.08467 274.83017Q165.05151 276.03445 166.42154 277.40448ZM178.05565 270.23398L178.7738 270.95212L174.75214 274.9738Q174.48697 274.70862 174.32124 274.36612Q174.06712 273.80264 174.00084 273.07346Q173.9456 272.3332 174.06712 271.1731Q174.24391 269.36115 174.11133 268.54355Q173.98979 267.7149 173.56995 267.29504Q173.128 266.85312 172.50928 266.8752Q171.87952 266.88626 171.37129 267.3945Q170.82991 267.93588 170.82991 268.5767Q170.82991 269.2175 171.39339 269.80307L170.5537 270.4881Q169.76924 269.54895 169.83554 268.5988Q169.90182 267.62653 170.77466 266.75366Q171.64749 265.88083 172.64186 265.85873Q173.63623 265.83664 174.35439 266.5548Q174.719 266.9194 174.91786 267.42764Q175.11674 267.9138 175.16093 268.66507Q175.20512 269.3943 175.0836 270.86374Q174.97311 272.10117 174.98416 272.50998Q174.99521 272.89667 175.07254 273.21707L178.05565 270.23398Z" fill-rule="nonzero"/><path fill="#000000" d="M210.85791 282.33212L210.10661 281.58084L212.40471 279.28275L213.156 280.03403L210.85791 282.33212ZM212.69197 278.22208Q211.17833 276.70844 211.13412 275.05115Q211.08994 273.37177 212.37157 272.09012Q213.2223 271.23938 214.30505 270.9742Q215.37677 270.69803 216.44847 271.06262Q217.52019 271.42722 218.43721 272.34424Q219.35425 273.26126 219.7078 274.36612Q220.06136 275.47098 219.752 276.53165Q219.45369 277.58127 218.65819 278.37674Q217.7964 279.23853 216.71364 279.5037Q215.61984 279.7578 214.55917 279.40427Q213.49852 279.02863 212.69197 278.22208ZM213.53166 277.40448Q214.63652 278.50934 215.85185 278.55353Q217.07825 278.58667 217.97318 277.69174Q218.87915 276.78577 218.83496 275.57043Q218.77972 274.34402 217.59753 273.16183Q216.85727 272.4216 216.05074 272.12326Q215.25523 271.8139 214.4708 272.00174Q213.6753 272.17853 213.07867 272.77515Q212.22794 273.6259 212.1948 274.83017Q212.16164 276.03445 213.53166 277.40448ZM220.35966 273.27234L221.01152 272.4216Q221.76283 272.9298 222.35945 272.9077Q222.94502 272.87457 223.38696 272.43265Q223.9173 271.9023 223.9173 271.1731Q223.9173 270.4439 223.37592 269.90253Q222.86768 269.3943 222.19373 269.40533Q221.51976 269.3943 221.00047 269.91357Q220.79056 270.12347 220.55853 270.5323L219.98401 269.78098Q220.0724 269.7147 220.1166 269.6705Q220.59167 269.1954 220.72426 268.5767Q220.85684 267.93588 220.33757 267.4166Q219.92877 267.0078 219.38739 267.01886Q218.83496 267.01886 218.39302 267.4608Q217.96213 267.8917 217.94003 268.46622Q217.92899 269.0297 218.39302 269.6484L217.50914 270.26712Q216.90147 269.3943 216.9788 268.49936Q217.0451 267.59338 217.76326 266.8752Q218.26044 266.37802 218.90126 266.17917Q219.53102 265.96924 220.1166 266.11285Q220.70216 266.2565 221.12201 266.67633Q221.50871 267.06305 221.63025 267.60443Q221.74074 268.13477 221.51976 268.73138Q222.17163 268.32257 222.86768 268.42203Q223.55269 268.5104 224.1493 269.10703Q224.94481 269.90253 224.91167 271.04053Q224.88957 272.16748 224.00568 273.05136Q223.21019 273.84686 222.20477 273.9021Q221.18831 273.9463 220.35966 273.27234Z" fill-rule="nonzero"/><path fill="#000000" d="M248.77567 291.5245L248.02437 290.77322L250.32246 288.47513L251.07376 289.2264L248.77567 291.5245ZM250.60973 287.41446Q249.09607 285.90082 249.05188 284.24353Q249.00768 282.56415 250.2893 281.2825Q251.14005 280.43176 252.22281 280.16663Q253.29453 279.8904 254.36623 280.255Q255.43794 280.6196 256.35495 281.53662Q257.272 282.45367 257.62555 283.5585Q257.9791 284.66336 257.66974 285.72403Q257.37143 286.77365 256.57593 287.56912Q255.71414 288.4309 254.6314 288.69608Q253.53758 288.9502 252.47693 288.59665Q251.41626 288.221 250.60973 287.41446ZM251.44942 286.59686Q252.55426 287.70172 253.7696 287.7459Q254.99599 287.77905 255.89093 286.88412Q256.7969 285.97815 256.75272 284.76282Q256.69748 283.5364 255.51527 282.35422Q254.77502 281.61398 253.96848 281.31567Q253.17299 281.0063 252.38853 281.19412Q251.59305 281.3709 250.99641 281.96753Q250.14568 282.81827 250.11253 284.02255Q250.07939 285.22684 251.44942 286.59686ZM260.26614 283.68005L256.44336 279.85724L255.78044 280.52017L255.20592 279.94565L255.86884 279.2827L255.39374 278.80765Q254.9518 278.3657 254.81921 278.07843Q254.6314 277.66965 254.71977 277.2277Q254.81921 276.77472 255.30536 276.28857Q255.62576 275.96817 256.07874 275.66986L256.60907 276.42114Q256.3439 276.62003 256.134 276.82996Q255.79149 277.17245 255.79149 277.45972Q255.80254 277.73593 256.2003 278.13367L256.60907 278.54248L257.47086 277.6807L258.04538 278.25522L257.1836 279.117L261.0064 282.9398L260.26614 283.68005ZM264.54193 278.3215Q264.47565 279.0949 264.23257 279.62524Q264.00055 280.1445 263.55862 280.58646Q262.8294 281.31567 262.08917 281.34882Q261.3489 281.38196 260.79648 280.82953Q260.47607 280.50912 260.35452 280.1003Q260.22195 279.68048 260.31033 279.2827Q260.3877 278.87393 260.60864 278.4983Q260.7523 278.22208 261.15002 277.71384Q261.94553 276.71945 262.22174 276.13388Q262.06705 275.97922 262.0339 275.94608Q261.5699 275.48203 261.17212 275.50412Q260.64178 275.5483 260.0783 276.1118Q259.55905 276.63107 259.49274 277.07303Q259.4154 277.5039 259.7579 278.08948L258.92926 278.71924Q258.56467 278.15576 258.50943 277.6365Q258.4542 277.11722 258.7304 276.53165Q259.00662 275.94608 259.5701 275.3826Q260.13358 274.81912 260.6197 274.59814Q261.10583 274.37717 261.47043 274.4103Q261.83505 274.44345 262.2107 274.68652Q262.43167 274.84122 262.92883 275.3384L263.92322 276.33276Q264.9618 277.37134 265.2822 277.60336Q265.61365 277.8243 266.01138 277.9348L265.22696 278.71924Q264.88443 278.59772 264.54193 278.3215ZM262.8073 276.71945Q262.56424 277.29398 261.87924 278.22208Q261.48148 278.7524 261.38205 279.02863Q261.27158 279.29376 261.31577 279.55893Q261.371 279.81305 261.5699 280.01193Q261.8682 280.31024 262.28802 280.28815Q262.71893 280.255 263.1498 279.8241Q263.58072 279.39322 263.72433 278.87393Q263.87903 278.3436 263.70224 277.85745Q263.56967 277.4818 263.08353 276.99567L262.8073 276.71945ZM265.54736 275.7693L266.16608 274.9296Q266.67432 275.30527 267.18253 275.26105Q267.7018 275.2058 268.2211 274.68652Q268.72934 274.1783 268.77353 273.73636Q268.81772 273.2723 268.53046 272.98505Q268.27634 272.73093 267.91174 272.8083Q267.65762 272.86353 266.89526 273.31653Q265.86777 273.9242 265.40372 274.10095Q264.9397 274.25565 264.5088 274.1562Q264.07788 274.05676 263.74643 273.7253Q263.45917 273.43805 263.33765 273.05136Q263.2161 272.66464 263.2824 272.2669Q263.33765 271.9686 263.54758 271.58188Q263.75748 271.1952 264.11105 270.84164Q264.61926 270.3334 265.16064 270.10138Q265.70203 269.84726 266.14398 269.91357Q266.5859 269.97986 267.07205 270.3334L266.4423 271.16205Q266.06662 270.8748 265.63574 270.93002Q265.20483 270.96317 264.7629 271.40512Q264.25467 271.91336 264.21048 272.3111Q264.15524 272.69778 264.38727 272.9298Q264.53088 273.07346 264.72977 273.09555Q264.95074 273.11765 265.21588 273.00714Q265.37057 272.94086 266.06662 272.53207Q267.0831 271.95755 267.52505 271.78076Q267.96698 271.604 268.3979 271.68134Q268.82877 271.75867 269.21545 272.14536Q269.59113 272.52103 269.7016 273.07346Q269.8121 273.6038 269.59113 274.2004Q269.3591 274.78598 268.8398 275.30527Q267.97803 276.16705 267.17148 276.26648Q266.36496 276.3438 265.54736 275.7693ZM273.0714 269.54895L273.83377 270.09033Q273.57965 270.47705 273.33658 270.7201Q272.92776 271.1289 272.58527 271.22833Q272.23172 271.31674 271.92236 271.20624Q271.62405 271.08472 270.9501 270.41074L268.41998 267.88065L267.8786 268.422L267.30408 267.84747L267.84546 267.30612L266.75165 266.2123L267.04996 265.03012L268.5857 266.56586L269.337 265.81454L269.91153 266.38907L269.16022 267.14038L271.73453 269.7147Q272.05493 270.0351 272.17648 270.09033Q272.30905 270.13452 272.4527 270.10138Q272.5963 270.06824 272.76205 269.90253Q272.89462 269.76993 273.0714 269.54895Z" fill-rule="nonzero"/><path fill="#000000" d="M273.2584 314.15192L272.50708 313.40063L274.80518 311.10254L275.5565 311.85382L273.2584 314.15192ZM275.09244 310.04187Q273.5788 308.52823 273.5346 306.87094Q273.4904 305.19156 274.77203 303.9099Q275.62277 303.0592 276.70554 302.79404Q277.77722 302.51782 278.84894 302.88242Q279.92065 303.247 280.83768 304.16403Q281.7547 305.0811 282.10828 306.1859Q282.46182 307.29077 282.15247 308.35144Q281.85416 309.40106 281.05865 310.19653Q280.19687 311.05835 279.1141 311.3235Q278.0203 311.5776 276.95966 311.22406Q275.899 310.84842 275.09244 310.04187ZM275.93213 309.22427Q277.037 310.32913 278.25232 310.37332Q279.4787 310.40646 280.37366 309.51154Q281.27963 308.60556 281.23544 307.39023Q281.18018 306.16382 279.998 304.98163Q279.25775 304.2414 278.4512 303.94308Q277.6557 303.63373 276.87125 303.82153Q276.07578 303.99832 275.47913 304.59494Q274.6284 305.44568 274.59525 306.64996Q274.5621 307.85425 275.93213 309.22427ZM282.76013 305.09213L283.412 304.2414Q284.1633 304.7496 284.75992 304.7275Q285.3455 304.69437 285.78745 304.25244Q286.31775 303.7221 286.31775 302.9929Q286.31775 302.2637 285.77637 301.72232Q285.26816 301.21408 284.59418 301.22513Q283.92023 301.21408 283.40094 301.73337Q283.191 301.9433 282.959 302.35208L282.3845 301.60077Q282.47287 301.5345 282.51706 301.4903Q282.99216 301.0152 283.12473 300.39648Q283.25732 299.75568 282.73804 299.2364Q282.32922 298.8276 281.78787 298.83865Q281.23544 298.83865 280.7935 299.28058Q280.3626 299.7115 280.34048 300.286Q280.32944 300.8495 280.7935 301.4682L279.9096 302.0869Q279.30194 301.21408 279.37927 300.31915Q279.44556 299.41318 280.16373 298.695Q280.66092 298.1978 281.30173 297.99896Q281.9315 297.78903 282.51706 297.93268Q283.10263 298.0763 283.5225 298.49615Q283.90918 298.88284 284.0307 299.42422Q284.1412 299.95456 283.92023 300.55118Q284.57208 300.14236 285.26816 300.24182Q285.95316 300.3302 286.54977 300.92682Q287.34528 301.72232 287.31213 302.86032Q287.29004 303.98727 286.40616 304.87115Q285.61066 305.66666 284.60522 305.7219Q283.58878 305.76608 282.76013 305.09213ZM292.4497 298.60663L286.70447 295.55722L287.47784 294.78384L290.7151 296.62894L291.91937 297.3029Q291.87518 297.2145 291.24542 296.1649L289.36716 292.89453L290.12952 292.13217L293.34464 294.02148L294.4053 294.6402L293.8087 293.53534L292.0188 290.2429L292.74802 289.51367L295.76425 295.29205L294.99088 296.06546L291.6542 294.1209L290.73718 293.55743L293.23416 297.82217L292.4497 298.60663ZM292.7922 287.8343L291.93042 286.9725L292.68173 286.22122L293.54352 287.083L292.7922 287.8343ZM298.0071 293.0492L293.6098 288.6519L294.3611 287.90057L298.75842 292.2979L298.0071 293.0492ZM301.08966 288.64084L301.85202 289.18222Q301.5979 289.5689 301.35483 289.81198Q300.94604 290.2208 300.60352 290.32022Q300.24997 290.4086 299.9406 290.29813Q299.6423 290.17657 298.96835 289.50262L296.43823 286.9725L295.89685 287.5139L295.32233 286.93936L295.8637 286.39798L294.7699 285.30417L295.0682 284.12198L296.60394 285.65775L297.35526 284.90643L297.92978 285.48096L297.17847 286.23227L299.75278 288.80658Q300.0732 289.12698 300.19473 289.18222Q300.3273 289.2264 300.47095 289.19327Q300.61456 289.16013 300.7803 288.9944Q300.91287 288.86182 301.08966 288.64084ZM302.24976 288.80658L296.17307 282.72986L296.9133 281.98962L299.08987 284.16617Q299.01254 283.05026 299.80804 282.2548Q300.3052 281.7576 300.85764 281.6029Q301.41006 281.42615 301.90726 281.61395Q302.3934 281.79074 303.04526 282.4426L305.8295 285.22684L305.08923 285.9671L302.305 283.18286Q301.74152 282.6194 301.24435 282.60834Q300.74716 282.5973 300.3052 283.0392Q299.97375 283.3707 299.85223 283.84576Q299.73068 284.29877 299.89642 284.72964Q300.06213 285.13846 300.58142 285.65775L302.99002 288.0663L302.24976 288.80658ZM309.4092 281.64713L303.33252 275.5704L305.6306 273.2723Q306.22723 272.6757 306.60287 272.41052Q307.1332 272.03488 307.64145 271.9465Q308.16074 271.84705 308.71317 272.04593Q309.27664 272.23376 309.7296 272.68674Q310.50302 273.46014 310.5472 274.49872Q310.5914 275.51517 309.29874 276.80786L307.74088 278.3657L310.21576 280.84058L309.4092 281.64713ZM307.03378 277.6586L308.60266 276.0897Q309.38712 275.30524 309.42026 274.69757Q309.4534 274.0678 308.9231 273.53748Q308.54742 273.16183 308.0834 273.09555Q307.61935 273.00714 307.22162 273.22812Q306.95645 273.3828 306.41507 273.9242L304.8572 275.48203L307.03378 277.6586ZM312.9779 265.92505L313.78445 265.1185L317.29788 268.63193Q318.2149 269.54895 318.54636 270.30026Q318.86676 271.0405 318.6679 271.9244Q318.45798 272.79724 317.58514 273.67007Q316.7344 274.5208 315.8947 274.78598Q315.05502 275.02902 314.27057 274.70862Q313.47507 274.37717 312.51385 273.41595L309.00043 269.9025L309.80698 269.09598L313.30936 272.59836Q314.10486 273.39386 314.6241 273.62585Q315.15445 273.84683 315.71793 273.70322Q316.2814 273.53748 316.8007 273.0182Q317.68457 272.1343 317.66248 271.36093Q317.62933 270.57648 316.4803 269.42743L312.9779 265.92505Z" fill-rule="nonzero"/><path fill="#000000" d="M331.68222 302.83823L330.93094 302.0869L333.22903 299.78882L333.98032 300.54013L331.68222 302.83823ZM333.5163 298.72815Q332.00262 297.2145 331.95844 295.55722Q331.91425 293.87784 333.1959 292.59622Q334.0466 291.74548 335.12936 291.48032Q336.20108 291.2041 337.2728 291.5687Q338.3445 291.9333 339.26154 292.85034Q340.17856 293.76736 340.5321 294.87222Q340.88565 295.97708 340.5763 297.03772Q340.27798 298.08734 339.4825 298.88284Q338.62073 299.74463 337.53796 300.0098Q336.44415 300.26392 335.38348 299.91034Q334.3228 299.5347 333.5163 298.72815ZM334.356 297.91055Q335.46082 299.0154 336.67618 299.0596Q337.90256 299.09274 338.7975 298.1978Q339.70346 297.29184 339.65927 296.0765Q339.60403 294.85013 338.42184 293.66794Q337.68158 292.92767 336.87503 292.62936Q336.07956 292.32 335.2951 292.5078Q334.4996 292.6846 333.90298 293.28122Q333.05225 294.13196 333.0191 295.33624Q332.98596 296.54056 334.356 297.91055ZM341.18396 293.7784L341.83585 292.92767Q342.58713 293.4359 343.18375 293.41382Q343.76935 293.38068 344.21127 292.93872Q344.7416 292.4084 344.7416 291.6792Q344.7416 290.94998 344.20023 290.4086Q343.692 289.90036 343.01804 289.9114Q342.3441 289.90036 341.8248 290.41965Q341.61487 290.62958 341.38284 291.03836L340.80832 290.28708Q340.8967 290.22076 340.94092 290.17657Q341.416 289.7015 341.54858 289.08276Q341.68115 288.44196 341.16187 287.92267Q340.75308 287.5139 340.2117 287.52493Q339.65927 287.52493 339.21735 287.9669Q338.78644 288.39777 338.76434 288.9723Q338.7533 289.53577 339.21735 290.15448L338.33347 290.7732Q337.72577 289.90036 337.80313 289.00543Q337.86942 288.09946 338.58755 287.38132Q339.08475 286.88412 339.72556 286.68524Q340.35535 286.4753 340.94092 286.61896Q341.5265 286.76257 341.94632 287.18243Q342.33304 287.56912 342.45456 288.1105Q342.56503 288.64084 342.3441 289.23746Q342.99594 288.82867 343.692 288.9281Q344.377 289.01648 344.97363 289.6131Q345.76913 290.4086 345.73596 291.5466Q345.71387 292.67355 344.83 293.55743Q344.0345 294.35294 343.02908 294.40817Q342.0126 294.45236 341.18396 293.7784ZM350.752 287.41446L350.05597 288.1105L343.97925 282.0338L344.73056 281.2825L346.89606 283.44803Q346.78558 282.38736 347.5148 281.65814Q347.92358 281.24936 348.44287 281.06152Q348.96216 280.85162 349.4925 280.9179Q350.03384 280.97314 350.58627 281.2604Q351.1387 281.54767 351.6138 282.02277Q352.74075 283.14972 352.796 284.3319Q352.85123 285.5141 352.07785 286.2875Q351.2934 287.07193 350.1996 286.86203L350.752 287.41446ZM348.50916 285.1937Q349.2936 285.97815 349.86813 286.11072Q350.7962 286.3317 351.39282 285.73508Q351.87897 285.24893 351.81268 284.47552Q351.75742 283.6911 350.9067 282.84036Q350.0449 281.97858 349.2936 281.91226Q348.5423 281.84598 348.05618 282.33212Q347.57004 282.81827 347.63632 283.61374Q347.7026 284.38715 348.50916 285.1937ZM357.90042 280.26605L357.24857 279.61417Q357.4806 280.88477 356.59668 281.76865Q356.21 282.15533 355.72385 282.35422Q355.23773 282.531 354.851 282.47574Q354.45328 282.40945 354.05554 282.1443Q353.80142 281.97858 353.31528 281.49243L350.59732 278.77448L351.34863 278.0232L353.79037 280.4649Q354.3649 281.03943 354.61902 281.20517Q354.97256 281.42615 355.3703 281.38196Q355.76807 281.31564 356.11057 280.97314Q356.44202 280.6417 356.56354 280.1887Q356.6851 279.71362 356.5083 279.29376Q356.3426 278.86288 355.7791 278.2994L353.42575 275.94604L354.16602 275.2058L358.56332 279.60312L357.90042 280.26605ZM358.35342 277.1835L358.97214 276.3438Q359.48038 276.71945 359.9886 276.67526Q360.50787 276.62003 361.02716 276.10074Q361.5354 275.5925 361.5796 275.15057Q361.62378 274.68652 361.33652 274.39926Q361.0824 274.14514 360.7178 274.22247Q360.46368 274.27774 359.70132 274.7307Q358.67383 275.33838 358.20978 275.51517Q357.74573 275.66986 357.31485 275.5704Q356.88394 275.47098 356.5525 275.13953Q356.26523 274.85226 356.1437 274.46555Q356.02216 274.07886 356.08847 273.68112Q356.1437 273.3828 356.35364 272.9961Q356.56354 272.6094 356.9171 272.25586Q357.42532 271.74762 357.9667 271.5156Q358.5081 271.26147 358.95004 271.32776Q359.39197 271.39407 359.8781 271.74762L359.24835 272.57626Q358.87268 272.289 358.4418 272.34424Q358.0109 272.37738 357.56897 272.81934Q357.06073 273.32755 357.01654 273.7253Q356.9613 274.112 357.19333 274.34402Q357.33694 274.48764 357.53583 274.50974Q357.75677 274.53186 358.02194 274.42136Q358.17664 274.35507 358.87268 273.94626Q359.88916 273.37173 360.3311 273.19498Q360.77304 273.0182 361.20395 273.09552Q361.63483 273.17288 362.0215 273.55957Q362.3972 273.9352 362.50766 274.48764Q362.61816 275.01797 362.3972 275.6146Q362.16516 276.20016 361.64587 276.71945Q360.7841 277.58124 359.97754 277.6807Q359.171 277.75803 358.35342 277.1835ZM366.57352 274.9738L365.7891 274.36612Q366.09845 274.18933 366.28625 274.00153Q366.52933 273.75845 366.58456 273.52643Q366.66193 273.2944 366.61774 273.05133Q366.56247 272.86353 366.28625 272.25586Q366.24207 272.18954 366.17578 272.0128L360.08804 269.28378L360.89456 268.47723L364.35278 270.10138Q365.0157 270.41074 365.70068 270.80847Q365.314 270.15662 365.00464 269.4937L363.3805 265.99133L364.12076 265.25107L366.9271 271.39407Q367.36902 272.38843 367.50162 272.80826Q367.67838 273.3828 367.57895 273.8137Q367.50162 274.2446 367.14804 274.59814Q366.93814 274.80804 366.57352 274.9738Z" fill-rule="nonzero"/><path fill="#000000" d="M333.5375 348.09308L332.7862 347.34177L335.0843 345.04367L335.8356 345.79498L333.5375 348.09308ZM335.37155 343.983Q333.8579 342.46936 333.81372 340.81207Q333.76953 339.1327 335.05115 337.85107Q335.9019 337.00034 336.98465 336.73517Q338.05637 336.45895 339.12808 336.82355Q340.19977 337.18814 341.11682 338.1052Q342.03384 339.02222 342.3874 340.12708Q342.74094 341.23193 342.43158 342.29257Q342.13327 343.3422 341.33777 344.1377Q340.47598 344.99948 339.39325 345.26465Q338.29944 345.51877 337.23877 345.1652Q336.1781 344.78955 335.37155 343.983ZM336.21124 343.1654Q337.3161 344.27026 338.53146 344.31445Q339.75784 344.3476 340.65277 343.45267Q341.55875 342.5467 341.51456 341.33136Q341.45932 340.10498 340.27713 338.92276Q339.53687 338.18253 338.73032 337.88422Q337.9348 337.57486 337.1504 337.76266Q336.3549 337.93945 335.75827 338.53607Q334.90753 339.3868 334.8744 340.5911Q334.84125 341.7954 336.21124 343.1654ZM343.03925 339.03326L343.69113 338.18253Q344.4424 338.69077 345.03903 338.66867Q345.6246 338.6355 346.06656 338.19357Q346.5969 337.66324 346.5969 336.93405Q346.5969 336.20483 346.0555 335.66345Q345.54727 335.1552 344.87332 335.16626Q344.19934 335.1552 343.68008 335.6745Q343.47015 335.88443 343.23813 336.2932L342.6636 335.54193Q342.75198 335.47562 342.79617 335.43143Q343.27127 334.95636 343.40387 334.33762Q343.53644 333.6968 343.01715 333.17752Q342.60837 332.76874 342.067 332.7798Q341.51456 332.7798 341.0726 333.22174Q340.64172 333.65262 340.61963 334.22714Q340.60858 334.79062 341.0726 335.40933L340.18872 336.02805Q339.58105 335.1552 339.6584 334.26028Q339.7247 333.3543 340.44284 332.63614Q340.94003 332.13898 341.58084 331.9401Q342.2106 331.73016 342.79617 331.8738Q343.38177 332.01743 343.8016 332.4373Q344.1883 332.82397 344.30984 333.36536Q344.42032 333.8957 344.19934 334.4923Q344.85123 334.08353 345.54727 334.18295Q346.23227 334.27133 346.82892 334.86795Q347.6244 335.66345 347.59125 336.80145Q347.56915 337.9284 346.68527 338.8123Q345.88977 339.6078 344.88437 339.66302Q343.8679 339.7072 343.03925 339.03326ZM352.72882 332.54776L346.98358 329.49835L347.757 328.72498L350.9942 330.57007L352.1985 331.24405Q352.1543 331.15564 351.52454 330.10605L349.64627 326.83566L350.40863 326.07333L353.62375 327.96262L354.68442 328.58133L354.0878 327.47647L352.29794 324.18402L353.02713 323.4548L356.0434 329.23322L355.27 330.0066L351.93332 328.06204L351.0163 327.49857L353.51328 331.7633L352.72882 332.54776ZM353.07132 321.77542L352.20953 320.91364L352.96085 320.16235L353.82263 321.02414L353.07132 321.77542ZM358.28625 326.99036L353.88892 322.59302L354.64023 321.84174L359.03754 326.23904L358.28625 326.99036ZM361.36877 322.58197L362.13113 323.12335Q361.877 323.51007 361.63394 323.7531Q361.22516 324.16193 360.88266 324.26135Q360.5291 324.34973 360.21973 324.23926Q359.92142 324.11774 359.24747 323.44376L356.71735 320.91364L356.17596 321.45502L355.60144 320.8805L356.14282 320.3391L355.049 319.24533L355.34732 318.0631L356.8831 319.59888L357.63437 318.84756L358.2089 319.4221L357.4576 320.1734L360.03192 322.7477Q360.35233 323.0681 360.47385 323.12335Q360.60645 323.16754 360.75006 323.1344Q360.8937 323.10126 361.05942 322.93555Q361.19202 322.80295 361.36877 322.58197ZM362.5289 322.7477L356.45218 316.67102L357.19244 315.93076L359.369 318.10733Q359.29166 316.99142 360.08716 316.19592Q360.58435 315.69873 361.13678 315.54407Q361.6892 315.36728 362.18637 315.5551Q362.67252 315.73187 363.32437 316.38376L366.1086 319.16797L365.36835 319.90823L362.58414 317.124Q362.02066 316.56052 361.52347 316.54947Q361.02628 316.53842 360.58435 316.98038Q360.2529 317.31183 360.13135 317.78693Q360.00983 318.2399 360.17554 318.6708Q360.34128 319.0796 360.86057 319.59888L363.26913 322.00745L362.5289 322.7477ZM369.68835 315.58826L363.61163 309.51157L365.90973 307.21344Q366.50635 306.61682 366.88202 306.35165Q367.41235 305.976 367.92056 305.88763Q368.43985 305.7882 368.99228 305.98706Q369.55576 306.1749 370.00876 306.62787Q370.78214 307.40128 370.82635 308.43985Q370.87054 309.4563 369.57785 310.749L368.02002 312.30682L370.49487 314.7817L369.68835 315.58826ZM367.3129 311.59973L368.8818 310.03082Q369.66626 309.2464 369.6994 308.6387Q369.73254 308.00894 369.2022 307.4786Q368.82657 307.10297 368.36252 307.03668Q367.89847 306.9483 367.50073 307.16925Q367.23557 307.32394 366.69418 307.86533L365.13635 309.42316L367.3129 311.59973ZM373.25702 299.86618L374.06357 299.05963L377.577 302.57306Q378.49402 303.49008 378.8255 304.2414Q379.1459 304.98166 378.94702 305.86554Q378.7371 306.73837 377.86426 307.6112Q377.01352 308.46194 376.17383 308.7271Q375.33414 308.97018 374.5497 308.64978Q373.7542 308.3183 372.79297 307.3571L369.27954 303.84366L370.0861 303.0371L373.58847 306.5395Q374.38397 307.335 374.90326 307.56702Q375.4336 307.788 375.99707 307.64435Q376.56055 307.4786 377.0798 306.95935Q377.9637 306.07547 377.9416 305.30206Q377.90845 304.5176 376.7594 303.36856L373.25702 299.86618ZM383.7421 301.53452L379.34476 297.13718L380.0077 296.47427L380.6264 297.093Q380.39438 295.8887 381.3114 294.97168Q381.70917 294.5739 382.18423 294.3861Q382.67038 294.18723 383.0681 294.2535Q383.46588 294.3198 383.84152 294.56287Q384.0846 294.73965 384.60388 295.25894L387.31076 297.96582L386.57053 298.7061L383.89676 296.03232Q383.43274 295.5683 383.12338 295.4357Q382.81403 295.30313 382.46045 295.3915Q382.09586 295.46884 381.79755 295.76715Q381.32245 296.24225 381.27826 296.90515Q381.23407 297.546 382.07376 298.38568L384.48233 300.79425L383.7421 301.53452ZM386.21695 294.66232Q384.99057 293.4359 385.07895 292.1764Q385.1563 291.12677 385.9739 290.30917Q386.87988 289.4032 388.05103 289.4253Q389.22217 289.4253 390.2718 290.4749Q391.12253 291.32565 391.35452 292.0659Q391.58655 292.80615 391.36557 293.57956Q391.14462 294.33084 390.5701 294.90536Q389.65305 295.82242 388.49295 295.81137Q387.33286 295.7782 386.21695 294.66232ZM386.9793 293.89996Q387.819 294.73965 388.60345 294.7949Q389.39896 294.83908 389.9514 294.28665Q390.51483 293.72318 390.4596 292.93875Q390.40436 292.1543 389.54257 291.2925Q388.72498 290.4749 387.92947 290.43073Q387.14505 290.3755 386.59262 290.9279Q386.0402 291.48032 386.08438 292.27582Q386.12857 293.04922 386.9793 293.89996ZM395.75186 289.52475L391.35452 285.1274L392.0285 284.45346L392.6914 285.11636Q392.48148 284.39822 392.5478 284.04465Q392.61407 283.669 392.87924 283.40384Q393.25488 283.0282 393.8736 282.8735L394.31555 283.8237Q393.8736 283.93417 393.60843 284.19934Q393.3543 284.45346 393.31012 284.807Q393.26593 285.13846 393.45377 285.48096Q393.71893 286.0113 394.18295 286.47534L396.4921 288.7845L395.75186 289.52475ZM400.1823 282.26584L401.0441 281.58084Q401.5413 282.43158 401.41977 283.3044Q401.29822 284.17725 400.5359 284.9396Q399.57465 285.90082 398.4035 285.87872Q397.2434 285.84558 396.1717 284.77386Q395.06683 283.669 395.0337 282.48682Q394.9895 281.29358 395.89548 280.3876Q396.77936 279.50372 397.9284 279.5479Q399.08853 279.58105 400.1823 280.67487Q400.24863 280.74115 400.3812 280.87372L397.0998 284.15515Q397.87317 284.84015 398.62448 284.86224Q399.36472 284.8733 399.91714 284.32086Q400.32596 283.91208 400.4033 283.4149Q400.48062 282.8956 400.1823 282.26584ZM396.53632 283.5033L398.98907 281.0505Q398.3814 280.53122 397.87317 280.48703Q397.07767 280.42075 396.5142 280.98422Q395.99493 281.5035 395.9839 282.19955Q395.9839 282.88455 396.53632 283.5033ZM401.92798 280.71906L402.54672 279.87936Q403.05493 280.255 403.56317 280.21082Q404.08246 280.15558 404.60175 279.6363Q405.11 279.12805 405.15417 278.68613Q405.19836 278.22208 404.9111 277.9348Q404.65698 277.6807 404.2924 277.75803Q404.03827 277.8133 403.2759 278.26627Q402.2484 278.87393 401.78436 279.05072Q401.3203 279.20538 400.88943 279.10596Q400.45853 279.00653 400.12708 278.67508Q399.8398 278.38782 399.7183 278.0011Q399.59674 277.6144 399.66306 277.21664Q399.7183 276.91833 399.9282 276.53165Q400.13812 276.14496 400.49167 275.7914Q400.9999 275.28317 401.5413 275.05115Q402.08267 274.79703 402.52463 274.8633Q402.96655 274.9296 403.4527 275.28317L402.82294 276.11182Q402.44727 275.82455 402.0164 275.8798Q401.58548 275.91293 401.14355 276.35486Q400.6353 276.8631 400.59113 277.26086Q400.5359 277.64755 400.76788 277.87958Q400.91153 278.0232 401.1104 278.0453Q401.33136 278.06738 401.59653 277.9569Q401.75122 277.89062 402.44727 277.4818Q403.46375 276.9073 403.90567 276.73053Q404.34763 276.55374 404.7785 276.63107Q405.2094 276.70844 405.5961 277.09512Q405.97177 277.47076 406.08224 278.0232Q406.19272 278.55353 405.97177 279.15015Q405.73975 279.73572 405.22046 280.255Q404.35867 281.1168 403.55212 281.21622Q402.74557 281.29358 401.92798 280.71906ZM410.08182 272.36636L410.9436 271.68134Q411.4408 272.53207 411.31924 273.4049Q411.19772 274.27774 410.43536 275.0401Q409.47415 276.0013 408.303 275.97922Q407.1429 275.94608 406.0712 274.87436Q404.96634 273.7695 404.9332 272.5873Q404.889 271.39407 405.79498 270.4881Q406.67886 269.60422 407.8279 269.6484Q408.988 269.68155 410.08182 270.77536Q410.1481 270.84164 410.2807 270.97424L406.99927 274.25565Q407.77267 274.94067 408.524 274.96277Q409.26422 274.97382 409.81665 274.4214Q410.22543 274.01257 410.3028 273.5154Q410.38013 272.99612 410.08182 272.36636ZM406.4358 273.6038L408.88858 271.151Q408.2809 270.6317 407.77267 270.58752Q406.97717 270.52124 406.4137 271.08472Q405.8944 271.604 405.88336 272.30005Q405.88336 272.98508 406.4358 273.6038ZM414.4018 269.54898L415.16415 270.09036Q414.91003 270.47705 414.66696 270.72012Q414.25818 271.1289 413.91565 271.22836Q413.5621 271.31674 413.25275 271.20624Q412.95444 271.08472 412.2805 270.41077L409.75037 267.88065L409.20898 268.42203L408.63446 267.8475L409.17584 267.30612L408.08203 266.2123L408.38034 265.03012L409.91608 266.56586L410.6674 265.81458L411.2419 266.3891L410.4906 267.14038L413.0649 269.7147Q413.38535 270.0351 413.50687 270.09036Q413.63943 270.13455 413.78308 270.1014Q413.9267 270.06824 414.09244 269.90253Q414.225 269.76993 414.4018 269.54898Z" fill-rule="nonzero"/><path fill="#000000" d="M391.96136 336.77936L391.21005 336.02805L393.50815 333.72995L394.25946 334.48126L391.96136 336.77936ZM393.7954 332.66928Q392.28177 331.15564 392.23758 329.49835Q392.19336 327.81897 393.475 326.53735Q394.32574 325.6866 395.4085 325.42145Q396.4802 325.14523 397.5519 325.50983Q398.62363 325.87445 399.54065 326.79147Q400.45767 327.7085 400.81125 328.81335Q401.1648 329.9182 400.85544 330.97888Q400.55713 332.02847 399.76163 332.82397Q398.89984 333.68576 397.81708 333.95093Q396.72327 334.20505 395.66263 333.8515Q394.60196 333.47583 393.7954 332.66928ZM394.6351 331.8517Q395.73996 332.95654 396.9553 333.00076Q398.18167 333.0339 399.07663 332.13898Q399.9826 331.23297 399.93842 330.01764Q399.88315 328.79126 398.70096 327.60907Q397.96072 326.8688 397.15417 326.5705Q396.35867 326.26114 395.57422 326.44897Q394.77872 326.62573 394.1821 327.22235Q393.33136 328.0731 393.29822 329.2774Q393.26508 330.4817 394.6351 331.8517ZM401.4631 327.71954L402.11496 326.8688Q402.86627 327.37704 403.4629 327.35495Q404.04846 327.3218 404.4904 326.87985Q405.02072 326.34952 405.02072 325.62033Q405.02072 324.8911 404.47934 324.34973Q403.97113 323.84152 403.29715 323.85257Q402.6232 323.84152 402.1039 324.36078Q401.89398 324.5707 401.662 324.97952L401.08746 324.2282Q401.17584 324.16193 401.22003 324.11774Q401.69513 323.64264 401.8277 323.02393Q401.9603 322.3831 401.441 321.86383Q401.0322 321.45502 400.4908 321.46606Q399.93842 321.46606 399.49646 321.90802Q399.06555 322.3389 399.04346 322.91342Q399.0324 323.4769 399.49646 324.0956L398.61258 324.71436Q398.0049 323.84152 398.08224 322.94656Q398.14853 322.0406 398.8667 321.32245Q399.3639 320.82526 400.0047 320.62637Q400.63446 320.41647 401.22003 320.5601Q401.8056 320.70374 402.22546 321.12357Q402.61215 321.51025 402.73367 322.05164Q402.84418 322.58197 402.6232 323.1786Q403.27505 322.7698 403.97113 322.86923Q404.65613 322.9576 405.25275 323.55426Q406.04825 324.34973 406.0151 325.48773Q405.993 326.6147 405.10913 327.49857Q404.31363 328.29407 403.3082 328.3493Q402.29175 328.3935 401.4631 327.71954ZM411.15268 321.23404L405.40744 318.18466L406.18082 317.41125L409.41806 319.25638L410.62234 319.93033Q410.57816 319.84195 409.9484 318.79233L408.07013 315.52194L408.8325 314.7596L412.0476 316.6489L413.10828 317.26764L412.51166 316.16278L410.72177 312.8703L411.451 312.1411L414.46722 317.9195L413.69385 318.6929L410.35718 316.74835L409.44016 316.18488L411.93713 320.44962L411.15268 321.23404ZM411.49518 310.46173L410.6334 309.59995L411.3847 308.84863L412.2465 309.71042L411.49518 310.46173ZM416.71008 315.67664L412.31277 311.27933L413.06406 310.528L417.4614 314.92532L416.71008 315.67664ZM419.79263 311.26828L420.555 311.80963Q420.30087 312.19635 420.0578 312.43942Q419.64902 312.8482 419.3065 312.94763Q418.95294 313.03604 418.6436 312.92554Q418.34528 312.80402 417.67133 312.13007L415.1412 309.59995L414.59982 310.14133L414.0253 309.5668L414.56668 309.02542L413.47287 307.9316L413.77118 306.74942L415.30692 308.28516L416.05823 307.53384L416.63275 308.10837L415.88144 308.85968L418.45575 311.434Q418.77615 311.7544 418.8977 311.80963Q419.03027 311.85385 419.17392 311.82068Q419.31754 311.78754 419.48328 311.62183Q419.61584 311.48923 419.79263 311.26828ZM420.95273 311.434L414.87604 305.3573L415.61627 304.61703L417.79285 306.7936Q417.7155 305.6777 418.51102 304.8822Q419.00818 304.385 419.5606 304.23035Q420.11304 304.05356 420.61023 304.2414Q421.09637 304.41818 421.74823 305.07004L424.53247 307.85428L423.7922 308.5945L421.00797 305.81027Q420.4445 305.2468 419.94733 305.23575Q419.45013 305.2247 419.00818 305.66666Q418.67673 305.9981 418.5552 306.4732Q418.43365 306.92618 418.5994 307.3571Q418.7651 307.76587 419.2844 308.28516L421.693 310.69376L420.95273 311.434ZM428.11218 304.27454L422.0355 298.19785L424.3336 295.89975Q424.9302 295.30313 425.30585 295.03796Q425.83618 294.6623 426.34442 294.5739Q426.8637 294.4745 427.41614 294.67334Q427.9796 294.86118 428.4326 295.31418Q429.206 296.08755 429.25018 297.12613Q429.29437 298.1426 428.0017 299.43527L426.44385 300.99313L428.91873 303.468L428.11218 304.27454ZM425.73676 300.286L427.30563 298.71713Q428.0901 297.93268 428.12323 297.325Q428.15637 296.69525 427.62604 296.16492Q427.2504 295.78925 426.78635 295.72296Q426.32233 295.63458 425.92456 295.85556Q425.65942 296.01022 425.11804 296.5516L423.56018 298.10944L425.73676 300.286ZM431.68088 288.55246L432.4874 287.7459L436.00085 291.25937Q436.91788 292.1764 437.24933 292.92767Q437.56973 293.66794 437.37088 294.55182Q437.16095 295.42465 436.28812 296.2975Q435.43738 297.14822 434.5977 297.4134Q433.758 297.65646 432.97354 297.33606Q432.17804 297.0046 431.21683 296.04337L427.7034 292.52994L428.50995 291.7234L432.01233 295.22577Q432.80783 296.02127 433.3271 296.2533Q433.85742 296.47427 434.4209 296.33063Q434.98438 296.16492 435.50366 295.64563Q436.38754 294.76175 436.36545 293.98834Q436.3323 293.2039 435.18326 292.05484L431.68088 288.55246ZM442.14383 290.2429L436.06714 284.1662L436.81845 283.4149L442.89514 289.49158L442.14383 290.2429ZM445.87823 283.68005L446.74002 282.99506Q447.2372 283.8458 447.1157 284.71863Q446.99414 285.59146 446.2318 286.3538Q445.27057 287.31503 444.09943 287.29294Q442.93933 287.2598 441.8676 286.18808Q440.76276 285.08322 440.7296 283.90103Q440.68542 282.7078 441.5914 281.8018Q442.47528 280.9179 443.62433 280.9621Q444.78442 280.99527 445.87823 282.08905Q445.94455 282.15536 446.07712 282.28793L442.79572 285.56937Q443.5691 286.25436 444.3204 286.27646Q445.06064 286.2875 445.61307 285.73508Q446.02188 285.3263 446.0992 284.8291Q446.17654 284.3098 445.87823 283.68005ZM442.23224 284.91748L444.685 282.46472Q444.07733 281.94543 443.5691 281.90125Q442.7736 281.83496 442.2101 282.39844Q441.69086 282.9177 441.6798 283.61377Q441.6798 284.29877 442.23224 284.91748ZM451.56824 279.73572Q451.50195 280.50912 451.25888 281.03946Q451.02686 281.55875 450.58493 282.00067Q449.8557 282.7299 449.11548 282.76303Q448.3752 282.79617 447.82278 282.24374Q447.50238 281.92334 447.38086 281.51453Q447.24826 281.0947 447.33664 280.69696Q447.414 280.28815 447.63495 279.9125Q447.7786 279.6363 448.17633 279.12805Q448.97183 278.1337 449.24805 277.54813Q449.09338 277.39343 449.0602 277.3603Q448.5962 276.89624 448.19843 276.91833Q447.66812 276.96252 447.10464 277.526Q446.58536 278.0453 446.51907 278.48724Q446.4417 278.91812 446.7842 279.5037L445.9556 280.13348Q445.59097 279.57 445.53574 279.05072Q445.4805 278.53143 445.7567 277.94586Q446.03293 277.3603 446.5964 276.7968Q447.15988 276.23334 447.64603 276.01236Q448.13214 275.79138 448.49673 275.82452Q448.86136 275.8577 449.237 276.10074Q449.45798 276.25543 449.95517 276.75262L450.94952 277.74698Q451.9881 278.78555 452.3085 279.01758Q452.63995 279.23853 453.0377 279.34903L452.25327 280.13348Q451.91074 280.01193 451.56824 279.73572ZM449.83362 278.1337Q449.59055 278.70822 448.90555 279.6363Q448.5078 280.16663 448.40836 280.44284Q448.29788 280.708 448.34207 280.97318Q448.3973 281.22726 448.5962 281.42615Q448.8945 281.72446 449.31433 281.70236Q449.74524 281.66922 450.17612 281.2383Q450.60703 280.80743 450.75064 280.28815Q450.90533 279.7578 450.72855 279.2717Q450.59598 278.89603 450.10983 278.4099L449.83362 278.1337ZM455.4021 276.98465L449.33643 274.25565L450.12088 273.4712L453.70062 275.15057Q454.27515 275.43784 454.86072 275.75824Q454.61765 275.3163 454.3083 274.65338L452.6068 270.9853L453.36917 270.22293L456.09814 276.28857L455.4021 276.98465ZM459.31326 270.24503L460.17505 269.56003Q460.67224 270.41077 460.55072 271.2836Q460.42917 272.15643 459.66684 272.91876Q458.7056 273.88 457.53445 273.8579Q456.37436 273.82474 455.30264 272.75305Q454.19778 271.6482 454.16464 270.466Q454.12045 269.27277 455.02643 268.36676Q455.9103 267.48288 457.05936 267.52707Q458.21948 267.56024 459.31326 268.65402Q459.37958 268.72034 459.51215 268.8529L456.23074 272.13434Q457.00412 272.81934 457.75543 272.84143Q458.49567 272.85248 459.0481 272.30005Q459.4569 271.89127 459.53424 271.39407Q459.61157 270.8748 459.31326 270.24503ZM455.66727 271.48245L458.12003 269.0297Q457.51236 268.5104 457.00412 268.46622Q456.20862 268.39993 455.64517 268.96338Q455.1259 269.48267 455.11484 270.17874Q455.11484 270.86374 455.66727 271.48245Z" fill-rule="nonzero"/><path fill="#000000" d="M424.92935 350.92148L424.17804 350.1702L426.47614 347.8721L427.22745 348.62338L424.92935 350.92148ZM426.7634 346.81143Q425.24976 345.2978 425.20557 343.6405Q425.16138 341.96112 426.443 340.67947Q427.29373 339.82874 428.3765 339.56357Q429.4482 339.28735 430.51993 339.65198Q431.5916 340.01657 432.50867 340.9336Q433.4257 341.85062 433.77924 342.95547Q434.13278 344.06033 433.82343 345.121Q433.52512 346.17062 432.7296 346.9661Q431.86783 347.82788 430.7851 348.09305Q429.69128 348.34717 428.6306 347.99362Q427.56995 347.61798 426.7634 346.81143ZM427.6031 345.99384Q428.70795 347.0987 429.9233 347.14288Q431.1497 347.17603 432.04462 346.2811Q432.9506 345.37512 432.9064 344.1598Q432.85117 342.93338 431.66898 341.7512Q430.9287 341.01096 430.12216 340.71262Q429.32666 340.40326 428.54224 340.5911Q427.74673 340.76788 427.15012 341.3645Q426.29938 342.21524 426.26624 343.41953Q426.2331 344.6238 427.6031 345.99384ZM434.4311 341.86166L435.08298 341.01096Q435.83426 341.51917 436.43088 341.49707Q437.01645 341.46393 437.4584 341.022Q437.98874 340.49167 437.98874 339.76245Q437.98874 339.03326 437.44736 338.49188Q436.93912 337.98364 436.26517 337.9947Q435.5912 337.98364 435.07193 338.50293Q434.862 338.71283 434.62997 339.12164L434.05545 338.37033Q434.14383 338.30405 434.18802 338.25986Q434.66312 337.78476 434.79572 337.16605Q434.92828 336.52524 434.409 336.00595Q434.0002 335.59717 433.45883 335.60822Q432.9064 335.60822 432.46445 336.05014Q432.03357 336.48105 432.01147 337.05557Q432.00043 337.61905 432.46445 338.23776L431.58057 338.85648Q430.9729 337.98364 431.05023 337.0887Q431.11655 336.18274 431.8347 335.46457Q432.33188 334.96738 432.9727 334.76852Q433.60245 334.5586 434.18802 334.7022Q434.77362 334.84586 435.19345 335.2657Q435.58014 335.6524 435.7017 336.1938Q435.81216 336.72412 435.5912 337.32074Q436.24307 336.91193 436.93912 337.01138Q437.6241 337.09976 438.22076 337.69638Q439.01624 338.49188 438.9831 339.62988Q438.961 340.75684 438.07712 341.64072Q437.28162 342.43622 436.2762 342.49146Q435.25974 342.53564 434.4311 341.86166ZM444.12067 335.3762L438.37543 332.32678L439.14883 331.55338L442.38605 333.3985L443.59033 334.07245Q443.54614 333.98407 442.91638 332.93445L441.03812 329.6641L441.80048 328.90173L445.0156 330.79105L446.07626 331.40976L445.47964 330.3049L443.6898 327.01245L444.41898 326.28323L447.43524 332.0616L446.66183 332.83502L443.32516 330.89047L442.40814 330.327L444.90512 334.59174L444.12067 335.3762ZM444.46317 324.60385L443.60138 323.74207L444.3527 322.99075L445.21448 323.85254L444.46317 324.60385ZM449.6781 329.81876L445.28076 325.42145L446.03207 324.67014L450.42938 329.06747L449.6781 329.81876ZM452.76062 325.4104L453.52298 325.95178Q453.26886 326.33847 453.0258 326.58154Q452.617 326.99033 452.2745 327.08978Q451.92096 327.17816 451.61157 327.0677Q451.31326 326.94614 450.6393 326.2722L448.1092 323.74207L447.5678 324.28345L446.9933 323.70892L447.53467 323.16754L446.44086 322.07373L446.73917 320.89154L448.27493 322.42728L449.0262 321.676L449.60074 322.25052L448.84946 323.0018L451.42377 325.5761Q451.74417 325.89655 451.8657 325.95178Q451.9983 325.99597 452.1419 325.96283Q452.28555 325.9297 452.45126 325.76395Q452.58386 325.63138 452.76062 325.4104ZM453.92075 325.5761L447.84402 319.49942L448.5843 318.7592L450.76083 320.93573Q450.6835 319.81982 451.479 319.02435Q451.9762 318.52716 452.52863 318.37247Q453.08105 318.1957 453.57822 318.3835Q454.06436 318.5603 454.71622 319.21216L457.50046 321.9964L456.7602 322.73666L453.97598 319.95242Q453.4125 319.38895 452.9153 319.3779Q452.41812 319.36685 451.9762 319.80878Q451.64474 320.14023 451.5232 320.61533Q451.40167 321.06833 451.56738 321.4992Q451.73312 321.90802 452.2524 322.42728L454.66098 324.83588L453.92075 325.5761ZM461.0802 318.41666L455.00348 312.33997L457.30157 310.04187Q457.8982 309.44525 458.27386 309.18008Q458.8042 308.80444 459.3124 308.71603Q459.8317 308.6166 460.38412 308.8155Q460.9476 309.0033 461.4006 309.4563Q462.17398 310.2297 462.2182 311.26825Q462.2624 312.28473 460.9697 313.5774L459.41187 315.13525L461.88672 317.61014L461.0802 318.41666ZM458.70474 314.42813L460.27365 312.85925Q461.0581 312.0748 461.09125 311.46713Q461.1244 310.83737 460.59406 310.30704Q460.2184 309.9314 459.75436 309.8651Q459.2903 309.7767 458.89258 309.99768Q458.6274 310.15237 458.08603 310.69373L456.5282 312.2516L458.70474 314.42813ZM464.64886 302.69458L465.4554 301.88806L468.96884 305.4015Q469.88586 306.3185 470.21735 307.06982Q470.53775 307.81006 470.33887 308.69394Q470.12894 309.56677 469.2561 310.43964Q468.40536 311.29034 467.56567 311.5555Q466.72598 311.79858 465.94156 311.47818Q465.14606 311.14673 464.1848 310.18552L460.6714 306.67206L461.47794 305.86554L464.98032 309.36792Q465.77582 310.16342 466.2951 310.39542Q466.82544 310.6164 467.38892 310.47278Q467.9524 310.30704 468.47165 309.78775Q469.35556 308.90387 469.33344 308.13046Q469.3003 307.34604 468.15125 306.197L464.64886 302.69458ZM473.52084 303.34647L474.13956 302.50677Q474.6478 302.88242 475.15604 302.83823Q475.67532 302.783 476.19458 302.2637Q476.70282 301.75546 476.747 301.31354Q476.79123 300.8495 476.50397 300.56223Q476.24985 300.3081 475.88522 300.38544Q475.63113 300.4407 474.86877 300.89368Q473.84125 301.50134 473.37723 301.67813Q472.91318 301.8328 472.48227 301.73337Q472.0514 301.63394 471.71994 301.3025Q471.43268 301.01523 471.31113 300.6285Q471.1896 300.24182 471.2559 299.84406Q471.31113 299.54575 471.52106 299.15906Q471.731 298.77237 472.08453 298.4188Q472.59277 297.91058 473.13416 297.67856Q473.67554 297.42444 474.11746 297.49072Q474.55942 297.557 475.04553 297.91058L474.41577 298.73923Q474.04013 298.45197 473.60922 298.5072Q473.17834 298.54034 472.7364 298.98227Q472.22818 299.4905 472.18396 299.88828Q472.12872 300.27496 472.36075 300.507Q472.5044 300.6506 472.70325 300.6727Q472.92422 300.6948 473.1894 300.58432Q473.3441 300.51804 474.04013 300.10922Q475.0566 299.5347 475.49854 299.35794Q475.9405 299.18115 476.37137 299.25848Q476.80228 299.33585 477.18896 299.72253Q477.5646 300.09818 477.6751 300.6506Q477.78558 301.18094 477.5646 301.77756Q477.33258 302.36313 476.81332 302.88242Q475.95154 303.7442 475.145 303.84363Q474.33844 303.921 473.52084 303.34647ZM482.96735 296.5295L482.3155 295.87766Q482.54752 297.14822 481.66364 298.0321Q481.27692 298.4188 480.7908 298.61768Q480.30466 298.79446 479.91797 298.73923Q479.5202 298.6729 479.12247 298.40775Q478.86835 298.24203 478.3822 297.7559L475.66428 295.03796L476.41556 294.28665L478.8573 296.7284Q479.43182 297.30292 479.68594 297.46863Q480.0395 297.6896 480.43723 297.64542Q480.835 297.57913 481.1775 297.2366Q481.50894 296.90515 481.6305 296.45218Q481.752 295.97708 481.57523 295.55722Q481.40952 295.12634 480.84604 294.56287L478.4927 292.20953L479.23294 291.46927L483.63028 295.8666L482.96735 296.5295ZM483.42035 293.44696L484.03906 292.60727Q484.5473 292.9829 485.05554 292.93872Q485.5748 292.88348 486.0941 292.3642Q486.60233 291.85596 486.6465 291.41403Q486.6907 290.94998 486.40344 290.66272Q486.14932 290.4086 485.78473 290.48596Q485.5306 290.5412 484.76825 290.99417Q483.74075 291.60187 483.2767 291.77863Q482.81268 291.93332 482.38177 291.83386Q481.9509 291.73444 481.61942 291.40298Q481.33215 291.11572 481.21063 290.72903Q481.0891 290.34232 481.1554 289.94458Q481.21063 289.64627 481.42056 289.25955Q481.6305 288.87286 481.98404 288.51932Q482.49228 288.01108 483.03363 287.77905Q483.575 287.52493 484.01697 287.59125Q484.4589 287.65753 484.94504 288.01108L484.31528 288.83972Q483.93964 288.55246 483.50873 288.6077Q483.07785 288.64084 482.6359 289.0828Q482.12766 289.59103 482.08347 289.98877Q482.02823 290.37546 482.26025 290.60748Q482.40387 290.75113 482.60275 290.77322Q482.82373 290.79532 483.0889 290.6848Q483.24356 290.61853 483.93964 290.20975Q484.9561 289.63522 485.39804 289.45844Q485.83997 289.28165 486.27087 289.359Q486.70175 289.43634 487.08847 289.82303Q487.4641 290.1987 487.5746 290.75113Q487.6851 291.28143 487.4641 291.87808Q487.2321 292.46365 486.7128 292.9829Q485.851 293.8447 485.04446 293.94415Q484.23795 294.02148 483.42035 293.44696ZM491.6736 291.2041L485.58585 285.11636L486.25983 284.4424L486.8233 285.00586Q486.7349 284.43134 486.8675 283.96732Q487.0111 283.49222 487.44202 283.06134Q488.0055 282.49786 488.72363 282.35422Q489.4418 282.2106 490.18204 282.531Q490.93335 282.84036 491.5631 283.47012Q492.2371 284.14407 492.5354 284.92853Q492.84476 285.70193 492.66797 286.45325Q492.4912 287.20453 491.98297 287.71277Q491.6073 288.0884 491.15433 288.23206Q490.69028 288.36462 490.27045 288.32043L492.41385 290.46387L491.6736 291.2041ZM488.48056 286.66315Q489.3313 287.5139 490.0826 287.5802Q490.82288 287.63544 491.309 287.1493Q491.80618 286.6521 491.7399 285.87872Q491.6736 285.10532 490.78973 284.22144Q489.95004 283.38174 489.19873 283.31546Q488.43637 283.2381 487.95026 283.72424Q487.47516 284.19934 487.5525 285.00586Q487.62985 285.8124 488.48056 286.66315ZM496.52393 280.1445L497.3857 279.4595Q497.88287 280.31024 497.76135 281.18307Q497.63983 282.0559 496.87747 282.81827Q495.91626 283.77948 494.7451 283.7574Q493.585 283.72424 492.5133 282.65253Q491.40845 281.54767 491.3753 280.36548Q491.3311 279.17224 492.2371 278.26627Q493.12097 277.3824 494.27002 277.42657Q495.4301 277.45972 496.52393 278.55353Q496.5902 278.6198 496.72278 278.7524L493.44138 282.0338Q494.21478 282.7188 494.96606 282.74094Q495.70633 282.75198 496.25876 282.19955Q496.66754 281.79074 496.74487 281.29355Q496.82224 280.7743 496.52393 280.1445ZM492.8779 281.38196L495.33066 278.92917Q494.723 278.40988 494.21478 278.3657Q493.41928 278.2994 492.8558 278.86288Q492.33652 279.38217 492.32547 280.07822Q492.32547 280.76324 492.8779 281.38196ZM499.88266 279.6142L495.48535 275.21686L496.14825 274.55396L496.76697 275.17267Q496.53497 273.96838 497.452 273.05136Q497.84973 272.6536 498.32483 272.4658Q498.81097 272.2669 499.2087 272.3332Q499.60645 272.39948 499.98212 272.64255Q500.2252 272.81934 500.74445 273.33862L503.45135 276.0455L502.7111 276.78577L500.03735 274.112Q499.5733 273.64798 499.26395 273.51538Q498.9546 273.3828 498.60104 273.4712Q498.23645 273.54852 497.93814 273.84683Q497.46304 274.32193 497.41885 274.98483Q497.37466 275.62567 498.21436 276.46536L500.62292 278.87393L499.88266 279.6142ZM507.68295 271.8139L507.13052 271.26147Q507.36255 272.3332 506.556 273.13974Q506.02567 273.67007 505.29645 273.82474Q504.5562 273.96838 503.79385 273.69217Q503.0315 273.41595 502.35754 272.742Q501.7057 272.09012 501.38528 271.3278Q501.06488 270.56543 501.2306 269.84726Q501.38528 269.11807 501.92667 268.5767Q502.3244 268.17896 502.7995 268.0353Q503.27457 267.8917 503.73862 267.95798L501.56204 265.7814L502.3023 265.04117L508.379 271.11786L507.68295 271.8139ZM503.13095 271.9686Q503.9817 272.81934 504.75507 272.88562Q505.51743 272.94086 506.00357 272.45474Q506.48972 271.9686 506.43445 271.22833Q506.3792 270.4881 505.5616 269.6705Q504.65564 268.76453 503.88223 268.6982Q503.1199 268.62088 502.61166 269.12912Q502.11447 269.6263 502.1918 270.36655Q502.25812 271.09576 503.13095 271.9686Z" fill-rule="nonzero"/><path fill="#000000" d="M454.36182 368.59915L453.6105 367.84784L455.90863 365.54974L456.6599 366.30106L454.36182 368.59915ZM456.1959 364.4891Q454.68222 362.97543 454.63803 361.31815Q454.59384 359.6388 455.87546 358.35715Q456.7262 357.5064 457.80896 357.24124Q458.88068 356.96503 459.9524 357.32965Q461.02408 357.69424 461.94113 358.61127Q462.85815 359.5283 463.2117 360.63315Q463.56525 361.738 463.2559 362.79868Q462.95758 363.84827 462.16208 364.64377Q461.3003 365.50555 460.21756 365.77072Q459.12375 366.02484 458.06308 365.6713Q457.0024 365.29562 456.1959 364.4891ZM457.03555 363.6715Q458.1404 364.77637 459.35577 364.82056Q460.58215 364.8537 461.47708 363.95877Q462.38306 363.0528 462.33887 361.83743Q462.28363 360.61105 461.10144 359.42886Q460.36118 358.6886 459.55463 358.3903Q458.75916 358.08093 457.9747 358.26877Q457.1792 358.44553 456.58258 359.04214Q455.73184 359.89288 455.6987 361.0972Q455.66556 362.30148 457.03555 363.6715ZM463.86356 359.53934L464.51544 358.6886Q465.26672 359.19684 465.86334 359.17474Q466.4489 359.1416 466.89087 358.69965Q467.4212 358.1693 467.4212 357.44012Q467.4212 356.7109 466.87982 356.16953Q466.37158 355.66132 465.69763 355.67236Q465.02365 355.66132 464.5044 356.18057Q464.29446 356.3905 464.06244 356.79932L463.4879 356.048Q463.5763 355.98172 463.6205 355.93753Q464.09558 355.46243 464.22818 354.84372Q464.36075 354.2029 463.84146 353.68362Q463.43268 353.2748 462.8913 353.28586Q462.33887 353.28586 461.8969 353.7278Q461.46603 354.1587 461.44394 354.73322Q461.4329 355.2967 461.8969 355.91544L461.01303 356.53415Q460.40536 355.66132 460.48273 354.7664Q460.549 353.86038 461.26715 353.14224Q461.76434 352.64505 462.40515 352.44617Q463.0349 352.23627 463.6205 352.37988Q464.2061 352.52353 464.62592 352.94336Q465.0126 353.33008 465.13416 353.87143Q465.24463 354.40176 465.02365 354.99838Q465.67554 354.5896 466.37158 354.68903Q467.0566 354.77744 467.65323 355.37405Q468.4487 356.16953 468.41556 357.30753Q468.39346 358.43448 467.50958 359.31836Q466.71408 360.11386 465.70868 360.1691Q464.6922 360.21332 463.86356 359.53934ZM473.55313 353.05386L467.8079 350.00446L468.5813 349.23105L471.8185 351.07617L473.0228 351.75012Q472.9786 351.66174 472.34885 350.61212L470.4706 347.34177L471.23294 346.5794L474.44806 348.4687L475.50873 349.08743L474.9121 347.98257L473.12225 344.6901L473.85144 343.9609L476.8677 349.7393L476.0943 350.5127L472.75766 348.56815L471.8406 348.00467L474.3376 352.2694L473.55313 353.05386ZM473.89563 342.28152L473.03384 341.41974L473.78516 340.66843L474.64694 341.5302L473.89563 342.28152ZM479.11057 347.49643L474.71323 343.09912L475.46454 342.3478L479.86185 346.74512L479.11057 347.49643ZM482.1931 343.08807L482.95544 343.62946Q482.70132 344.01614 482.45825 344.25922Q482.04947 344.668 481.70697 344.76746Q481.35342 344.85583 481.04407 344.74533Q480.74573 344.6238 480.07178 343.94986L477.54166 341.41974L477.00027 341.96112L476.42575 341.3866L476.96713 340.8452L475.87332 339.7514L476.17163 338.5692L477.7074 340.10495L478.45868 339.35367L479.0332 339.9282L478.28192 340.67947L480.85623 343.25378Q481.17664 343.5742 481.29816 343.62946Q481.43076 343.67365 481.57437 343.6405Q481.71802 343.60733 481.88373 343.44162Q482.01633 343.30902 482.1931 343.08807ZM483.3532 343.25378L477.2765 337.1771L478.01675 336.43683L480.19333 338.6134Q480.11597 337.4975 480.91147 336.702Q481.40866 336.20483 481.9611 336.05014Q482.51352 335.87335 483.01068 336.0612Q483.49683 336.23798 484.14868 336.88983L486.93292 339.67407L486.1927 340.4143L483.40845 337.6301Q482.84497 337.06662 482.34778 337.05557Q481.8506 337.04453 481.40866 337.48645Q481.0772 337.8179 480.95566 338.293Q480.83414 338.74597 480.99985 339.17688Q481.1656 339.58566 481.68488 340.10495L484.09344 342.51355L483.3532 343.25378ZM490.51266 336.09433L484.43594 330.01764L486.73404 327.71954Q487.3307 327.12292 487.70633 326.85776Q488.23666 326.48212 488.74487 326.3937Q489.26416 326.29428 489.8166 326.49316Q490.38007 326.68097 490.83307 327.13397Q491.60645 327.90738 491.65067 328.94592Q491.69485 329.9624 490.40216 331.25507L488.84433 332.81293L491.31918 335.28778L490.51266 336.09433ZM488.1372 332.1058L489.70612 330.53693Q490.49057 329.75247 490.5237 329.1448Q490.55685 328.51505 490.02652 327.9847Q489.65088 327.60904 489.18683 327.54276Q488.72278 327.45438 488.32504 327.67535Q488.05988 327.83002 487.5185 328.3714L485.96066 329.92926L488.1372 332.1058ZM494.08136 320.37222L494.8879 319.5657L498.40134 323.07913Q499.31836 323.99615 499.6498 324.74747Q499.9702 325.4877 499.77136 326.37158Q499.5614 327.24445 498.68857 328.11728Q497.83783 328.96802 496.99814 329.2332Q496.15845 329.47626 495.37402 329.15585Q494.57852 328.8244 493.6173 327.86316L490.10385 324.34973L490.9104 323.54318L494.41278 327.0456Q495.20828 327.84106 495.72757 328.0731Q496.2579 328.29407 496.82138 328.15042Q497.38486 327.9847 497.90414 327.46542Q498.78802 326.58154 498.76593 325.8081Q498.7328 325.02368 497.58374 323.87463L494.08136 320.37222ZM504.5443 322.06265L498.46762 315.98596L499.21893 315.23465L505.29562 321.31137L504.5443 322.06265ZM508.27875 315.49982L509.14053 314.81482Q509.6377 315.66556 509.51617 316.5384Q509.39462 317.41122 508.6323 318.17358Q507.67105 319.1348 506.4999 319.1127Q505.3398 319.07956 504.26813 318.00784Q503.16327 316.90298 503.13013 315.7208Q503.0859 314.52756 503.9919 313.62158Q504.8758 312.7377 506.02484 312.7819Q507.18494 312.81503 508.27875 313.90884Q508.34503 313.97513 508.4776 314.10773L505.1962 317.38913Q505.96957 318.07413 506.7209 318.09622Q507.46115 318.1073 508.01358 317.55487Q508.42236 317.14606 508.4997 316.64886Q508.57706 316.1296 508.27875 315.49982ZM504.63272 316.73727L507.08548 314.2845Q506.4778 313.7652 505.96957 313.721Q505.1741 313.65472 504.61063 314.2182Q504.09134 314.7375 504.0803 315.43353Q504.0803 316.11856 504.63272 316.73727ZM513.96875 311.5555Q513.90247 312.3289 513.65936 312.85922Q513.42737 313.3785 512.9854 313.82047Q512.2562 314.54965 511.51596 314.5828Q510.7757 314.61594 510.22327 314.0635Q509.90286 313.7431 509.78134 313.33432Q509.64874 312.91446 509.73715 312.51672Q509.81448 312.10794 510.03546 311.73227Q510.17908 311.45605 510.57684 310.9478Q511.3723 309.95346 511.64853 309.3679Q511.49387 309.2132 511.46072 309.18005Q510.99667 308.71603 510.59894 308.73813Q510.0686 308.78232 509.50513 309.3458Q508.98584 309.86508 508.91956 310.307Q508.84222 310.7379 509.18472 311.3235L508.35608 311.95325Q507.9915 311.38977 507.93622 310.87048Q507.88098 310.3512 508.1572 309.76562Q508.4334 309.18005 508.9969 308.61658Q509.56036 308.0531 510.0465 307.83215Q510.53262 307.61118 510.89725 307.64432Q511.26184 307.67746 511.63748 307.92053Q511.85846 308.0752 512.35565 308.5724L513.35004 309.56677Q514.38855 310.60532 514.709 310.83734Q515.04047 311.05832 515.4382 311.1688L514.65375 311.95325Q514.3112 311.83173 513.96875 311.5555ZM512.23413 309.95346Q511.99106 310.52798 511.30603 311.45605Q510.9083 311.9864 510.80884 312.2626Q510.69836 312.52777 510.74255 312.79294Q510.7978 313.04706 510.99667 313.2459Q511.29498 313.54425 511.71484 313.52213Q512.14575 313.48898 512.5766 313.0581Q513.0075 312.6272 513.1511 312.10794Q513.30585 311.5776 513.129 311.09146Q512.99646 310.71582 512.5103 310.22968L512.23413 309.95346ZM517.80255 308.8044L511.73694 306.0754L512.52136 305.291L516.1011 306.97037Q516.6756 307.25763 517.26117 307.57803Q517.0181 307.13608 516.7088 306.47318L515.0073 302.80505L515.76965 302.0427L518.49866 308.10837L517.80255 308.8044ZM521.71375 302.0648L522.57556 301.3798Q523.07275 302.23053 522.9512 303.10336Q522.82965 303.9762 522.0673 304.73856Q521.1061 305.69977 519.93494 305.67767Q518.77484 305.64453 517.7031 304.5728Q516.59827 303.46796 516.5651 302.28577Q516.52094 301.09253 517.42694 300.18655Q518.3108 299.30267 519.45984 299.34686Q520.61993 299.38 521.71375 300.47382Q521.78 300.5401 521.91266 300.67267L518.6312 303.9541Q519.4046 304.6391 520.15594 304.6612Q520.8962 304.67224 521.4486 304.11984Q521.8574 303.71103 521.93475 303.21384Q522.0121 302.69458 521.71375 302.0648ZM518.06775 303.30225L520.5205 300.84946Q519.91284 300.33017 519.4046 300.28598Q518.60913 300.2197 518.04565 300.78317Q517.52637 301.30246 517.5153 301.9985Q517.5153 302.68353 518.06775 303.30225ZM525.2603 301.34665L524.4096 300.4959L525.2603 299.64517L526.1111 300.4959Q526.57513 300.95993 526.69666 301.41293Q526.8292 301.87698 526.6304 302.3852L526.10004 302.27472Q526.2326 301.94327 526.1332 301.62286Q526.0448 301.3135 525.6912 300.91574L525.2603 301.34665ZM529.3152 297.29184L524.91785 292.8945L525.58075 292.2316L526.19946 292.8503Q525.96747 291.64603 526.88446 290.729Q527.2822 290.33124 527.7573 290.14343Q528.24347 289.94455 528.6412 290.01083Q529.03894 290.07712 529.4146 290.3202Q529.65765 290.49698 530.17694 291.01627L532.88385 293.72314L532.1436 294.4634L529.46985 291.78964Q529.0058 291.32562 528.6965 291.19302Q528.3871 291.06046 528.0335 291.14883Q527.66895 291.22617 527.3706 291.52448Q526.8955 291.99957 526.8513 292.66248Q526.8071 293.3033 527.64685 294.143L530.0554 296.55157L529.3152 297.29184ZM531.79004 290.41965Q530.56366 289.19324 530.65204 287.93372Q530.7294 286.8841 531.54694 286.0665Q532.45294 285.16052 533.6241 285.18262Q534.7952 285.18262 535.84485 286.23224Q536.6956 287.08298 536.9276 287.82324Q537.1596 288.56348 536.93866 289.33688Q536.7177 290.08817 536.1432 290.6627Q535.22614 291.57974 534.06604 291.5687Q532.90594 291.53555 531.79004 290.41965ZM532.55237 289.6573Q533.3921 290.49698 534.1765 290.55222Q534.972 290.5964 535.5244 290.04398Q536.0879 289.4805 536.03265 288.69608Q535.9774 287.91162 535.11566 287.04984Q534.29803 286.23224 533.50256 286.18805Q532.71814 286.1328 532.1657 286.68524Q531.6133 287.23764 531.6575 288.03314Q531.70166 288.80655 532.55237 289.6573ZM542.1425 284.46448L536.3973 281.41507L537.17065 280.64166L540.4079 282.4868L541.6122 283.16074Q541.568 283.07236 540.93823 282.02274L539.06 278.75238L539.8223 277.99002L543.0375 279.87933L544.0981 280.49805L543.50146 279.3932L541.7116 276.1007L542.44086 275.37152L545.4571 281.1499L544.68365 281.9233L541.34705 279.97876L540.43 279.41528L542.92694 283.68002L542.1425 284.46448ZM550.0312 275.49304Q549.9649 276.26645 549.7218 276.79678Q549.4898 277.31607 549.04785 277.758Q548.31866 278.4872 547.5784 278.52036Q546.83813 278.5535 546.2857 278.00107Q545.96533 277.68066 545.8438 277.27188Q545.7112 276.85202 545.79956 276.45428Q545.87695 276.04547 546.0979 275.66983Q546.2415 275.39362 546.6393 274.88538Q547.43475 273.89102 547.711 273.30545Q547.55634 273.15076 547.52313 273.1176Q547.05914 272.65356 546.6614 272.67566Q546.13104 272.71988 545.56757 273.28336Q545.0483 273.8026 544.982 274.24457Q544.90466 274.67545 545.24713 275.26105L544.4185 275.8908Q544.0539 275.32733 543.99866 274.80804Q543.9434 274.28876 544.21967 273.7032Q544.49585 273.1176 545.0593 272.55414Q545.6228 271.99066 546.10895 271.76968Q546.5951 271.54874 546.95966 271.58188Q547.3243 271.61502 547.69995 271.8581Q547.9209 272.01276 548.4181 272.50995L549.4125 273.5043Q550.45105 274.54288 550.7714 274.7749Q551.1029 274.99588 551.5006 275.10635L550.7162 275.8908Q550.37366 275.76926 550.0312 275.49304ZM548.2966 273.89102Q548.05347 274.46555 547.36847 275.39362Q546.9707 275.92395 546.8713 276.20016Q546.7608 276.46533 546.805 276.7305Q546.8602 276.98462 547.05914 277.18347Q547.3574 277.48178 547.7773 277.4597Q548.2082 277.42654 548.63904 276.99567Q549.06995 276.56476 549.21356 276.04547Q549.3683 275.51514 549.19147 275.02902Q549.0589 274.65335 548.57275 274.16724L548.2966 273.89102ZM547.43475 268.7424L546.573 267.8806L547.3243 267.1293L548.1861 267.9911L547.43475 268.7424ZM552.64966 273.9573L548.2524 269.56L549.00366 268.8087L553.401 273.206L552.64966 273.9573ZM555.73224 269.54895L556.49457 270.0903Q556.2405 270.47702 555.9974 270.7201Q555.5886 271.12888 555.2461 271.2283Q554.8925 271.3167 554.5832 271.2062Q554.28485 271.0847 553.6109 270.41074L551.0808 267.8806L550.5394 268.422L549.9649 267.84747L550.5063 267.3061L549.4125 266.21228L549.71075 265.0301L551.2465 266.56583L551.9978 265.8145L552.5723 266.38904L551.82104 267.14035L554.3953 269.71466Q554.71576 270.03506 554.8373 270.0903Q554.96985 270.13452 555.1135 270.10135Q555.25714 270.0682 555.42285 269.9025Q555.5555 269.7699 555.73224 269.54895Z" fill-rule="nonzero"/></svg>