<svg version="1.1" viewBox="0.0 0.0 600.0 371.0" fill="none" stroke="none" stroke-linecap="square" stroke-miterlimit="10" width="600" height="371" xmlns:xlink="http://www.w3.org/1999/xlink" xmlns="http://www.w3.org/2000/svg"><path fill="#ffffff" d="M0 0L600.0 0L600.0 371.0L0 371.0L0 0Z" fill-rule="nonzero"/><path stroke="#333333" stroke-width="1.0" stroke-linecap="butt" d="M45.5 318.5L581.5 318.5" fill-rule="nonzero"/><path stroke="#cccccc" stroke-width="1.0" stroke-linecap="butt" d="M45.5 245.5L581.5 245.5" fill-rule="nonzero"/><path stroke="#cccccc" stroke-width="1.0" stroke-linecap="butt" d="M45.5 172.5L581.5 172.5" fill-rule="nonzero"/><path stroke="#cccccc" stroke-width="1.0" stroke-linecap="butt" d="M45.5 98.5L581.5 98.5" fill-rule="nonzero"/><path stroke="#cccccc" stroke-width="1.0" stroke-linecap="butt" d="M45.5 25.5L581.5 25.5" fill-rule="nonzero"/><clipPath id="id_0"><path d="M45.55 25.55L581.45 25.55L581.45 318.45L45.55 318.45L45.55 25.55Z" clip-rule="nonzero"/></clipPath><path stroke="#000000" stroke-width="2.0" stroke-linecap="butt" stroke-opacity="0.0" clip-path="url(#id_0)" d="M146.0 318.0L81.0 318.0L81.0 108.0C81.0 106.89543 81.89543 106.0 83.0 106.0L144.0 106.0C145.10457 106.0 146.0 106.89543 146.0 108.0Z" fill-rule="nonzero"/><path fill="#4285f4" clip-path="url(#id_0)" d="M146.0 318.0L81.0 318.0L81.0 108.0C81.0 106.89543 81.89543 106.0 83.0 106.0L144.0 106.0C145.10457 106.0 146.0 106.89543 146.0 108.0Z" fill-rule="nonzero"/><path stroke="#000000" stroke-width="2.0" stroke-linecap="butt" stroke-opacity="0.0" clip-path="url(#id_0)" d="M246.0 318.0L181.0 318.0L181.0 79.0C181.0 77.89543 181.89543 77.0 183.0 77.0L244.0 77.0C245.10457 77.0 246.0 77.89543 246.0 79.0Z" fill-rule="nonzero"/><path fill="#4285f4" clip-path="url(#id_0)" d="M246.0 318.0L181.0 318.0L181.0 79.0C181.0 77.89543 181.89543 77.0 183.0 77.0L244.0 77.0C245.10457 77.0 246.0 77.89543 246.0 79.0Z" fill-rule="nonzero"/><path stroke="#000000" stroke-width="2.0" stroke-linecap="butt" stroke-opacity="0.0" clip-path="url(#id_0)" d="M347.0 318.0L282.0 318.0L282.0 283.0C282.0 281.89542 282.89542 281.0 284.0 281.0L345.0 281.0C346.10458 281.0 347.0 281.89542 347.0 283.0Z" fill-rule="nonzero"/><path fill="#4285f4" clip-path="url(#id_0)" d="M347.0 318.0L282.0 318.0L282.0 283.0C282.0 281.89542 282.89542 281.0 284.0 281.0L345.0 281.0C346.10458 281.0 347.0 281.89542 347.0 283.0Z" fill-rule="nonzero"/><path stroke="#000000" stroke-width="2.0" stroke-linecap="butt" stroke-opacity="0.0" clip-path="url(#id_0)" d="M447.0 318.0L382.0 318.0L382.0 90.0C382.0 88.89543 382.89542 88.0 384.0 88.0L445.0 88.0C446.10458 88.0 447.0 88.89543 447.0 90.0Z" fill-rule="nonzero"/><path fill="#4285f4" clip-path="url(#id_0)" d="M447.0 318.0L382.0 318.0L382.0 90.0C382.0 88.89543 382.89542 88.0 384.0 88.0L445.0 88.0C446.10458 88.0 447.0 88.89543 447.0 90.0Z" fill-rule="nonzero"/><path stroke="#000000" stroke-width="2.0" stroke-linecap="butt" stroke-opacity="0.0" clip-path="url(#id_0)" d="M547.0 318.0L482.0 318.0L482.0 284.0C482.0 282.89542 482.89542 282.0 484.0 282.0L545.0 282.0C546.10455 282.0 547.0 282.89542 547.0 284.0Z" fill-rule="nonzero"/><path fill="#4285f4" clip-path="url(#id_0)" d="M547.0 318.0L482.0 318.0L482.0 284.0C482.0 282.89542 482.89542 282.0 484.0 282.0L545.0 282.0C546.10455 282.0 547.0 282.89542 547.0 284.0Z" fill-rule="nonzero"/><path fill="#000000" d="M33.05 318.21564Q33.05 316.6844 33.3625 315.7625Q33.675 314.825 34.284374 314.325Q34.909374 313.825 35.846874 313.825Q36.534374 313.825 37.05 314.10626Q37.58125 314.3875 37.925 314.91876Q38.26875 315.4344 38.45625 316.1844Q38.64375 316.9344 38.64375 318.21564Q38.64375 319.73126 38.33125 320.65314Q38.034374 321.575 37.409374 322.09064Q36.8 322.59064 35.846874 322.59064Q34.6125 322.59064 33.89375 321.7Q33.05 320.6375 33.05 318.21564ZM34.128124 318.21564Q34.128124 320.325 34.628124 321.02814Q35.128124 321.73126 35.846874 321.73126Q36.58125 321.73126 37.065624 321.02814Q37.565624 320.325 37.565624 318.21564Q37.565624 316.09064 37.065624 315.40314Q36.58125 314.7 35.83125 314.7Q35.1125 314.7 34.675 315.3094Q34.128124 316.09064 34.128124 318.21564Z" fill-rule="nonzero"/><path fill="#000000" d="M37.01875 249.225L35.971874 249.225L35.971874 242.50626Q35.58125 242.86563 34.95625 243.24063Q34.346874 243.6 33.8625 243.77188L33.8625 242.75626Q34.7375 242.33438 35.39375 241.75626Q36.065624 241.1625 36.346874 240.6L37.01875 240.6L37.01875 249.225Z" fill-rule="nonzero"/><path fill="#000000" d="M38.596874 174.98438L38.596874 176.0L32.909374 176.0Q32.909374 175.625 33.034374 175.26562Q33.253124 174.6875 33.721874 174.125Q34.20625 173.5625 35.1125 172.82812Q36.51875 171.67188 37.003124 171.0Q37.503124 170.32812 37.503124 169.73438Q37.503124 169.10938 37.05 168.6875Q36.596874 168.25 35.878124 168.25Q35.1125 168.25 34.659374 168.70312Q34.20625 169.15625 34.190624 169.96875L33.1125 169.85938Q33.221874 168.64062 33.940624 168.01562Q34.675 167.375 35.909374 167.375Q37.14375 167.375 37.8625 168.0625Q38.58125 168.75 38.58125 169.76562Q38.58125 170.28125 38.3625 170.78125Q38.159374 171.26562 37.659374 171.82812Q37.175 172.375 36.05 173.32812Q35.096874 174.125 34.815624 174.42188Q34.55 174.70312 34.378124 174.98438L38.596874 174.98438Z" fill-rule="nonzero"/><path fill="#000000" d="M33.05 100.50938L34.1125 100.36875Q34.284374 101.25938 34.721874 101.66563Q35.159374 102.05625 35.784374 102.05625Q36.534374 102.05625 37.05 101.54063Q37.565624 101.025 37.565624 100.25938Q37.565624 99.54063 37.08125 99.07188Q36.6125 98.5875 35.878124 98.5875Q35.58125 98.5875 35.128124 98.7125L35.253124 97.775Q35.3625 97.79063 35.425 97.79063Q36.096874 97.79063 36.628124 97.44688Q37.175 97.0875 37.175 96.35313Q37.175 95.775 36.784374 95.4Q36.39375 95.00938 35.76875 95.00938Q35.159374 95.00938 34.7375 95.4Q34.33125 95.79063 34.221874 96.55625L33.159374 96.36875Q33.346874 95.32188 34.034374 94.74375Q34.721874 94.15 35.7375 94.15Q36.440624 94.15 37.034374 94.4625Q37.628124 94.75938 37.940624 95.275Q38.253124 95.79063 38.253124 96.38438Q38.253124 96.93125 37.95625 97.4Q37.659374 97.85313 37.08125 98.11875Q37.83125 98.29063 38.253124 98.85313Q38.675 99.4 38.675 100.24375Q38.675 101.36875 37.846874 102.15Q37.034374 102.93125 35.784374 102.93125Q34.659374 102.93125 33.909374 102.25938Q33.159374 101.57188 33.05 100.50938Z" fill-rule="nonzero"/><path fill="#000000" d="M36.425 29.55L36.425 27.4875L32.70625 27.4875L32.70625 26.51875L36.628124 20.95625L37.4875 20.95625L37.4875 26.51875L38.64375 26.51875L38.64375 27.4875L37.4875 27.4875L37.4875 29.55L36.425 29.55ZM36.425 26.51875L36.425 22.659374L33.7375 26.51875L36.425 26.51875Z" fill-rule="nonzero"/><path fill="#000000" d="M85.58543 335.45L85.58543 326.85626L86.74168 326.85626L91.2573 333.60626L91.2573 326.85626L92.35105 326.85626L92.35105 335.45L91.17918 335.45L86.66355 328.7L86.66355 335.45L85.58543 335.45ZM94.0698 332.34064Q94.0698 330.60626 95.02293 329.77814Q95.8198 329.09064 96.97605 329.09064Q98.2573 329.09064 99.0698 329.9344Q99.89793 330.7625 99.89793 332.2469Q99.89793 333.45 99.53855 334.1375Q99.17918 334.825 98.47605 335.21564Q97.78855 335.59064 96.97605 335.59064Q95.67918 335.59064 94.86668 334.7625Q94.0698 333.91876 94.0698 332.34064ZM95.14793 332.34064Q95.14793 333.52814 95.66355 334.1219Q96.1948 334.71564 96.97605 334.71564Q97.77293 334.71564 98.28855 334.1219Q98.80418 333.52814 98.80418 332.3094Q98.80418 331.15314 98.27293 330.5594Q97.7573 329.96564 96.97605 329.96564Q96.1948 329.96564 95.66355 330.5594Q95.14793 331.1375 95.14793 332.34064ZM104.46043 337.84064L104.46043 329.23126L105.41355 329.23126L105.41355 330.02814Q105.7573 329.5594 106.17918 329.325Q106.61668 329.09064 107.22605 329.09064Q108.02293 329.09064 108.6323 329.4969Q109.24168 329.90314 109.53855 330.65314Q109.85105 331.40314 109.85105 332.29376Q109.85105 333.2469 109.5073 334.0125Q109.17918 334.77814 108.52293 335.1844Q107.86668 335.59064 107.14793 335.59064Q106.61668 335.59064 106.1948 335.3719Q105.77293 335.1375 105.5073 334.8094L105.5073 337.84064L104.46043 337.84064ZM105.41355 332.3719Q105.41355 333.575 105.89793 334.15314Q106.3823 334.71564 107.0698 334.71564Q107.77293 334.71564 108.27293 334.1219Q108.77293 333.52814 108.77293 332.27814Q108.77293 331.09064 108.28855 330.5125Q107.80418 329.91876 107.11668 329.91876Q106.4448 329.91876 105.92918 330.54376Q105.41355 331.16876 105.41355 332.3719ZM115.53855 335.45L115.53855 334.52814Q114.80418 335.59064 113.55418 335.59064Q113.0073 335.59064 112.52293 335.3875Q112.05418 335.16876 111.8198 334.85626Q111.58543 334.52814 111.49168 334.0594Q111.42918 333.7625 111.42918 333.075L111.42918 329.23126L112.49168 329.23126L112.49168 332.6844Q112.49168 333.4969 112.55418 333.79376Q112.64793 334.2 112.96043 334.45Q113.28855 334.6844 113.77293 334.6844Q114.24168 334.6844 114.64793 334.45Q115.0698 334.2 115.24168 333.77814Q115.42918 333.35626 115.42918 332.5594L115.42918 329.23126L116.47605 329.23126L116.47605 335.45L115.53855 335.45ZM118.42918 335.45L118.42918 326.85626L119.49168 326.85626L119.49168 335.45L118.42918 335.45ZM121.42918 335.45L121.42918 326.85626L122.49168 326.85626L122.49168 335.45L121.42918 335.45ZM124.03855 332.8719L124.03855 331.8094L127.28855 331.8094L127.28855 332.8719L124.03855 332.8719ZM132.53854 335.45L132.53854 334.52814Q131.80417 335.59064 130.55417 335.59064Q130.0073 335.59064 129.52292 335.3875Q129.05417 335.16876 128.8198 334.85626Q128.58542 334.52814 128.49167 334.0594Q128.42917 333.7625 128.42917 333.075L128.42917 329.23126L129.49167 329.23126L129.49167 332.6844Q129.49167 333.4969 129.55417 333.79376Q129.64792 334.2 129.96042 334.45Q130.28854 334.6844 130.77292 334.6844Q131.24167 334.6844 131.64792 334.45Q132.0698 334.2 132.24167 333.77814Q132.42917 333.35626 132.42917 332.5594L132.42917 329.23126L133.47604 329.23126L133.47604 335.45L132.53854 335.45ZM135.46042 337.84064L135.46042 329.23126L136.41354 329.23126L136.41354 330.02814Q136.7573 329.5594 137.17917 329.325Q137.61667 329.09064 138.22604 329.09064Q139.02292 329.09064 139.6323 329.4969Q140.24167 329.90314 140.53854 330.65314Q140.85104 331.40314 140.85104 332.29376Q140.85104 333.2469 140.5073 334.0125Q140.17917 334.77814 139.52292 335.1844Q138.86667 335.59064 138.14792 335.59064Q137.61667 335.59064 137.1948 335.3719Q136.77292 335.1375 136.5073 334.8094L136.5073 337.84064L135.46042 337.84064ZM136.41354 332.3719Q136.41354 333.575 136.89792 334.15314Q137.3823 334.71564 138.0698 334.71564Q138.77292 334.71564 139.27292 334.1219Q139.77292 333.52814 139.77292 332.27814Q139.77292 331.09064 139.28854 330.5125Q138.80417 329.91876 138.11667 329.91876Q137.4448 329.91876 136.92917 330.54376Q136.41354 331.16876 136.41354 332.3719Z" fill-rule="nonzero"/><path fill="#000000" d="M194.75365 335.45L194.75365 326.85626L198.00365 326.85626Q198.8474 326.85626 199.30052 326.9344Q199.94115 327.04376 200.36302 327.34064Q200.80052 327.6375 201.05052 328.16876Q201.31615 328.7 201.31615 329.34064Q201.31615 330.4344 200.61302 331.2Q199.92552 331.95 198.0974 331.95L195.89427 331.95L195.89427 335.45L194.75365 335.45ZM195.89427 330.95L198.11302 330.95Q199.2224 330.95 199.67552 330.54376Q200.14427 330.1219 200.14427 329.3719Q200.14427 328.84064 199.86302 328.46564Q199.5974 328.075 199.1599 327.95Q198.86302 327.8719 198.0974 327.8719L195.89427 327.8719L195.89427 330.95ZM206.70677 335.45L206.70677 334.52814Q205.9724 335.59064 204.7224 335.59064Q204.17552 335.59064 203.69115 335.3875Q203.2224 335.16876 202.98802 334.85626Q202.75365 334.52814 202.6599 334.0594Q202.5974 333.7625 202.5974 333.075L202.5974 329.23126L203.6599 329.23126L203.6599 332.6844Q203.6599 333.4969 203.7224 333.79376Q203.81615 334.2 204.12865 334.45Q204.45677 334.6844 204.94115 334.6844Q205.4099 334.6844 205.81615 334.45Q206.23802 334.2 206.4099 333.77814Q206.5974 333.35626 206.5974 332.5594L206.5974 329.23126L207.64427 329.23126L207.64427 335.45L206.70677 335.45ZM209.5974 335.45L209.5974 326.85626L210.6599 326.85626L210.6599 335.45L209.5974 335.45ZM212.5974 335.45L212.5974 326.85626L213.6599 326.85626L213.6599 335.45L212.5974 335.45ZM215.20677 332.8719L215.20677 331.8094L218.45677 331.8094L218.45677 332.8719L215.20677 332.8719ZM223.70677 335.45L223.70677 334.52814Q222.9724 335.59064 221.7224 335.59064Q221.17552 335.59064 220.69115 335.3875Q220.2224 335.16876 219.98802 334.85626Q219.75365 334.52814 219.6599 334.0594Q219.5974 333.7625 219.5974 333.075L219.5974 329.23126L220.6599 329.23126L220.6599 332.6844Q220.6599 333.4969 220.7224 333.79376Q220.81615 334.2 221.12865 334.45Q221.45677 334.6844 221.94115 334.6844Q222.4099 334.6844 222.81615 334.45Q223.23802 334.2 223.4099 333.77814Q223.5974 333.35626 223.5974 332.5594L223.5974 329.23126L224.64427 329.23126L224.64427 335.45L223.70677 335.45ZM226.62865 337.84064L226.62865 329.23126L227.58177 329.23126L227.58177 330.02814Q227.92552 329.5594 228.3474 329.325Q228.7849 329.09064 229.39427 329.09064Q230.19115 329.09064 230.80052 329.4969Q231.4099 329.90314 231.70677 330.65314Q232.01927 331.40314 232.01927 332.29376Q232.01927 333.2469 231.67552 334.0125Q231.3474 334.77814 230.69115 335.1844Q230.0349 335.59064 229.31615 335.59064Q228.7849 335.59064 228.36302 335.3719Q227.94115 335.1375 227.67552 334.8094L227.67552 337.84064L226.62865 337.84064ZM227.58177 332.3719Q227.58177 333.575 228.06615 334.15314Q228.55052 334.71564 229.23802 334.71564Q229.94115 334.71564 230.44115 334.1219Q230.94115 333.52814 230.94115 332.27814Q230.94115 331.09064 230.45677 330.5125Q229.9724 329.91876 229.2849 329.91876Q228.61302 329.91876 228.0974 330.54376Q227.58177 331.16876 227.58177 332.3719Z" fill-rule="nonzero"/><path fill="#000000" d="M266.92188 335.45L266.92188 326.85626L270.17188 326.85626Q271.01562 326.85626 271.46875 326.9344Q272.10938 327.04376 272.53125 327.34064Q272.96875 327.6375 273.21875 328.16876Q273.48438 328.7 273.48438 329.34064Q273.48438 330.4344 272.78125 331.2Q272.09375 331.95 270.26562 331.95L268.0625 331.95L268.0625 335.45L266.92188 335.45ZM268.0625 330.95L270.28125 330.95Q271.39062 330.95 271.84375 330.54376Q272.3125 330.1219 272.3125 329.3719Q272.3125 328.84064 272.03125 328.46564Q271.76562 328.075 271.32812 327.95Q271.03125 327.8719 270.26562 327.8719L268.0625 327.8719L268.0625 330.95ZM278.875 335.45L278.875 334.52814Q278.14062 335.59064 276.89062 335.59064Q276.34375 335.59064 275.85938 335.3875Q275.39062 335.16876 275.15625 334.85626Q274.92188 334.52814 274.82812 334.0594Q274.76562 333.7625 274.76562 333.075L274.76562 329.23126L275.82812 329.23126L275.82812 332.6844Q275.82812 333.4969 275.89062 333.79376Q275.98438 334.2 276.29688 334.45Q276.625 334.6844 277.10938 334.6844Q277.57812 334.6844 277.98438 334.45Q278.40625 334.2 278.57812 333.77814Q278.76562 333.35626 278.76562 332.5594L278.76562 329.23126L279.8125 329.23126L279.8125 335.45L278.875 335.45ZM281.76562 335.45L281.76562 326.85626L282.82812 326.85626L282.82812 335.45L281.76562 335.45ZM284.76562 335.45L284.76562 326.85626L285.82812 326.85626L285.82812 335.45L284.76562 335.45ZM287.375 332.8719L287.375 331.8094L290.625 331.8094L290.625 332.8719L287.375 332.8719ZM295.875 335.45L295.875 334.52814Q295.14062 335.59064 293.89062 335.59064Q293.34375 335.59064 292.85938 335.3875Q292.39062 335.16876 292.15625 334.85626Q291.92188 334.52814 291.82812 334.0594Q291.76562 333.7625 291.76562 333.075L291.76562 329.23126L292.82812 329.23126L292.82812 332.6844Q292.82812 333.4969 292.89062 333.79376Q292.98438 334.2 293.29688 334.45Q293.625 334.6844 294.10938 334.6844Q294.57812 334.6844 294.98438 334.45Q295.40625 334.2 295.57812 333.77814Q295.76562 333.35626 295.76562 332.5594L295.76562 329.23126L296.8125 329.23126L296.8125 335.45L295.875 335.45ZM298.79688 337.84064L298.79688 329.23126L299.75 329.23126L299.75 330.02814Q300.09375 329.5594 300.51562 329.325Q300.95312 329.09064 301.5625 329.09064Q302.35938 329.09064 302.96875 329.4969Q303.57812 329.90314 303.875 330.65314Q304.1875 331.40314 304.1875 332.29376Q304.1875 333.2469 303.84375 334.0125Q303.51562 334.77814 302.85938 335.1844Q302.20312 335.59064 301.48438 335.59064Q300.95312 335.59064 300.53125 335.3719Q300.10938 335.1375 299.84375 334.8094L299.84375 337.84064L298.79688 337.84064ZM299.75 332.3719Q299.75 333.575 300.23438 334.15314Q300.71875 334.71564 301.40625 334.71564Q302.10938 334.71564 302.60938 334.1219Q303.10938 333.52814 303.10938 332.27814Q303.10938 331.09064 302.625 330.5125Q302.14062 329.91876 301.45312 329.91876Q300.78125 329.91876 300.26562 330.54376Q299.75 331.16876 299.75 332.3719ZM312.85938 334.6844Q312.26562 335.1844 311.71875 335.3875Q311.1875 335.59064 310.5625 335.59064Q309.53125 335.59064 308.98438 335.09064Q308.4375 334.59064 308.4375 333.8094Q308.4375 333.35626 308.64062 332.98126Q308.84375 332.59064 309.1875 332.3719Q309.53125 332.1375 309.95312 332.02814Q310.25 331.9344 310.89062 331.85626Q312.15625 331.71564 312.76562 331.4969Q312.76562 331.27814 312.76562 331.23126Q312.76562 330.575 312.46875 330.3094Q312.0625 329.96564 311.26562 329.96564Q310.53125 329.96564 310.17188 330.23126Q309.8125 330.48126 309.64062 331.1375L308.60938 330.9969Q308.75 330.34064 309.07812 329.9344Q309.40625 329.52814 310.01562 329.3094Q310.625 329.09064 311.42188 329.09064Q312.21875 329.09064 312.71875 329.27814Q313.21875 329.46564 313.45312 329.7469Q313.6875 330.02814 313.78125 330.46564Q313.82812 330.73126 313.82812 331.4344L313.82812 332.84064Q313.82812 334.3094 313.89062 334.7Q313.96875 335.09064 314.17188 335.45L313.0625 335.45Q312.90625 335.1219 312.85938 334.6844ZM312.76562 332.325Q312.1875 332.5594 311.04688 332.73126Q310.39062 332.825 310.125 332.95Q309.85938 333.0594 309.70312 333.27814Q309.5625 333.4969 309.5625 333.77814Q309.5625 334.2 309.875 334.48126Q310.20312 334.7625 310.8125 334.7625Q311.42188 334.7625 311.89062 334.4969Q312.375 334.23126 312.59375 333.7625Q312.76562 333.40314 312.76562 332.71564L312.76562 332.325ZM315.79688 335.45L315.79688 329.23126L316.73438 329.23126L316.73438 330.10626Q317.42188 329.09064 318.71875 329.09064Q319.28125 329.09064 319.75 329.29376Q320.23438 329.4969 320.46875 329.825Q320.70312 330.15314 320.79688 330.59064Q320.84375 330.8875 320.84375 331.6219L320.84375 335.45L319.79688 335.45L319.79688 331.66876Q319.79688 331.0125 319.67188 330.7Q319.54688 330.3875 319.23438 330.2Q318.92188 329.9969 318.5 329.9969Q317.82812 329.9969 317.32812 330.4344Q316.84375 330.85626 316.84375 332.04376L316.84375 335.45L315.79688 335.45ZM326.82812 335.45L326.82812 334.66876Q326.23438 335.59064 325.09375 335.59064Q324.34375 335.59064 323.71875 335.1844Q323.09375 334.7625 322.75 334.02814Q322.40625 333.29376 322.40625 332.34064Q322.40625 331.41876 322.71875 330.65314Q323.03125 329.8875 323.65625 329.4969Q324.28125 329.09064 325.04688 329.09064Q325.60938 329.09064 326.04688 329.325Q326.48438 329.5594 326.76562 329.9344L326.76562 326.85626L327.8125 326.85626L327.8125 335.45L326.82812 335.45ZM323.5 332.34064Q323.5 333.54376 324.0 334.1375Q324.5 334.71564 325.1875 334.71564Q325.875 334.71564 326.35938 334.15314Q326.84375 333.59064 326.84375 332.4344Q326.84375 331.15314 326.34375 330.5594Q325.85938 329.96564 325.14062 329.96564Q324.4375 329.96564 323.96875 330.54376Q323.5 331.10626 323.5 332.34064ZM332.76562 335.45L332.76562 326.85626L333.82812 326.85626L333.82812 335.45L332.76562 335.45ZM340.04688 333.45L341.14062 333.575Q340.89062 334.52814 340.1875 335.0594Q339.48438 335.59064 338.40625 335.59064Q337.04688 335.59064 336.23438 334.7469Q335.4375 333.90314 335.4375 332.3875Q335.4375 330.825 336.25 329.96564Q337.0625 329.09064 338.34375 329.09064Q339.59375 329.09064 340.375 329.9344Q341.17188 330.77814 341.17188 332.325Q341.17188 332.41876 341.17188 332.60626L336.53125 332.60626Q336.59375 333.6375 337.10938 334.1844Q337.625 334.71564 338.40625 334.71564Q338.98438 334.71564 339.39062 334.41876Q339.8125 334.10626 340.04688 333.45ZM336.59375 331.7469L340.0625 331.7469Q340.0 330.95 339.67188 330.5594Q339.15625 329.95 338.35938 329.95Q337.625 329.95 337.125 330.4344Q336.64062 330.91876 336.59375 331.7469ZM346.85938 334.6844Q346.26562 335.1844 345.71875 335.3875Q345.1875 335.59064 344.5625 335.59064Q343.53125 335.59064 342.98438 335.09064Q342.4375 334.59064 342.4375 333.8094Q342.4375 333.35626 342.64062 332.98126Q342.84375 332.59064 343.1875 332.3719Q343.53125 332.1375 343.95312 332.02814Q344.25 331.9344 344.89062 331.85626Q346.15625 331.71564 346.76562 331.4969Q346.76562 331.27814 346.76562 331.23126Q346.76562 330.575 346.46875 330.3094Q346.0625 329.96564 345.26562 329.96564Q344.53125 329.96564 344.17188 330.23126Q343.8125 330.48126 343.64062 331.1375L342.60938 330.9969Q342.75 330.34064 343.07812 329.9344Q343.40625 329.52814 344.01562 329.3094Q344.625 329.09064 345.42188 329.09064Q346.21875 329.09064 346.71875 329.27814Q347.21875 329.46564 347.45312 329.7469Q347.6875 330.02814 347.78125 330.46564Q347.82812 330.73126 347.82812 331.4344L347.82812 332.84064Q347.82812 334.3094 347.89062 334.7Q347.96875 335.09064 348.17188 335.45L347.0625 335.45Q346.90625 335.1219 346.85938 334.6844ZM346.76562 332.325Q346.1875 332.5594 345.04688 332.73126Q344.39062 332.825 344.125 332.95Q343.85938 333.0594 343.70312 333.27814Q343.5625 333.4969 343.5625 333.77814Q343.5625 334.2 343.875 334.48126Q344.20312 334.7625 344.8125 334.7625Q345.42188 334.7625 345.89062 334.4969Q346.375 334.23126 346.59375 333.7625Q346.76562 333.40314 346.76562 332.71564L346.76562 332.325ZM351.51562 335.45L349.15625 329.23126L350.26562 329.23126L351.60938 332.95Q351.8125 333.5594 352.0 334.2Q352.14062 333.71564 352.39062 333.02814L353.78125 329.23126L354.85938 329.23126L352.5 335.45L351.51562 335.45ZM359.04688 333.45L360.14062 333.575Q359.89062 334.52814 359.1875 335.0594Q358.48438 335.59064 357.40625 335.59064Q356.04688 335.59064 355.23438 334.7469Q354.4375 333.90314 354.4375 332.3875Q354.4375 330.825 355.25 329.96564Q356.0625 329.09064 357.34375 329.09064Q358.59375 329.09064 359.375 329.9344Q360.17188 330.77814 360.17188 332.325Q360.17188 332.41876 360.17188 332.60626L355.53125 332.60626Q355.59375 333.6375 356.10938 334.1844Q356.625 334.71564 357.40625 334.71564Q357.98438 334.71564 358.39062 334.41876Q358.8125 334.10626 359.04688 333.45ZM355.59375 331.7469L359.0625 331.7469Q359.0 330.95 358.67188 330.5594Q358.15625 329.95 357.35938 329.95Q356.625 329.95 356.125 330.4344Q355.64062 330.91876 355.59375 331.7469Z" fill-rule="nonzero"/><path fill="#000000" d="M383.0901 335.45L383.0901 326.85626L386.3401 326.85626Q387.18384 326.85626 387.63696 326.9344Q388.2776 327.04376 388.69946 327.34064Q389.13696 327.6375 389.38696 328.16876Q389.6526 328.7 389.6526 329.34064Q389.6526 330.4344 388.94946 331.2Q388.26196 331.95 386.43384 331.95L384.2307 331.95L384.2307 335.45L383.0901 335.45ZM384.2307 330.95L386.44946 330.95Q387.55884 330.95 388.01196 330.54376Q388.4807 330.1219 388.4807 329.3719Q388.4807 328.84064 388.19946 328.46564Q387.93384 328.075 387.49634 327.95Q387.19946 327.8719 386.43384 327.8719L384.2307 327.8719L384.2307 330.95ZM395.0432 335.45L395.0432 334.52814Q394.30884 335.59064 393.05884 335.59064Q392.51196 335.59064 392.0276 335.3875Q391.55884 335.16876 391.32446 334.85626Q391.0901 334.52814 390.99634 334.0594Q390.93384 333.7625 390.93384 333.075L390.93384 329.23126L391.99634 329.23126L391.99634 332.6844Q391.99634 333.4969 392.05884 333.79376Q392.1526 334.2 392.4651 334.45Q392.7932 334.6844 393.2776 334.6844Q393.74634 334.6844 394.1526 334.45Q394.57446 334.2 394.74634 333.77814Q394.93384 333.35626 394.93384 332.5594L394.93384 329.23126L395.9807 329.23126L395.9807 335.45L395.0432 335.45ZM397.93384 335.45L397.93384 326.85626L398.99634 326.85626L398.99634 335.45L397.93384 335.45ZM400.93384 335.45L400.93384 326.85626L401.99634 326.85626L401.99634 335.45L400.93384 335.45ZM403.5432 332.8719L403.5432 331.8094L406.7932 331.8094L406.7932 332.8719L403.5432 332.8719ZM412.0432 335.45L412.0432 334.52814Q411.30884 335.59064 410.05884 335.59064Q409.51196 335.59064 409.0276 335.3875Q408.55884 335.16876 408.32446 334.85626Q408.0901 334.52814 407.99634 334.0594Q407.93384 333.7625 407.93384 333.075L407.93384 329.23126L408.99634 329.23126L408.99634 332.6844Q408.99634 333.4969 409.05884 333.79376Q409.1526 334.2 409.4651 334.45Q409.7932 334.6844 410.2776 334.6844Q410.74634 334.6844 411.1526 334.45Q411.57446 334.2 411.74634 333.77814Q411.93384 333.35626 411.93384 332.5594L411.93384 329.23126L412.9807 329.23126L412.9807 335.45L412.0432 335.45ZM414.9651 337.84064L414.9651 329.23126L415.9182 329.23126L415.9182 330.02814Q416.26196 329.5594 416.68384 329.325Q417.12134 329.09064 417.7307 329.09064Q418.5276 329.09064 419.13696 329.4969Q419.74634 329.90314 420.0432 330.65314Q420.3557 331.40314 420.3557 332.29376Q420.3557 333.2469 420.01196 334.0125Q419.68384 334.77814 419.0276 335.1844Q418.37134 335.59064 417.6526 335.59064Q417.12134 335.59064 416.69946 335.3719Q416.2776 335.1375 416.01196 334.8094L416.01196 337.84064L414.9651 337.84064ZM415.9182 332.3719Q415.9182 333.575 416.4026 334.15314Q416.88696 334.71564 417.57446 334.71564Q418.2776 334.71564 418.7776 334.1219Q419.2776 333.52814 419.2776 332.27814Q419.2776 331.09064 418.7932 330.5125Q418.30884 329.91876 417.62134 329.91876Q416.94946 329.91876 416.43384 330.54376Q415.9182 331.16876 415.9182 332.3719ZM429.0276 334.6844Q428.43384 335.1844 427.88696 335.3875Q427.3557 335.59064 426.7307 335.59064Q425.69946 335.59064 425.1526 335.09064Q424.6057 334.59064 424.6057 333.8094Q424.6057 333.35626 424.80884 332.98126Q425.01196 332.59064 425.3557 332.3719Q425.69946 332.1375 426.12134 332.02814Q426.4182 331.9344 427.05884 331.85626Q428.32446 331.71564 428.93384 331.4969Q428.93384 331.27814 428.93384 331.23126Q428.93384 330.575 428.63696 330.3094Q428.2307 329.96564 427.43384 329.96564Q426.69946 329.96564 426.3401 330.23126Q425.9807 330.48126 425.80884 331.1375L424.7776 330.9969Q424.9182 330.34064 425.24634 329.9344Q425.57446 329.52814 426.18384 329.3094Q426.7932 329.09064 427.5901 329.09064Q428.38696 329.09064 428.88696 329.27814Q429.38696 329.46564 429.62134 329.7469Q429.8557 330.02814 429.94946 330.46564Q429.99634 330.73126 429.99634 331.4344L429.99634 332.84064Q429.99634 334.3094 430.05884 334.7Q430.13696 335.09064 430.3401 335.45L429.2307 335.45Q429.07446 335.1219 429.0276 334.6844ZM428.93384 332.325Q428.3557 332.5594 427.2151 332.73126Q426.55884 332.825 426.2932 332.95Q426.0276 333.0594 425.87134 333.27814Q425.7307 333.4969 425.7307 333.77814Q425.7307 334.2 426.0432 334.48126Q426.37134 334.7625 426.9807 334.7625Q427.5901 334.7625 428.05884 334.4969Q428.5432 334.23126 428.76196 333.7625Q428.93384 333.40314 428.93384 332.71564L428.93384 332.325ZM431.9651 335.45L431.9651 329.23126L432.9026 329.23126L432.9026 330.10626Q433.5901 329.09064 434.88696 329.09064Q435.44946 329.09064 435.9182 329.29376Q436.4026 329.4969 436.63696 329.825Q436.87134 330.15314 436.9651 330.59064Q437.01196 330.8875 437.01196 331.6219L437.01196 335.45L435.9651 335.45L435.9651 331.66876Q435.9651 331.0125 435.8401 330.7Q435.7151 330.3875 435.4026 330.2Q435.0901 329.9969 434.6682 329.9969Q433.99634 329.9969 433.49634 330.4344Q433.01196 330.85626 433.01196 332.04376L433.01196 335.45L431.9651 335.45ZM442.99634 335.45L442.99634 334.66876Q442.4026 335.59064 441.26196 335.59064Q440.51196 335.59064 439.88696 335.1844Q439.26196 334.7625 438.9182 334.02814Q438.57446 333.29376 438.57446 332.34064Q438.57446 331.41876 438.88696 330.65314Q439.19946 329.8875 439.82446 329.4969Q440.44946 329.09064 441.2151 329.09064Q441.7776 329.09064 442.2151 329.325Q442.6526 329.5594 442.93384 329.9344L442.93384 326.85626L443.9807 326.85626L443.9807 335.45L442.99634 335.45ZM439.6682 332.34064Q439.6682 333.54376 440.1682 334.1375Q440.6682 334.71564 441.3557 334.71564Q442.0432 334.71564 442.5276 334.15314Q443.01196 333.59064 443.01196 332.4344Q443.01196 331.15314 442.51196 330.5594Q442.0276 329.96564 441.30884 329.96564Q440.6057 329.96564 440.13696 330.54376Q439.6682 331.10626 439.6682 332.34064Z" fill-rule="nonzero"/><path fill="#000000" d="M389.5432 347.59064L390.57446 347.4344Q390.6682 348.0594 391.05884 348.3875Q391.4651 348.71564 392.19946 348.71564Q392.9182 348.71564 393.26196 348.4344Q393.62134 348.1375 393.62134 347.73126Q393.62134 347.3719 393.30884 347.16876Q393.0901 347.02814 392.2307 346.8094Q391.07446 346.5125 390.62134 346.3094Q390.18384 346.09064 389.94946 345.71564Q389.7151 345.34064 389.7151 344.8719Q389.7151 344.46564 389.9026 344.10626Q390.0901 343.7469 390.4182 343.5125Q390.6682 343.34064 391.0901 343.21564Q391.51196 343.09064 392.01196 343.09064Q392.7307 343.09064 393.2776 343.3094Q393.8401 343.5125 394.1057 343.8719Q394.37134 344.23126 394.4651 344.825L393.43384 344.96564Q393.37134 344.4969 393.0276 344.23126Q392.69946 343.95 392.07446 343.95Q391.3557 343.95 391.0432 344.2Q390.7307 344.4344 390.7307 344.7625Q390.7307 344.96564 390.8557 345.1219Q390.99634 345.29376 391.26196 345.40314Q391.4182 345.46564 392.19946 345.66876Q393.32446 345.98126 393.76196 346.16876Q394.19946 346.35626 394.44946 346.71564Q394.69946 347.075 394.69946 347.6219Q394.69946 348.15314 394.38696 348.6219Q394.0901 349.075 393.51196 349.34064Q392.93384 349.59064 392.19946 349.59064Q390.9807 349.59064 390.3401 349.09064Q389.7151 348.575 389.5432 347.59064ZM401.0432 349.45L401.0432 348.52814Q400.30884 349.59064 399.05884 349.59064Q398.51196 349.59064 398.0276 349.3875Q397.55884 349.16876 397.32446 348.85626Q397.0901 348.52814 396.99634 348.0594Q396.93384 347.7625 396.93384 347.075L396.93384 343.23126L397.99634 343.23126L397.99634 346.6844Q397.99634 347.4969 398.05884 347.79376Q398.1526 348.2 398.4651 348.45Q398.7932 348.6844 399.2776 348.6844Q399.74634 348.6844 400.1526 348.45Q400.57446 348.2 400.74634 347.77814Q400.93384 347.35626 400.93384 346.5594L400.93384 343.23126L401.9807 343.23126L401.9807 349.45L401.0432 349.45ZM403.5432 347.59064L404.57446 347.4344Q404.6682 348.0594 405.05884 348.3875Q405.4651 348.71564 406.19946 348.71564Q406.9182 348.71564 407.26196 348.4344Q407.62134 348.1375 407.62134 347.73126Q407.62134 347.3719 407.30884 347.16876Q407.0901 347.02814 406.2307 346.8094Q405.07446 346.5125 404.62134 346.3094Q404.18384 346.09064 403.94946 345.71564Q403.7151 345.34064 403.7151 344.8719Q403.7151 344.46564 403.9026 344.10626Q404.0901 343.7469 404.4182 343.5125Q404.6682 343.34064 405.0901 343.21564Q405.51196 343.09064 406.01196 343.09064Q406.7307 343.09064 407.2776 343.3094Q407.8401 343.5125 408.1057 343.8719Q408.37134 344.23126 408.4651 344.825L407.43384 344.96564Q407.37134 344.4969 407.0276 344.23126Q406.69946 343.95 406.07446 343.95Q405.3557 343.95 405.0432 344.2Q404.7307 344.4344 404.7307 344.7625Q404.7307 344.96564 404.8557 345.1219Q404.99634 345.29376 405.26196 345.40314Q405.4182 345.46564 406.19946 345.66876Q407.32446 345.98126 407.76196 346.16876Q408.19946 346.35626 408.44946 346.71564Q408.69946 347.075 408.69946 347.6219Q408.69946 348.15314 408.38696 348.6219Q408.0901 349.075 407.51196 349.34064Q406.93384 349.59064 406.19946 349.59064Q404.9807 349.59064 404.3401 349.09064Q403.7151 348.575 403.5432 347.59064ZM410.9651 351.84064L410.9651 343.23126L411.9182 343.23126L411.9182 344.02814Q412.26196 343.5594 412.68384 343.325Q413.12134 343.09064 413.7307 343.09064Q414.5276 343.09064 415.13696 343.4969Q415.74634 343.90314 416.0432 344.65314Q416.3557 345.40314 416.3557 346.29376Q416.3557 347.2469 416.01196 348.0125Q415.68384 348.77814 415.0276 349.1844Q414.37134 349.59064 413.6526 349.59064Q413.12134 349.59064 412.69946 349.3719Q412.2776 349.1375 412.01196 348.8094L412.01196 351.84064L410.9651 351.84064ZM411.9182 346.3719Q411.9182 347.575 412.4026 348.15314Q412.88696 348.71564 413.57446 348.71564Q414.2776 348.71564 414.7776 348.1219Q415.2776 347.52814 415.2776 346.27814Q415.2776 345.09064 414.7932 344.5125Q414.30884 343.91876 413.62134 343.91876Q412.94946 343.91876 412.43384 344.54376Q411.9182 345.16876 411.9182 346.3719ZM422.2151 347.45L423.30884 347.575Q423.05884 348.52814 422.3557 349.0594Q421.6526 349.59064 420.57446 349.59064Q419.2151 349.59064 418.4026 348.7469Q417.6057 347.90314 417.6057 346.3875Q417.6057 344.825 418.4182 343.96564Q419.2307 343.09064 420.51196 343.09064Q421.76196 343.09064 422.5432 343.9344Q423.3401 344.77814 423.3401 346.325Q423.3401 346.41876 423.3401 346.60626L418.69946 346.60626Q418.76196 347.6375 419.2776 348.1844Q419.7932 348.71564 420.57446 348.71564Q421.1526 348.71564 421.55884 348.41876Q421.9807 348.10626 422.2151 347.45ZM418.76196 345.7469L422.2307 345.7469Q422.1682 344.95 421.8401 344.5594Q421.32446 343.95 420.5276 343.95Q419.7932 343.95 419.2932 344.4344Q418.80884 344.91876 418.76196 345.7469ZM424.9651 349.45L424.9651 343.23126L425.9026 343.23126L425.9026 344.10626Q426.5901 343.09064 427.88696 343.09064Q428.44946 343.09064 428.9182 343.29376Q429.4026 343.4969 429.63696 343.825Q429.87134 344.15314 429.9651 344.59064Q430.01196 344.8875 430.01196 345.6219L430.01196 349.45L428.9651 349.45L428.9651 345.66876Q428.9651 345.0125 428.8401 344.7Q428.7151 344.3875 428.4026 344.2Q428.0901 343.9969 427.6682 343.9969Q426.99634 343.9969 426.49634 344.4344Q426.01196 344.85626 426.01196 346.04376L426.01196 349.45L424.9651 349.45ZM435.99634 349.45L435.99634 348.66876Q435.4026 349.59064 434.26196 349.59064Q433.51196 349.59064 432.88696 349.1844Q432.26196 348.7625 431.9182 348.02814Q431.57446 347.29376 431.57446 346.34064Q431.57446 345.41876 431.88696 344.65314Q432.19946 343.8875 432.82446 343.4969Q433.44946 343.09064 434.2151 343.09064Q434.7776 343.09064 435.2151 343.325Q435.6526 343.5594 435.93384 343.9344L435.93384 340.85626L436.9807 340.85626L436.9807 349.45L435.99634 349.45ZM432.6682 346.34064Q432.6682 347.54376 433.1682 348.1375Q433.6682 348.71564 434.3557 348.71564Q435.0432 348.71564 435.5276 348.15314Q436.01196 347.59064 436.01196 346.4344Q436.01196 345.15314 435.51196 344.5594Q435.0276 343.96564 434.30884 343.96564Q433.6057 343.96564 433.13696 344.54376Q432.6682 345.10626 432.6682 346.34064Z" fill-rule="nonzero"/><path fill="#000000" d="M476.25833 335.45L476.25833 326.85626L479.50833 326.85626Q480.35208 326.85626 480.8052 326.9344Q481.44583 327.04376 481.8677 327.34064Q482.3052 327.6375 482.5552 328.16876Q482.82083 328.7 482.82083 329.34064Q482.82083 330.4344 482.1177 331.2Q481.4302 331.95 479.60208 331.95L477.39896 331.95L477.39896 335.45L476.25833 335.45ZM477.39896 330.95L479.6177 330.95Q480.72708 330.95 481.1802 330.54376Q481.64896 330.1219 481.64896 329.3719Q481.64896 328.84064 481.3677 328.46564Q481.10208 328.075 480.66458 327.95Q480.3677 327.8719 479.60208 327.8719L477.39896 327.8719L477.39896 330.95ZM488.21146 335.45L488.21146 334.52814Q487.47708 335.59064 486.22708 335.59064Q485.6802 335.59064 485.19583 335.3875Q484.72708 335.16876 484.4927 334.85626Q484.25833 334.52814 484.16458 334.0594Q484.10208 333.7625 484.10208 333.075L484.10208 329.23126L485.16458 329.23126L485.16458 332.6844Q485.16458 333.4969 485.22708 333.79376Q485.32083 334.2 485.63333 334.45Q485.96146 334.6844 486.44583 334.6844Q486.91458 334.6844 487.32083 334.45Q487.7427 334.2 487.91458 333.77814Q488.10208 333.35626 488.10208 332.5594L488.10208 329.23126L489.14896 329.23126L489.14896 335.45L488.21146 335.45ZM491.10208 335.45L491.10208 326.85626L492.16458 326.85626L492.16458 335.45L491.10208 335.45ZM494.10208 335.45L494.10208 326.85626L495.16458 326.85626L495.16458 335.45L494.10208 335.45ZM496.71146 332.8719L496.71146 331.8094L499.96146 331.8094L499.96146 332.8719L496.71146 332.8719ZM505.21146 335.45L505.21146 334.52814Q504.47708 335.59064 503.22708 335.59064Q502.6802 335.59064 502.19583 335.3875Q501.72708 335.16876 501.4927 334.85626Q501.25833 334.52814 501.16458 334.0594Q501.10208 333.7625 501.10208 333.075L501.10208 329.23126L502.16458 329.23126L502.16458 332.6844Q502.16458 333.4969 502.22708 333.79376Q502.32083 334.2 502.63333 334.45Q502.96146 334.6844 503.44583 334.6844Q503.91458 334.6844 504.32083 334.45Q504.7427 334.2 504.91458 333.77814Q505.10208 333.35626 505.10208 332.5594L505.10208 329.23126L506.14896 329.23126L506.14896 335.45L505.21146 335.45ZM508.13333 337.84064L508.13333 329.23126L509.08646 329.23126L509.08646 330.02814Q509.4302 329.5594 509.85208 329.325Q510.28958 329.09064 510.89896 329.09064Q511.69583 329.09064 512.3052 329.4969Q512.91455 329.90314 513.2114 330.65314Q513.5239 331.40314 513.5239 332.29376Q513.5239 333.2469 513.1802 334.0125Q512.85205 334.77814 512.1958 335.1844Q511.53958 335.59064 510.82083 335.59064Q510.28958 335.59064 509.8677 335.3719Q509.44583 335.1375 509.1802 334.8094L509.1802 337.84064L508.13333 337.84064ZM509.08646 332.3719Q509.08646 333.575 509.57083 334.15314Q510.0552 334.71564 510.7427 334.71564Q511.44583 334.71564 511.94583 334.1219Q512.4458 333.52814 512.4458 332.27814Q512.4458 331.09064 511.96146 330.5125Q511.47708 329.91876 510.78958 329.91876Q510.1177 329.91876 509.60208 330.54376Q509.08646 331.16876 509.08646 332.3719ZM515.3989 335.45L515.3989 334.2469L516.60205 334.2469L516.60205 335.45Q516.60205 336.10626 516.3677 336.5125Q516.1333 336.9344 515.6333 337.15314L515.3364 336.7Q515.66455 336.5594 515.8208 336.2625Q515.97705 335.98126 516.0083 335.45L515.3989 335.45ZM521.10205 335.45L521.10205 326.85626L522.16455 326.85626L522.16455 335.45L521.10205 335.45ZM528.3833 333.45L529.47705 333.575Q529.22705 334.52814 528.5239 335.0594Q527.8208 335.59064 526.7427 335.59064Q525.3833 335.59064 524.5708 334.7469Q523.7739 333.90314 523.7739 332.3875Q523.7739 330.825 524.5864 329.96564Q525.3989 329.09064 526.6802 329.09064Q527.9302 329.09064 528.7114 329.9344Q529.5083 330.77814 529.5083 332.325Q529.5083 332.41876 529.5083 332.60626L524.8677 332.60626Q524.9302 333.6375 525.4458 334.1844Q525.9614 334.71564 526.7427 334.71564Q527.3208 334.71564 527.72705 334.41876Q528.1489 334.10626 528.3833 333.45ZM524.9302 331.7469L528.3989 331.7469Q528.3364 330.95 528.0083 330.5594Q527.4927 329.95 526.6958 329.95Q525.9614 329.95 525.4614 330.4344Q524.97705 330.91876 524.9302 331.7469ZM535.1958 334.6844Q534.60205 335.1844 534.0552 335.3875Q533.5239 335.59064 532.8989 335.59064Q531.8677 335.59064 531.3208 335.09064Q530.7739 334.59064 530.7739 333.8094Q530.7739 333.35626 530.97705 332.98126Q531.1802 332.59064 531.5239 332.3719Q531.8677 332.1375 532.28955 332.02814Q532.5864 331.9344 533.22705 331.85626Q534.4927 331.71564 535.10205 331.4969Q535.10205 331.27814 535.10205 331.23126Q535.10205 330.575 534.8052 330.3094Q534.3989 329.96564 533.60205 329.96564Q532.8677 329.96564 532.5083 330.23126Q532.1489 330.48126 531.97705 331.1375L530.9458 330.9969Q531.0864 330.34064 531.41455 329.9344Q531.7427 329.52814 532.35205 329.3094Q532.9614 329.09064 533.7583 329.09064Q534.5552 329.09064 535.0552 329.27814Q535.5552 329.46564 535.78955 329.7469Q536.0239 330.02814 536.1177 330.46564Q536.16455 330.73126 536.16455 331.4344L536.16455 332.84064Q536.16455 334.3094 536.22705 334.7Q536.3052 335.09064 536.5083 335.45L535.3989 335.45Q535.2427 335.1219 535.1958 334.6844ZM535.10205 332.325Q534.5239 332.5594 533.3833 332.73126Q532.72705 332.825 532.4614 332.95Q532.1958 333.0594 532.03955 333.27814Q531.8989 333.4969 531.8989 333.77814Q531.8989 334.2 532.2114 334.48126Q532.53955 334.7625 533.1489 334.7625Q533.7583 334.7625 534.22705 334.4969Q534.7114 334.23126 534.9302 333.7625Q535.10205 333.40314 535.10205 332.71564L535.10205 332.325ZM539.85205 335.45L537.4927 329.23126L538.60205 329.23126L539.9458 332.95Q540.1489 333.5594 540.3364 334.2Q540.47705 333.71564 540.72705 333.02814L542.1177 329.23126L543.1958 329.23126L540.8364 335.45L539.85205 335.45ZM547.3833 333.45L548.47705 333.575Q548.22705 334.52814 547.5239 335.0594Q546.8208 335.59064 545.7427 335.59064Q544.3833 335.59064 543.5708 334.7469Q542.7739 333.90314 542.7739 332.3875Q542.7739 330.825 543.5864 329.96564Q544.3989 329.09064 545.6802 329.09064Q546.9302 329.09064 547.7114 329.9344Q548.5083 330.77814 548.5083 332.325Q548.5083 332.41876 548.5083 332.60626L543.8677 332.60626Q543.9302 333.6375 544.4458 334.1844Q544.9614 334.71564 545.7427 334.71564Q546.3208 334.71564 546.72705 334.41876Q547.1489 334.10626 547.3833 333.45ZM543.9302 331.7469L547.3989 331.7469Q547.3364 330.95 547.0083 330.5594Q546.4927 329.95 545.6958 329.95Q544.9614 329.95 544.4614 330.4344Q543.97705 330.91876 543.9302 331.7469ZM550.3989 335.45L550.3989 334.2469L551.60205 334.2469L551.60205 335.45Q551.60205 336.10626 551.3677 336.5125Q551.1333 336.9344 550.6333 337.15314L550.3364 336.7Q550.66455 336.5594 550.8208 336.2625Q550.97705 335.98126 551.0083 335.45L550.3989 335.45Z" fill-rule="nonzero"/><path fill="#000000" d="M487.19583 348.6844Q486.60208 349.1844 486.0552 349.3875Q485.52396 349.59064 484.89896 349.59064Q483.8677 349.59064 483.32083 349.09064Q482.77396 348.59064 482.77396 347.8094Q482.77396 347.35626 482.97708 346.98126Q483.1802 346.59064 483.52396 346.3719Q483.8677 346.1375 484.28958 346.02814Q484.58646 345.9344 485.22708 345.85626Q486.4927 345.71564 487.10208 345.4969Q487.10208 345.27814 487.10208 345.23126Q487.10208 344.575 486.8052 344.3094Q486.39896 343.96564 485.60208 343.96564Q484.8677 343.96564 484.50833 344.23126Q484.14896 344.48126 483.97708 345.1375L482.94583 344.9969Q483.08646 344.34064 483.41458 343.9344Q483.7427 343.52814 484.35208 343.3094Q484.96146 343.09064 485.75833 343.09064Q486.5552 343.09064 487.0552 343.27814Q487.5552 343.46564 487.78958 343.7469Q488.02396 344.02814 488.1177 344.46564Q488.16458 344.73126 488.16458 345.4344L488.16458 346.84064Q488.16458 348.3094 488.22708 348.7Q488.3052 349.09064 488.50833 349.45L487.39896 349.45Q487.2427 349.1219 487.19583 348.6844ZM487.10208 346.325Q486.52396 346.5594 485.38333 346.73126Q484.72708 346.825 484.46146 346.95Q484.19583 347.0594 484.03958 347.27814Q483.89896 347.4969 483.89896 347.77814Q483.89896 348.2 484.21146 348.48126Q484.53958 348.7625 485.14896 348.7625Q485.75833 348.7625 486.22708 348.4969Q486.71146 348.23126 486.9302 347.7625Q487.10208 347.40314 487.10208 346.71564L487.10208 346.325ZM490.13333 349.45L490.13333 343.23126L491.07083 343.23126L491.07083 344.10626Q491.75833 343.09064 493.0552 343.09064Q493.6177 343.09064 494.08646 343.29376Q494.57083 343.4969 494.8052 343.825Q495.03958 344.15314 495.13333 344.59064Q495.1802 344.8875 495.1802 345.6219L495.1802 349.45L494.13333 349.45L494.13333 345.66876Q494.13333 345.0125 494.00833 344.7Q493.88333 344.3875 493.57083 344.2Q493.25833 343.9969 492.83646 343.9969Q492.16458 343.9969 491.66458 344.4344Q491.1802 344.85626 491.1802 346.04376L491.1802 349.45L490.13333 349.45ZM501.16458 349.45L501.16458 348.66876Q500.57083 349.59064 499.4302 349.59064Q498.6802 349.59064 498.0552 349.1844Q497.4302 348.7625 497.08646 348.02814Q496.7427 347.29376 496.7427 346.34064Q496.7427 345.41876 497.0552 344.65314Q497.3677 343.8875 497.9927 343.4969Q498.6177 343.09064 499.38333 343.09064Q499.94583 343.09064 500.38333 343.325Q500.82083 343.5594 501.10208 343.9344L501.10208 340.85626L502.14896 340.85626L502.14896 349.45L501.16458 349.45ZM497.83646 346.34064Q497.83646 347.54376 498.33646 348.1375Q498.83646 348.71564 499.52396 348.71564Q500.21146 348.71564 500.69583 348.15314Q501.1802 347.59064 501.1802 346.4344Q501.1802 345.15314 500.6802 344.5594Q500.19583 343.96564 499.47708 343.96564Q498.77396 343.96564 498.3052 344.54376Q497.83646 345.10626 497.83646 346.34064ZM507.13333 349.45L507.13333 343.23126L508.07083 343.23126L508.07083 344.10626Q508.75833 343.09064 510.0552 343.09064Q510.6177 343.09064 511.08646 343.29376Q511.57083 343.4969 511.8052 343.825Q512.03955 344.15314 512.1333 344.59064Q512.1802 344.8875 512.1802 345.6219L512.1802 349.45L511.13333 349.45L511.13333 345.66876Q511.13333 345.0125 511.00833 344.7Q510.88333 344.3875 510.57083 344.2Q510.25833 343.9969 509.83646 343.9969Q509.16458 343.9969 508.66458 344.4344Q508.1802 344.85626 508.1802 346.04376L508.1802 349.45L507.13333 349.45ZM513.7427 346.34064Q513.7427 344.60626 514.6958 343.77814Q515.4927 343.09064 516.6489 343.09064Q517.9302 343.09064 518.7427 343.9344Q519.5708 344.7625 519.5708 346.2469Q519.5708 347.45 519.2114 348.1375Q518.85205 348.825 518.1489 349.21564Q517.4614 349.59064 516.6489 349.59064Q515.35205 349.59064 514.53955 348.7625Q513.7427 347.91876 513.7427 346.34064ZM514.8208 346.34064Q514.8208 347.52814 515.3364 348.1219Q515.8677 348.71564 516.6489 348.71564Q517.4458 348.71564 517.9614 348.1219Q518.47705 347.52814 518.47705 346.3094Q518.47705 345.15314 517.9458 344.5594Q517.4302 343.96564 516.6489 343.96564Q515.8677 343.96564 515.3364 344.5594Q514.8208 345.1375 514.8208 346.34064ZM525.2739 349.45L523.3677 343.23126L524.4614 343.23126L525.4458 346.825L525.8208 348.15314Q525.85205 348.0594 526.1489 346.8719L527.1333 343.23126L528.2114 343.23126L529.1489 346.84064L529.4614 348.02814L529.8208 346.825L530.8833 343.23126L531.91455 343.23126L529.9614 349.45L528.8677 349.45L527.8833 345.71564L527.6333 344.66876L526.3833 349.45L525.2739 349.45ZM537.1958 348.6844Q536.60205 349.1844 536.0552 349.3875Q535.5239 349.59064 534.8989 349.59064Q533.8677 349.59064 533.3208 349.09064Q532.7739 348.59064 532.7739 347.8094Q532.7739 347.35626 532.97705 346.98126Q533.1802 346.59064 533.5239 346.3719Q533.8677 346.1375 534.28955 346.02814Q534.5864 345.9344 535.22705 345.85626Q536.4927 345.71564 537.10205 345.4969Q537.10205 345.27814 537.10205 345.23126Q537.10205 344.575 536.8052 344.3094Q536.3989 343.96564 535.60205 343.96564Q534.8677 343.96564 534.5083 344.23126Q534.1489 344.48126 533.97705 345.1375L532.9458 344.9969Q533.0864 344.34064 533.41455 343.9344Q533.7427 343.52814 534.35205 343.3094Q534.9614 343.09064 535.7583 343.09064Q536.5552 343.09064 537.0552 343.27814Q537.5552 343.46564 537.78955 343.7469Q538.0239 344.02814 538.1177 344.46564Q538.16455 344.73126 538.16455 345.4344L538.16455 346.84064Q538.16455 348.3094 538.22705 348.7Q538.3052 349.09064 538.5083 349.45L537.3989 349.45Q537.2427 349.1219 537.1958 348.6844ZM537.10205 346.325Q536.5239 346.5594 535.3833 346.73126Q534.72705 346.825 534.4614 346.95Q534.1958 347.0594 534.03955 347.27814Q533.8989 347.4969 533.8989 347.77814Q533.8989 348.2 534.2114 348.48126Q534.53955 348.7625 535.1489 348.7625Q535.7583 348.7625 536.22705 348.4969Q536.7114 348.23126 536.9302 347.7625Q537.10205 347.40314 537.10205 346.71564L537.10205 346.325ZM540.1333 342.075L540.1333 340.85626L541.1958 340.85626L541.1958 342.075L540.1333 342.075ZM540.1333 349.45L540.1333 343.23126L541.1958 343.23126L541.1958 349.45L540.1333 349.45ZM545.4302 348.5125L545.5864 349.4344Q545.1333 349.52814 544.78955 349.52814Q544.2114 349.52814 543.8989 349.35626Q543.5864 349.16876 543.4458 348.8719Q543.3208 348.575 543.3208 347.6219L543.3208 344.04376L542.5552 344.04376L542.5552 343.23126L543.3208 343.23126L543.3208 341.6844L544.3677 341.0594L544.3677 343.23126L545.4302 343.23126L545.4302 344.04376L544.3677 344.04376L544.3677 347.6844Q544.3677 348.1375 544.41455 348.2625Q544.47705 348.3875 544.60205 348.46564Q544.72705 348.54376 544.9614 348.54376Q545.1489 348.54376 545.4302 348.5125Z" fill-rule="nonzero"/></svg>