<svg version="1.1" viewBox="0.0 0.0 600.0 371.0" fill="none" stroke="none" stroke-linecap="square" stroke-miterlimit="10" width="600" height="371" xmlns:xlink="http://www.w3.org/1999/xlink" xmlns="http://www.w3.org/2000/svg"><path fill="#ffffff" d="M0 0L600.0 0L600.0 371.0L0 371.0L0 0Z" fill-rule="nonzero"/><path stroke="#333333" stroke-width="1.0" stroke-linecap="butt" d="M45.5 332.5L581.5 332.5" fill-rule="nonzero"/><path stroke="#cccccc" stroke-width="1.0" stroke-linecap="butt" d="M45.5 271.5L581.5 271.5" fill-rule="nonzero"/><path stroke="#cccccc" stroke-width="1.0" stroke-linecap="butt" d="M45.5 209.5L581.5 209.5" fill-rule="nonzero"/><path stroke="#cccccc" stroke-width="1.0" stroke-linecap="butt" d="M45.5 148.5L581.5 148.5" fill-rule="nonzero"/><path stroke="#cccccc" stroke-width="1.0" stroke-linecap="butt" d="M45.5 86.5L581.5 86.5" fill-rule="nonzero"/><path stroke="#cccccc" stroke-width="1.0" stroke-linecap="butt" d="M45.5 25.5L581.5 25.5" fill-rule="nonzero"/><clipPath id="id_0"><path d="M45.55 25.55L581.45 25.55L581.45 332.45L45.55 332.45L45.55 25.55Z" clip-rule="nonzero"/></clipPath><path stroke="#000000" stroke-width="2.0" stroke-linecap="butt" stroke-opacity="0.0" clip-path="url(#id_0)" d="M169.0 332.0L89.0 332.0L89.0 87.0C89.0 85.89543 89.89543 85.0 91.0 85.0L167.0 85.0C168.10457 85.0 169.0 85.89543 169.0 87.0Z" fill-rule="nonzero"/><path fill="#4285f4" clip-path="url(#id_0)" d="M169.0 332.0L89.0 332.0L89.0 87.0C89.0 85.89543 89.89543 85.0 91.0 85.0L167.0 85.0C168.10457 85.0 169.0 85.89543 169.0 87.0Z" fill-rule="nonzero"/><path stroke="#000000" stroke-width="2.0" stroke-linecap="butt" stroke-opacity="0.0" clip-path="url(#id_0)" d="M292.0 332.0L212.0 332.0L212.0 57.0C212.0 55.89543 212.89543 55.0 214.0 55.0L290.0 55.0C291.10458 55.0 292.0 55.89543 292.0 57.0Z" fill-rule="nonzero"/><path fill="#4285f4" clip-path="url(#id_0)" d="M292.0 332.0L212.0 332.0L212.0 57.0C212.0 55.89543 212.89543 55.0 214.0 55.0L290.0 55.0C291.10458 55.0 292.0 55.89543 292.0 57.0Z" fill-rule="nonzero"/><path stroke="#000000" stroke-width="2.0" stroke-linecap="butt" stroke-opacity="0.0" clip-path="url(#id_0)" d="M415.0 332.0L335.0 332.0L335.0 136.0C335.0 134.89543 335.89542 134.0 337.0 134.0L413.0 134.0C414.10458 134.0 415.0 134.89543 415.0 136.0Z" fill-rule="nonzero"/><path fill="#4285f4" clip-path="url(#id_0)" d="M415.0 332.0L335.0 332.0L335.0 136.0C335.0 134.89543 335.89542 134.0 337.0 134.0L413.0 134.0C414.10458 134.0 415.0 134.89543 415.0 136.0Z" fill-rule="nonzero"/><path stroke="#000000" stroke-width="2.0" stroke-linecap="butt" stroke-opacity="0.0" clip-path="url(#id_0)" d="M538.0 332.0L458.0 332.0L458.0 133.0C458.0 131.89543 458.89542 131.0 460.0 131.0L536.0 131.0C537.10455 131.0 538.0 131.89543 538.0 133.0Z" fill-rule="nonzero"/><path fill="#4285f4" clip-path="url(#id_0)" d="M538.0 332.0L458.0 332.0L458.0 133.0C458.0 131.89543 458.89542 131.0 460.0 131.0L536.0 131.0C537.10455 131.0 538.0 131.89543 538.0 133.0Z" fill-rule="nonzero"/><path fill="#000000" d="M23.05 332.21564Q23.05 330.6844 23.3625 329.7625Q23.675 328.825 24.284374 328.325Q24.909374 327.825 25.846874 327.825Q26.534374 327.825 27.05 328.10626Q27.58125 328.3875 27.925 328.91876Q28.26875 329.4344 28.45625 330.1844Q28.64375 330.9344 28.64375 332.21564Q28.64375 333.73126 28.33125 334.65314Q28.034374 335.575 27.409374 336.09064Q26.8 336.59064 25.846874 336.59064Q24.6125 336.59064 23.89375 335.7Q23.05 334.6375 23.05 332.21564ZM24.128124 332.21564Q24.128124 334.325 24.628124 335.02814Q25.128124 335.73126 25.846874 335.73126Q26.58125 335.73126 27.065624 335.02814Q27.565624 334.325 27.565624 332.21564Q27.565624 330.09064 27.065624 329.40314Q26.58125 328.7 25.83125 328.7Q25.1125 328.7 24.675 329.3094Q24.128124 330.09064 24.128124 332.21564ZM30.64375 336.45L30.64375 335.2469L31.846874 335.2469L31.846874 336.45L30.64375 336.45ZM33.05 332.21564Q33.05 330.6844 33.3625 329.7625Q33.675 328.825 34.284374 328.325Q34.909374 327.825 35.846874 327.825Q36.534374 327.825 37.05 328.10626Q37.58125 328.3875 37.925 328.91876Q38.26875 329.4344 38.45625 330.1844Q38.64375 330.9344 38.64375 332.21564Q38.64375 333.73126 38.33125 334.65314Q38.034374 335.575 37.409374 336.09064Q36.8 336.59064 35.846874 336.59064Q34.6125 336.59064 33.89375 335.7Q33.05 334.6375 33.05 332.21564ZM34.128124 332.21564Q34.128124 334.325 34.628124 335.02814Q35.128124 335.73126 35.846874 335.73126Q36.58125 335.73126 37.065624 335.02814Q37.565624 334.325 37.565624 332.21564Q37.565624 330.09064 37.065624 329.40314Q36.58125 328.7 35.83125 328.7Q35.1125 328.7 34.675 329.3094Q34.128124 330.09064 34.128124 332.21564Z" fill-rule="nonzero"/><path fill="#000000" d="M23.05 270.83563Q23.05 269.30438 23.3625 268.3825Q23.675 267.445 24.284374 266.945Q24.909374 266.445 25.846874 266.445Q26.534374 266.445 27.05 266.72626Q27.58125 267.0075 27.925 267.53876Q28.26875 268.05438 28.45625 268.80438Q28.64375 269.55438 28.64375 270.83563Q28.64375 272.35126 28.33125 273.27313Q28.034374 274.195 27.409374 274.71063Q26.8 275.21063 25.846874 275.21063Q24.6125 275.21063 23.89375 274.32Q23.05 273.2575 23.05 270.83563ZM24.128124 270.83563Q24.128124 272.945 24.628124 273.64813Q25.128124 274.35126 25.846874 274.35126Q26.58125 274.35126 27.065624 273.64813Q27.565624 272.945 27.565624 270.83563Q27.565624 268.71063 27.065624 268.02313Q26.58125 267.32 25.83125 267.32Q25.1125 267.32 24.675 267.92938Q24.128124 268.71063 24.128124 270.83563ZM30.64375 275.07L30.64375 273.86688L31.846874 273.86688L31.846874 275.07L30.64375 275.07ZM37.01875 275.07L35.971874 275.07L35.971874 268.35126Q35.58125 268.71063 34.95625 269.08563Q34.346874 269.445 33.8625 269.61688L33.8625 268.60126Q34.7375 268.17938 35.39375 267.60126Q36.065624 267.0075 36.346874 266.445L37.01875 266.445L37.01875 275.07Z" fill-rule="nonzero"/><path fill="#000000" d="M23.05 209.45563Q23.05 207.92438 23.3625 207.0025Q23.675 206.065 24.284374 205.565Q24.909374 205.065 25.846874 205.065Q26.534374 205.065 27.05 205.34625Q27.58125 205.6275 27.925 206.15875Q28.26875 206.67438 28.45625 207.42438Q28.64375 208.17438 28.64375 209.45563Q28.64375 210.97125 28.33125 211.89313Q28.034374 212.815 27.409374 213.33063Q26.8 213.83063 25.846874 213.83063Q24.6125 213.83063 23.89375 212.94Q23.05 211.8775 23.05 209.45563ZM24.128124 209.45563Q24.128124 211.565 24.628124 212.26813Q25.128124 212.97125 25.846874 212.97125Q26.58125 212.97125 27.065624 212.26813Q27.565624 211.565 27.565624 209.45563Q27.565624 207.33063 27.065624 206.64313Q26.58125 205.94 25.83125 205.94Q25.1125 205.94 24.675 206.54938Q24.128124 207.33063 24.128124 209.45563ZM30.64375 213.69L30.64375 212.48688L31.846874 212.48688L31.846874 213.69L30.64375 213.69ZM38.596874 212.67438L38.596874 213.69L32.909374 213.69Q32.909374 213.315 33.034374 212.95563Q33.253124 212.3775 33.721874 211.815Q34.20625 211.2525 35.1125 210.51813Q36.51875 209.36188 37.003124 208.69Q37.503124 208.01813 37.503124 207.42438Q37.503124 206.79938 37.05 206.3775Q36.596874 205.94 35.878124 205.94Q35.1125 205.94 34.659374 206.39313Q34.20625 206.84625 34.190624 207.65875L33.1125 207.54938Q33.221874 206.33063 33.940624 205.70563Q34.675 205.065 35.909374 205.065Q37.14375 205.065 37.8625 205.7525Q38.58125 206.44 38.58125 207.45563Q38.58125 207.97125 38.3625 208.47125Q38.159374 208.95563 37.659374 209.51813Q37.175 210.065 36.05 211.01813Q35.096874 211.815 34.815624 212.11188Q34.55 212.39313 34.378124 212.67438L38.596874 212.67438Z" fill-rule="nonzero"/><path fill="#000000" d="M23.05 148.07562Q23.05 146.54437 23.3625 145.6225Q23.675 144.685 24.284374 144.185Q24.909374 143.685 25.846874 143.685Q26.534374 143.685 27.05 143.96625Q27.58125 144.2475 27.925 144.77875Q28.26875 145.29437 28.45625 146.04437Q28.64375 146.79437 28.64375 148.07562Q28.64375 149.59125 28.33125 150.51312Q28.034374 151.435 27.409374 151.95062Q26.8 152.45062 25.846874 152.45062Q24.6125 152.45062 23.89375 151.56Q23.05 150.4975 23.05 148.07562ZM24.128124 148.07562Q24.128124 150.185 24.628124 150.88812Q25.128124 151.59125 25.846874 151.59125Q26.58125 151.59125 27.065624 150.88812Q27.565624 150.185 27.565624 148.07562Q27.565624 145.95062 27.065624 145.26312Q26.58125 144.56 25.83125 144.56Q25.1125 144.56 24.675 145.16937Q24.128124 145.95062 24.128124 148.07562ZM30.64375 152.31L30.64375 151.10687L31.846874 151.10687L31.846874 152.31L30.64375 152.31ZM33.05 150.04437L34.1125 149.90375Q34.284374 150.79437 34.721874 151.20062Q35.159374 151.59125 35.784374 151.59125Q36.534374 151.59125 37.05 151.07562Q37.565624 150.56 37.565624 149.79437Q37.565624 149.07562 37.08125 148.60687Q36.6125 148.1225 35.878124 148.1225Q35.58125 148.1225 35.128124 148.2475L35.253124 147.31Q35.3625 147.32562 35.425 147.32562Q36.096874 147.32562 36.628124 146.98187Q37.175 146.6225 37.175 145.88812Q37.175 145.31 36.784374 144.935Q36.39375 144.54437 35.76875 144.54437Q35.159374 144.54437 34.7375 144.935Q34.33125 145.32562 34.221874 146.09125L33.159374 145.90375Q33.346874 144.85687 34.034374 144.27875Q34.721874 143.685 35.7375 143.685Q36.440624 143.685 37.034374 143.9975Q37.628124 144.29437 37.940624 144.81Q38.253124 145.32562 38.253124 145.91937Q38.253124 146.46625 37.95625 146.935Q37.659374 147.38812 37.08125 147.65375Q37.83125 147.82562 38.253124 148.38812Q38.675 148.935 38.675 149.77875Q38.675 150.90375 37.846874 151.685Q37.034374 152.46625 35.784374 152.46625Q34.659374 152.46625 33.909374 151.79437Q33.159374 151.10687 33.05 150.04437Z" fill-rule="nonzero"/><path fill="#000000" d="M23.05 86.695625Q23.05 85.164375 23.3625 84.2425Q23.675 83.305 24.284374 82.805Q24.909374 82.305 25.846874 82.305Q26.534374 82.305 27.05 82.58625Q27.58125 82.8675 27.925 83.39875Q28.26875 83.914375 28.45625 84.664375Q28.64375 85.414375 28.64375 86.695625Q28.64375 88.21125 28.33125 89.133125Q28.034374 90.055 27.409374 90.570625Q26.8 91.070625 25.846874 91.070625Q24.6125 91.070625 23.89375 90.18Q23.05 89.1175 23.05 86.695625ZM24.128124 86.695625Q24.128124 88.805 24.628124 89.508125Q25.128124 90.21125 25.846874 90.21125Q26.58125 90.21125 27.065624 89.508125Q27.565624 88.805 27.565624 86.695625Q27.565624 84.570625 27.065624 83.883125Q26.58125 83.18 25.83125 83.18Q25.1125 83.18 24.675 83.789375Q24.128124 84.570625 24.128124 86.695625ZM30.64375 90.93L30.64375 89.726875L31.846874 89.726875L31.846874 90.93L30.64375 90.93ZM36.425 90.93L36.425 88.8675L32.70625 88.8675L32.70625 87.89875L36.628124 82.33625L37.4875 82.33625L37.4875 87.89875L38.64375 87.89875L38.64375 88.8675L37.4875 88.8675L37.4875 90.93L36.425 90.93ZM36.425 87.89875L36.425 84.039375L33.7375 87.89875L36.425 87.89875Z" fill-rule="nonzero"/><path fill="#000000" d="M23.05 25.315624Q23.05 23.784374 23.3625 22.8625Q23.675 21.925 24.284374 21.425Q24.909374 20.925 25.846874 20.925Q26.534374 20.925 27.05 21.20625Q27.58125 21.4875 27.925 22.01875Q28.26875 22.534374 28.45625 23.284374Q28.64375 24.034374 28.64375 25.315624Q28.64375 26.83125 28.33125 27.753124Q28.034374 28.675 27.409374 29.190624Q26.8 29.690624 25.846874 29.690624Q24.6125 29.690624 23.89375 28.8Q23.05 27.7375 23.05 25.315624ZM24.128124 25.315624Q24.128124 27.425 24.628124 28.128124Q25.128124 28.83125 25.846874 28.83125Q26.58125 28.83125 27.065624 28.128124Q27.565624 27.425 27.565624 25.315624Q27.565624 23.190624 27.065624 22.503124Q26.58125 21.8 25.83125 21.8Q25.1125 21.8 24.675 22.409374Q24.128124 23.190624 24.128124 25.315624ZM30.64375 29.55L30.64375 28.346874L31.846874 28.346874L31.846874 29.55L30.64375 29.55ZM33.05 27.3L34.159374 27.20625Q34.284374 28.01875 34.721874 28.425Q35.175 28.83125 35.815624 28.83125Q36.565624 28.83125 37.096874 28.253124Q37.628124 27.675 37.628124 26.7375Q37.628124 25.83125 37.1125 25.315624Q36.6125 24.784374 35.784374 24.784374Q35.284374 24.784374 34.8625 25.01875Q34.45625 25.253124 34.221874 25.6125L33.2375 25.4875L34.065624 21.08125L38.346874 21.08125L38.346874 22.08125L34.909374 22.08125L34.45625 24.39375Q35.221874 23.846874 36.065624 23.846874Q37.190624 23.846874 37.95625 24.628124Q38.7375 25.409374 38.7375 26.64375Q38.7375 27.8 38.065624 28.659374Q37.2375 29.690624 35.815624 29.690624Q34.64375 29.690624 33.89375 29.034374Q33.159374 28.378124 33.05 27.3Z" fill-rule="nonzero"/><path fill="#000000" d="M95.62877 349.45L95.62877 340.85626L96.78502 340.85626L101.300644 347.60626L101.300644 340.85626L102.394394 340.85626L102.394394 349.45L101.22252 349.45L96.706894 342.7L96.706894 349.45L95.62877 349.45ZM104.113144 346.34064Q104.113144 344.60626 105.06627 343.77814Q105.863144 343.09064 107.019394 343.09064Q108.300644 343.09064 109.113144 343.9344Q109.94127 344.7625 109.94127 346.2469Q109.94127 347.45 109.581894 348.1375Q109.22252 348.825 108.519394 349.21564Q107.831894 349.59064 107.019394 349.59064Q105.72252 349.59064 104.91002 348.7625Q104.113144 347.91876 104.113144 346.34064ZM105.19127 346.34064Q105.19127 347.52814 105.706894 348.1219Q106.238144 348.71564 107.019394 348.71564Q107.81627 348.71564 108.331894 348.1219Q108.84752 347.52814 108.84752 346.3094Q108.84752 345.15314 108.31627 344.5594Q107.800644 343.96564 107.019394 343.96564Q106.238144 343.96564 105.706894 344.5594Q105.19127 345.1375 105.19127 346.34064ZM111.488144 349.45L111.488144 343.23126L112.44127 343.23126L112.44127 344.16876Q112.800644 343.5125 113.09752 343.3094Q113.41002 343.09064 113.78502 343.09064Q114.31627 343.09064 114.863144 343.41876L114.50377 344.40314Q114.113144 344.16876 113.738144 344.16876Q113.37877 344.16876 113.09752 344.3875Q112.831894 344.59064 112.72252 344.96564Q112.53502 345.52814 112.53502 346.1844L112.53502 349.45L111.488144 349.45ZM115.50377 349.45L115.50377 343.23126L116.44127 343.23126L116.44127 344.10626Q116.738144 343.6375 117.22252 343.3719Q117.706894 343.09064 118.331894 343.09064Q119.019394 343.09064 119.456894 343.3719Q119.91002 343.65314 120.081894 344.16876Q120.831894 343.09064 122.00377 343.09064Q122.94127 343.09064 123.425644 343.60626Q123.925644 344.10626 123.925644 345.1844L123.925644 349.45L122.87877 349.45L122.87877 345.52814Q122.87877 344.90314 122.769394 344.6219Q122.675644 344.34064 122.41002 344.16876Q122.144394 343.9969 121.769394 343.9969Q121.113144 343.9969 120.675644 344.4344Q120.25377 344.8719 120.25377 345.84064L120.25377 349.45L119.19127 349.45L119.19127 345.40314Q119.19127 344.7 118.925644 344.35626Q118.675644 343.9969 118.09752 343.9969Q117.644394 343.9969 117.269394 344.23126Q116.894394 344.46564 116.72252 344.91876Q116.550644 345.3719 116.550644 346.21564L116.550644 349.45L115.50377 349.45ZM130.56627 348.6844Q129.97252 349.1844 129.42564 349.3875Q128.8944 349.59064 128.2694 349.59064Q127.238144 349.59064 126.69127 349.09064Q126.144394 348.59064 126.144394 347.8094Q126.144394 347.35626 126.34752 346.98126Q126.550644 346.59064 126.894394 346.3719Q127.238144 346.1375 127.66002 346.02814Q127.956894 345.9344 128.59752 345.85626Q129.86314 345.71564 130.47252 345.4969Q130.47252 345.27814 130.47252 345.23126Q130.47252 344.575 130.17564 344.3094Q129.7694 343.96564 128.97252 343.96564Q128.23814 343.96564 127.87877 344.23126Q127.519394 344.48126 127.34752 345.1375L126.31627 344.9969Q126.456894 344.34064 126.78502 343.9344Q127.113144 343.52814 127.72252 343.3094Q128.3319 343.09064 129.12877 343.09064Q129.92564 343.09064 130.42564 343.27814Q130.92564 343.46564 131.16002 343.7469Q131.3944 344.02814 131.48814 344.46564Q131.53502 344.73126 131.53502 345.4344L131.53502 346.84064Q131.53502 348.3094 131.59752 348.7Q131.67564 349.09064 131.87877 349.45L130.7694 349.45Q130.61314 349.1219 130.56627 348.6844ZM130.47252 346.325Q129.8944 346.5594 128.75377 346.73126Q128.09752 346.825 127.831894 346.95Q127.56627 347.0594 127.41002 347.27814Q127.269394 347.4969 127.269394 347.77814Q127.269394 348.2 127.581894 348.48126Q127.91002 348.7625 128.5194 348.7625Q129.12877 348.7625 129.59752 348.4969Q130.0819 348.23126 130.30064 347.7625Q130.47252 347.40314 130.47252 346.71564L130.47252 346.325ZM133.47252 349.45L133.47252 340.85626L134.53502 340.85626L134.53502 349.45L133.47252 349.45ZM144.75377 348.4344L144.75377 349.45L139.06627 349.45Q139.06627 349.075 139.19127 348.71564Q139.41002 348.1375 139.87877 347.575Q140.36314 347.0125 141.2694 346.27814Q142.67564 345.1219 143.16002 344.45Q143.66002 343.77814 143.66002 343.1844Q143.66002 342.5594 143.2069 342.1375Q142.75377 341.7 142.03502 341.7Q141.2694 341.7 140.81627 342.15314Q140.36314 342.60626 140.34752 343.41876L139.2694 343.3094Q139.37877 342.09064 140.09752 341.46564Q140.8319 340.825 142.06627 340.825Q143.30064 340.825 144.0194 341.5125Q144.73814 342.2 144.73814 343.21564Q144.73814 343.73126 144.5194 344.23126Q144.31627 344.71564 143.81627 345.27814Q143.3319 345.825 142.2069 346.77814Q141.25377 347.575 140.97252 347.8719Q140.7069 348.15314 140.53502 348.4344L144.75377 348.4344ZM146.80064 349.45L146.80064 348.2469L148.00377 348.2469L148.00377 349.45L146.80064 349.45ZM149.2069 347.2L150.31627 347.10626Q150.44127 347.91876 150.87877 348.325Q151.3319 348.73126 151.97252 348.73126Q152.72252 348.73126 153.25377 348.15314Q153.78502 347.575 153.78502 346.6375Q153.78502 345.73126 153.2694 345.21564Q152.7694 344.6844 151.94127 344.6844Q151.44127 344.6844 151.0194 344.91876Q150.61314 345.15314 150.37877 345.5125L149.3944 345.3875L150.22252 340.98126L154.50377 340.98126L154.50377 341.98126L151.06627 341.98126L150.61314 344.29376Q151.37877 343.7469 152.22252 343.7469Q153.34752 343.7469 154.11314 344.52814Q154.8944 345.3094 154.8944 346.54376Q154.8944 347.7 154.22252 348.5594Q153.3944 349.59064 151.97252 349.59064Q150.80064 349.59064 150.05064 348.9344Q149.31627 348.27814 149.2069 347.2ZM159.0819 349.45L155.75377 340.85626L156.98814 340.85626L159.22252 347.10626Q159.48814 347.85626 159.67564 348.5125Q159.87877 347.8094 160.1444 347.10626L162.4569 340.85626L163.61314 340.85626L160.25377 349.45L159.0819 349.45Z" fill-rule="nonzero"/><path fill="#000000" d="M218.82417 349.45L218.82417 340.85626L219.98042 340.85626L224.49605 347.60626L224.49605 340.85626L225.5898 340.85626L225.5898 349.45L224.41792 349.45L219.9023 342.7L219.9023 349.45L218.82417 349.45ZM227.30855 346.34064Q227.30855 344.60626 228.26167 343.77814Q229.05855 343.09064 230.2148 343.09064Q231.49605 343.09064 232.30855 343.9344Q233.13667 344.7625 233.13667 346.2469Q233.13667 347.45 232.7773 348.1375Q232.41792 348.825 231.7148 349.21564Q231.0273 349.59064 230.2148 349.59064Q228.91792 349.59064 228.10542 348.7625Q227.30855 347.91876 227.30855 346.34064ZM228.38667 346.34064Q228.38667 347.52814 228.9023 348.1219Q229.43355 348.71564 230.2148 348.71564Q231.01167 348.71564 231.5273 348.1219Q232.04292 347.52814 232.04292 346.3094Q232.04292 345.15314 231.51167 344.5594Q230.99605 343.96564 230.2148 343.96564Q229.43355 343.96564 228.9023 344.5594Q228.38667 345.1375 228.38667 346.34064ZM234.68355 349.45L234.68355 343.23126L235.63667 343.23126L235.63667 344.16876Q235.99605 343.5125 236.29292 343.3094Q236.60542 343.09064 236.98042 343.09064Q237.51167 343.09064 238.05855 343.41876L237.69917 344.40314Q237.30855 344.16876 236.93355 344.16876Q236.57417 344.16876 236.29292 344.3875Q236.0273 344.59064 235.91792 344.96564Q235.73042 345.52814 235.73042 346.1844L235.73042 349.45L234.68355 349.45ZM238.69917 349.45L238.69917 343.23126L239.63667 343.23126L239.63667 344.10626Q239.93355 343.6375 240.41792 343.3719Q240.9023 343.09064 241.5273 343.09064Q242.2148 343.09064 242.6523 343.3719Q243.10542 343.65314 243.2773 344.16876Q244.0273 343.09064 245.19917 343.09064Q246.13667 343.09064 246.62105 343.60626Q247.12105 344.10626 247.12105 345.1844L247.12105 349.45L246.07417 349.45L246.07417 345.52814Q246.07417 344.90314 245.9648 344.6219Q245.87105 344.34064 245.60542 344.16876Q245.3398 343.9969 244.9648 343.9969Q244.30855 343.9969 243.87105 344.4344Q243.44917 344.8719 243.44917 345.84064L243.44917 349.45L242.38667 349.45L242.38667 345.40314Q242.38667 344.7 242.12105 344.35626Q241.87105 343.9969 241.29292 343.9969Q240.8398 343.9969 240.4648 344.23126Q240.0898 344.46564 239.91792 344.91876Q239.74605 345.3719 239.74605 346.21564L239.74605 349.45L238.69917 349.45ZM253.76167 348.6844Q253.16792 349.1844 252.62105 349.3875Q252.0898 349.59064 251.4648 349.59064Q250.43355 349.59064 249.88667 349.09064Q249.3398 348.59064 249.3398 347.8094Q249.3398 347.35626 249.54292 346.98126Q249.74605 346.59064 250.0898 346.3719Q250.43355 346.1375 250.85542 346.02814Q251.1523 345.9344 251.79292 345.85626Q253.05855 345.71564 253.66792 345.4969Q253.66792 345.27814 253.66792 345.23126Q253.66792 344.575 253.37105 344.3094Q252.9648 343.96564 252.16792 343.96564Q251.43355 343.96564 251.07417 344.23126Q250.7148 344.48126 250.54292 345.1375L249.51167 344.9969Q249.6523 344.34064 249.98042 343.9344Q250.30855 343.52814 250.91792 343.3094Q251.5273 343.09064 252.32417 343.09064Q253.12105 343.09064 253.62105 343.27814Q254.12105 343.46564 254.35542 343.7469Q254.5898 344.02814 254.68355 344.46564Q254.73042 344.73126 254.73042 345.4344L254.73042 346.84064Q254.73042 348.3094 254.79292 348.7Q254.87105 349.09064 255.07417 349.45L253.9648 349.45Q253.80855 349.1219 253.76167 348.6844ZM253.66792 346.325Q253.0898 346.5594 251.94917 346.73126Q251.29292 346.825 251.0273 346.95Q250.76167 347.0594 250.60542 347.27814Q250.4648 347.4969 250.4648 347.77814Q250.4648 348.2 250.7773 348.48126Q251.10542 348.7625 251.7148 348.7625Q252.32417 348.7625 252.79292 348.4969Q253.2773 348.23126 253.49605 347.7625Q253.66792 347.40314 253.66792 346.71564L253.66792 346.325ZM256.6679 349.45L256.6679 340.85626L257.7304 340.85626L257.7304 349.45L256.6679 349.45ZM262.40228 347.1844L263.46478 347.04376Q263.63666 347.9344 264.07416 348.34064Q264.51166 348.73126 265.13666 348.73126Q265.88666 348.73126 266.40228 348.21564Q266.9179 347.7 266.9179 346.9344Q266.9179 346.21564 266.43353 345.7469Q265.96478 345.2625 265.2304 345.2625Q264.93353 345.2625 264.4804 345.3875L264.6054 344.45Q264.71478 344.46564 264.77728 344.46564Q265.44916 344.46564 265.9804 344.1219Q266.52728 343.7625 266.52728 343.02814Q266.52728 342.45 266.13666 342.075Q265.74603 341.6844 265.12103 341.6844Q264.51166 341.6844 264.08978 342.075Q263.68353 342.46564 263.57416 343.23126L262.51166 343.04376Q262.69916 341.9969 263.38666 341.41876Q264.07416 340.825 265.08978 340.825Q265.7929 340.825 266.38666 341.1375Q266.9804 341.4344 267.2929 341.95Q267.6054 342.46564 267.6054 343.0594Q267.6054 343.60626 267.30853 344.075Q267.01166 344.52814 266.43353 344.79376Q267.18353 344.96564 267.6054 345.52814Q268.02728 346.075 268.02728 346.91876Q268.02728 348.04376 267.19916 348.825Q266.38666 349.60626 265.13666 349.60626Q264.01166 349.60626 263.26166 348.9344Q262.51166 348.2469 262.40228 347.1844ZM269.99603 349.45L269.99603 348.2469L271.19916 348.2469L271.19916 349.45L269.99603 349.45ZM272.40228 347.1844L273.46478 347.04376Q273.63666 347.9344 274.07416 348.34064Q274.51166 348.73126 275.13666 348.73126Q275.88666 348.73126 276.40228 348.21564Q276.9179 347.7 276.9179 346.9344Q276.9179 346.21564 276.43353 345.7469Q275.96478 345.2625 275.2304 345.2625Q274.93353 345.2625 274.4804 345.3875L274.6054 344.45Q274.71478 344.46564 274.77728 344.46564Q275.44916 344.46564 275.9804 344.1219Q276.52728 343.7625 276.52728 343.02814Q276.52728 342.45 276.13666 342.075Q275.74603 341.6844 275.12103 341.6844Q274.51166 341.6844 274.08978 342.075Q273.68353 342.46564 273.57416 343.23126L272.51166 343.04376Q272.69916 341.9969 273.38666 341.41876Q274.07416 340.825 275.08978 340.825Q275.7929 340.825 276.38666 341.1375Q276.9804 341.4344 277.2929 341.95Q277.6054 342.46564 277.6054 343.0594Q277.6054 343.60626 277.30853 344.075Q277.01166 344.52814 276.43353 344.79376Q277.18353 344.96564 277.6054 345.52814Q278.02728 346.075 278.02728 346.91876Q278.02728 348.04376 277.19916 348.825Q276.38666 349.60626 275.13666 349.60626Q274.01166 349.60626 273.26166 348.9344Q272.51166 348.2469 272.40228 347.1844ZM282.27728 349.45L278.94916 340.85626L280.18353 340.85626L282.4179 347.10626Q282.68353 347.85626 282.87103 348.5125Q283.07416 347.8094 283.33978 347.10626L285.65228 340.85626L286.80853 340.85626L283.44916 349.45L282.27728 349.45Z" fill-rule="nonzero"/><path fill="#000000" d="M333.64456 346.6844L334.70706 346.59064Q334.7852 347.2469 335.06644 347.65314Q335.3477 348.0594 335.9258 348.325Q336.51956 348.575 337.25394 348.575Q337.89456 348.575 338.39456 348.3875Q338.89456 348.1844 339.12894 347.85626Q339.37894 347.5125 339.37894 347.1219Q339.37894 346.71564 339.14456 346.41876Q338.9102 346.10626 338.37894 345.90314Q338.01956 345.7625 336.83206 345.48126Q335.6602 345.2 335.19144 344.95Q334.56644 344.6219 334.26956 344.15314Q333.9727 343.66876 333.9727 343.075Q333.9727 342.4344 334.33206 341.8719Q334.70706 341.29376 335.4102 341.0125Q336.12894 340.71564 336.9883 340.71564Q337.94144 340.71564 338.6758 341.02814Q339.4102 341.325 339.8008 341.9344Q340.19144 342.52814 340.2227 343.27814L339.12894 343.35626Q339.0352 342.54376 338.51956 342.1375Q338.01956 341.71564 337.0352 341.71564Q336.00394 341.71564 335.5352 342.09064Q335.06644 342.46564 335.06644 342.9969Q335.06644 343.46564 335.39456 343.7625Q335.7227 344.0594 337.0977 344.3719Q338.4883 344.6844 339.00394 344.91876Q339.75394 345.27814 340.1133 345.8094Q340.4727 346.325 340.4727 347.02814Q340.4727 347.71564 340.08206 348.325Q339.69144 348.91876 338.95706 349.2625Q338.2227 349.59064 337.3008 349.59064Q336.12894 349.59064 335.33206 349.2625Q334.5508 348.91876 334.0977 348.23126Q333.6602 347.54376 333.64456 346.6844ZM341.89456 349.45L341.89456 340.85626L342.95706 340.85626L342.95706 345.7625L345.44144 343.23126L346.81644 343.23126L344.4258 345.52814L347.0508 349.45L345.75394 349.45L343.69144 346.2625L342.95706 346.98126L342.95706 349.45L341.89456 349.45ZM347.89456 342.075L347.89456 340.85626L348.95706 340.85626L348.95706 342.075L347.89456 342.075ZM347.89456 349.45L347.89456 343.23126L348.95706 343.23126L348.95706 349.45L347.89456 349.45ZM350.89456 351.84064L350.89456 343.23126L351.8477 343.23126L351.8477 344.02814Q352.19144 343.5594 352.6133 343.325Q353.0508 343.09064 353.6602 343.09064Q354.45706 343.09064 355.06644 343.4969Q355.6758 343.90314 355.9727 344.65314Q356.2852 345.40314 356.2852 346.29376Q356.2852 347.2469 355.94144 348.0125Q355.6133 348.77814 354.95706 349.1844Q354.3008 349.59064 353.58206 349.59064Q353.0508 349.59064 352.62894 349.3719Q352.20706 349.1375 351.94144 348.8094L351.94144 351.84064L350.89456 351.84064ZM351.8477 346.3719Q351.8477 347.575 352.33206 348.15314Q352.81644 348.71564 353.50394 348.71564Q354.20706 348.71564 354.70706 348.1219Q355.20706 347.52814 355.20706 346.27814Q355.20706 345.09064 354.7227 344.5125Q354.2383 343.91876 353.5508 343.91876Q352.87894 343.91876 352.3633 344.54376Q351.8477 345.16876 351.8477 346.3719ZM360.8633 349.45L360.8633 340.85626L361.9258 340.85626L361.9258 349.45L360.8633 349.45ZM363.89456 342.075L363.89456 340.85626L364.95706 340.85626L364.95706 342.075L363.89456 342.075ZM363.89456 349.45L363.89456 343.23126L364.95706 343.23126L364.95706 349.45L363.89456 349.45ZM366.4727 347.59064L367.50394 347.4344Q367.5977 348.0594 367.9883 348.3875Q368.39456 348.71564 369.12894 348.71564Q369.8477 348.71564 370.19144 348.4344Q370.5508 348.1375 370.5508 347.73126Q370.5508 347.3719 370.2383 347.16876Q370.01956 347.02814 369.1602 346.8094Q368.00394 346.5125 367.5508 346.3094Q367.1133 346.09064 366.87894 345.71564Q366.64456 345.34064 366.64456 344.8719Q366.64456 344.46564 366.83206 344.10626Q367.01956 343.7469 367.3477 343.5125Q367.5977 343.34064 368.01956 343.21564Q368.44144 343.09064 368.94144 343.09064Q369.6602 343.09064 370.20706 343.3094Q370.76956 343.5125 371.0352 343.8719Q371.3008 344.23126 371.39456 344.825L370.3633 344.96564Q370.3008 344.4969 369.95706 344.23126Q369.62894 343.95 369.00394 343.95Q368.2852 343.95 367.9727 344.2Q367.6602 344.4344 367.6602 344.7625Q367.6602 344.96564 367.7852 345.1219Q367.9258 345.29376 368.19144 345.40314Q368.3477 345.46564 369.12894 345.66876Q370.25394 345.98126 370.69144 346.16876Q371.12894 346.35626 371.37894 346.71564Q371.62894 347.075 371.62894 347.6219Q371.62894 348.15314 371.31644 348.6219Q371.01956 349.075 370.44144 349.34064Q369.8633 349.59064 369.12894 349.59064Q367.9102 349.59064 367.26956 349.09064Q366.64456 348.575 366.4727 347.59064ZM376.19144 348.5125L376.3477 349.4344Q375.89456 349.52814 375.5508 349.52814Q374.9727 349.52814 374.6602 349.35626Q374.3477 349.16876 374.20706 348.8719Q374.08206 348.575 374.08206 347.6219L374.08206 344.04376L373.31644 344.04376L373.31644 343.23126L374.08206 343.23126L374.08206 341.6844L375.12894 341.0594L375.12894 343.23126L376.19144 343.23126L376.19144 344.04376L375.12894 344.04376L375.12894 347.6844Q375.12894 348.1375 375.1758 348.2625Q375.2383 348.3875 375.3633 348.46564Q375.4883 348.54376 375.7227 348.54376Q375.9102 348.54376 376.19144 348.5125ZM381.14456 347.45L382.2383 347.575Q381.9883 348.52814 381.2852 349.0594Q380.58206 349.59064 379.50394 349.59064Q378.14456 349.59064 377.33206 348.7469Q376.5352 347.90314 376.5352 346.3875Q376.5352 344.825 377.3477 343.96564Q378.1602 343.09064 379.44144 343.09064Q380.69144 343.09064 381.4727 343.9344Q382.26956 344.77814 382.26956 346.325Q382.26956 346.41876 382.26956 346.60626L377.62894 346.60626Q377.69144 347.6375 378.20706 348.1844Q378.7227 348.71564 379.50394 348.71564Q380.08206 348.71564 380.4883 348.41876Q380.9102 348.10626 381.14456 347.45ZM377.69144 345.7469L381.1602 345.7469Q381.0977 344.95 380.76956 344.5594Q380.25394 343.95 379.45706 343.95Q378.7227 343.95 378.2227 344.4344Q377.7383 344.91876 377.69144 345.7469ZM383.89456 349.45L383.89456 343.23126L384.83206 343.23126L384.83206 344.10626Q385.51956 343.09064 386.81644 343.09064Q387.37894 343.09064 387.8477 343.29376Q388.33206 343.4969 388.56644 343.825Q388.8008 344.15314 388.89456 344.59064Q388.94144 344.8875 388.94144 345.6219L388.94144 349.45L387.89456 349.45L387.89456 345.66876Q387.89456 345.0125 387.76956 344.7Q387.64456 344.3875 387.33206 344.2Q387.01956 343.9969 386.5977 343.9969Q385.9258 343.9969 385.4258 344.4344Q384.94144 344.85626 384.94144 346.04376L384.94144 349.45L383.89456 349.45ZM399.14456 348.4344L399.14456 349.45L393.45706 349.45Q393.45706 349.075 393.58206 348.71564Q393.8008 348.1375 394.26956 347.575Q394.75394 347.0125 395.6602 346.27814Q397.06644 345.1219 397.5508 344.45Q398.0508 343.77814 398.0508 343.1844Q398.0508 342.5594 397.5977 342.1375Q397.14456 341.7 396.4258 341.7Q395.6602 341.7 395.20706 342.15314Q394.75394 342.60626 394.7383 343.41876L393.6602 343.3094Q393.76956 342.09064 394.4883 341.46564Q395.2227 340.825 396.45706 340.825Q397.69144 340.825 398.4102 341.5125Q399.12894 342.2 399.12894 343.21564Q399.12894 343.73126 398.9102 344.23126Q398.70706 344.71564 398.20706 345.27814Q397.7227 345.825 396.5977 346.77814Q395.64456 347.575 395.3633 347.8719Q395.0977 348.15314 394.9258 348.4344L399.14456 348.4344ZM401.19144 349.45L401.19144 348.2469L402.39456 348.2469L402.39456 349.45L401.19144 349.45ZM403.5977 347.2L404.70706 347.10626Q404.83206 347.91876 405.26956 348.325Q405.7227 348.73126 406.3633 348.73126Q407.1133 348.73126 407.64456 348.15314Q408.1758 347.575 408.1758 346.6375Q408.1758 345.73126 407.6602 345.21564Q407.1602 344.6844 406.33206 344.6844Q405.83206 344.6844 405.4102 344.91876Q405.00394 345.15314 404.76956 345.5125L403.7852 345.3875L404.6133 340.98126L408.89456 340.98126L408.89456 341.98126L405.45706 341.98126L405.00394 344.29376Q405.76956 343.7469 406.6133 343.7469Q407.7383 343.7469 408.50394 344.52814Q409.2852 345.3094 409.2852 346.54376Q409.2852 347.7 408.6133 348.5594Q407.7852 349.59064 406.3633 349.59064Q405.19144 349.59064 404.44144 348.9344Q403.70706 348.27814 403.5977 347.2ZM413.4727 349.45L410.14456 340.85626L411.37894 340.85626L413.6133 347.10626Q413.87894 347.85626 414.06644 348.5125Q414.26956 347.8094 414.5352 347.10626L416.8477 340.85626L418.00394 340.85626L414.64456 349.45L413.4727 349.45Z" fill-rule="nonzero"/><path fill="#000000" d="M456.83997 346.6844L457.90247 346.59064Q457.9806 347.2469 458.26184 347.65314Q458.5431 348.0594 459.12122 348.325Q459.71497 348.575 460.44934 348.575Q461.08997 348.575 461.58997 348.3875Q462.08997 348.1844 462.32434 347.85626Q462.57434 347.5125 462.57434 347.1219Q462.57434 346.71564 462.33997 346.41876Q462.1056 346.10626 461.57434 345.90314Q461.21497 345.7625 460.02747 345.48126Q458.8556 345.2 458.38684 344.95Q457.76184 344.6219 457.46497 344.15314Q457.1681 343.66876 457.1681 343.075Q457.1681 342.4344 457.52747 341.8719Q457.90247 341.29376 458.6056 341.0125Q459.32434 340.71564 460.18372 340.71564Q461.13684 340.71564 461.87122 341.02814Q462.6056 341.325 462.99622 341.9344Q463.38684 342.52814 463.4181 343.27814L462.32434 343.35626Q462.2306 342.54376 461.71497 342.1375Q461.21497 341.71564 460.2306 341.71564Q459.19934 341.71564 458.7306 342.09064Q458.26184 342.46564 458.26184 342.9969Q458.26184 343.46564 458.58997 343.7625Q458.9181 344.0594 460.2931 344.3719Q461.68372 344.6844 462.19934 344.91876Q462.94934 345.27814 463.30872 345.8094Q463.6681 346.325 463.6681 347.02814Q463.6681 347.71564 463.27747 348.325Q462.88684 348.91876 462.15247 349.2625Q461.4181 349.59064 460.49622 349.59064Q459.32434 349.59064 458.52747 349.2625Q457.74622 348.91876 457.2931 348.23126Q456.8556 347.54376 456.83997 346.6844ZM465.08997 349.45L465.08997 340.85626L466.15247 340.85626L466.15247 345.7625L468.63684 343.23126L470.01184 343.23126L467.62122 345.52814L470.24622 349.45L468.94934 349.45L466.88684 346.2625L466.15247 346.98126L466.15247 349.45L465.08997 349.45ZM471.08997 342.075L471.08997 340.85626L472.15247 340.85626L472.15247 342.075L471.08997 342.075ZM471.08997 349.45L471.08997 343.23126L472.15247 343.23126L472.15247 349.45L471.08997 349.45ZM474.08997 351.84064L474.08997 343.23126L475.0431 343.23126L475.0431 344.02814Q475.38684 343.5594 475.80872 343.325Q476.24622 343.09064 476.8556 343.09064Q477.65247 343.09064 478.26184 343.4969Q478.87122 343.90314 479.1681 344.65314Q479.4806 345.40314 479.4806 346.29376Q479.4806 347.2469 479.13684 348.0125Q478.80872 348.77814 478.15247 349.1844Q477.49622 349.59064 476.77747 349.59064Q476.24622 349.59064 475.82434 349.3719Q475.40247 349.1375 475.13684 348.8094L475.13684 351.84064L474.08997 351.84064ZM475.0431 346.3719Q475.0431 347.575 475.52747 348.15314Q476.01184 348.71564 476.69934 348.71564Q477.40247 348.71564 477.90247 348.1219Q478.40247 347.52814 478.40247 346.27814Q478.40247 345.09064 477.9181 344.5125Q477.43372 343.91876 476.74622 343.91876Q476.07434 343.91876 475.55872 344.54376Q475.0431 345.16876 475.0431 346.3719ZM484.05872 349.45L484.05872 340.85626L485.12122 340.85626L485.12122 349.45L484.05872 349.45ZM487.08997 342.075L487.08997 340.85626L488.15247 340.85626L488.15247 342.075L487.08997 342.075ZM487.08997 349.45L487.08997 343.23126L488.15247 343.23126L488.15247 349.45L487.08997 349.45ZM489.6681 347.59064L490.69934 347.4344Q490.7931 348.0594 491.18372 348.3875Q491.58997 348.71564 492.32434 348.71564Q493.0431 348.71564 493.38684 348.4344Q493.74622 348.1375 493.74622 347.73126Q493.74622 347.3719 493.43372 347.16876Q493.21497 347.02814 492.3556 346.8094Q491.19934 346.5125 490.74622 346.3094Q490.30872 346.09064 490.07434 345.71564Q489.83997 345.34064 489.83997 344.8719Q489.83997 344.46564 490.02747 344.10626Q490.21497 343.7469 490.5431 343.5125Q490.7931 343.34064 491.21497 343.21564Q491.63684 343.09064 492.13684 343.09064Q492.8556 343.09064 493.40247 343.3094Q493.96497 343.5125 494.2306 343.8719Q494.49622 344.23126 494.58997 344.825L493.55872 344.96564Q493.49622 344.4969 493.15247 344.23126Q492.82434 343.95 492.19934 343.95Q491.4806 343.95 491.1681 344.2Q490.8556 344.4344 490.8556 344.7625Q490.8556 344.96564 490.9806 345.1219Q491.12122 345.29376 491.38684 345.40314Q491.5431 345.46564 492.32434 345.66876Q493.44934 345.98126 493.88684 346.16876Q494.32434 346.35626 494.57434 346.71564Q494.82434 347.075 494.82434 347.6219Q494.82434 348.15314 494.51184 348.6219Q494.21497 349.075 493.63684 349.34064Q493.05872 349.59064 492.32434 349.59064Q491.1056 349.59064 490.46497 349.09064Q489.83997 348.575 489.6681 347.59064ZM499.38684 348.5125L499.5431 349.4344Q499.08997 349.52814 498.74622 349.52814Q498.1681 349.52814 497.8556 349.35626Q497.5431 349.16876 497.40247 348.8719Q497.27747 348.575 497.27747 347.6219L497.27747 344.04376L496.51184 344.04376L496.51184 343.23126L497.27747 343.23126L497.27747 341.6844L498.32434 341.0594L498.32434 343.23126L499.38684 343.23126L499.38684 344.04376L498.32434 344.04376L498.32434 347.6844Q498.32434 348.1375 498.37122 348.2625Q498.43372 348.3875 498.55872 348.46564Q498.68372 348.54376 498.9181 348.54376Q499.1056 348.54376 499.38684 348.5125ZM504.33997 347.45L505.43372 347.575Q505.18372 348.52814 504.4806 349.0594Q503.77747 349.59064 502.69934 349.59064Q501.33997 349.59064 500.52747 348.7469Q499.7306 347.90314 499.7306 346.3875Q499.7306 344.825 500.5431 343.96564Q501.3556 343.09064 502.63684 343.09064Q503.88684 343.09064 504.6681 343.9344Q505.46497 344.77814 505.46497 346.325Q505.46497 346.41876 505.46497 346.60626L500.82434 346.60626Q500.88684 347.6375 501.40247 348.1844Q501.9181 348.71564 502.69934 348.71564Q503.27747 348.71564 503.68372 348.41876Q504.1056 348.10626 504.33997 347.45ZM500.88684 345.7469L504.3556 345.7469Q504.2931 344.95 503.96497 344.5594Q503.44934 343.95 502.65247 343.95Q501.9181 343.95 501.4181 344.4344Q500.93372 344.91876 500.88684 345.7469ZM507.08997 349.45L507.08997 343.23126L508.02747 343.23126L508.02747 344.10626Q508.71497 343.09064 510.01184 343.09064Q510.57434 343.09064 511.0431 343.29376Q511.52747 343.4969 511.76184 343.825Q511.99622 344.15314 512.08997 344.59064Q512.13684 344.8875 512.13684 345.6219L512.13684 349.45L511.08997 349.45L511.08997 345.66876Q511.08997 345.0125 510.96497 344.7Q510.83997 344.3875 510.52747 344.2Q510.21497 343.9969 509.7931 343.9969Q509.12122 343.9969 508.62122 344.4344Q508.13684 344.85626 508.13684 346.04376L508.13684 349.45L507.08997 349.45ZM516.7931 347.1844L517.8556 347.04376Q518.02747 347.9344 518.46497 348.34064Q518.90247 348.73126 519.52747 348.73126Q520.27747 348.73126 520.7931 348.21564Q521.3087 347.7 521.3087 346.9344Q521.3087 346.21564 520.82434 345.7469Q520.3556 345.2625 519.6212 345.2625Q519.32434 345.2625 518.8712 345.3875L518.9962 344.45Q519.1056 344.46564 519.1681 344.46564Q519.83997 344.46564 520.3712 344.1219Q520.9181 343.7625 520.9181 343.02814Q520.9181 342.45 520.52747 342.075Q520.13684 341.6844 519.51184 341.6844Q518.90247 341.6844 518.4806 342.075Q518.07434 342.46564 517.96497 343.23126L516.90247 343.04376Q517.08997 341.9969 517.77747 341.41876Q518.46497 340.825 519.4806 340.825Q520.1837 340.825 520.77747 341.1375Q521.3712 341.4344 521.6837 341.95Q521.9962 342.46564 521.9962 343.0594Q521.9962 343.60626 521.69934 344.075Q521.40247 344.52814 520.82434 344.79376Q521.57434 344.96564 521.9962 345.52814Q522.4181 346.075 522.4181 346.91876Q522.4181 348.04376 521.58997 348.825Q520.77747 349.60626 519.52747 349.60626Q518.40247 349.60626 517.65247 348.9344Q516.90247 348.2469 516.7931 347.1844ZM524.38684 349.45L524.38684 348.2469L525.58997 348.2469L525.58997 349.45L524.38684 349.45ZM526.7931 347.1844L527.8556 347.04376Q528.02747 347.9344 528.46497 348.34064Q528.90247 348.73126 529.52747 348.73126Q530.27747 348.73126 530.7931 348.21564Q531.3087 347.7 531.3087 346.9344Q531.3087 346.21564 530.82434 345.7469Q530.3556 345.2625 529.6212 345.2625Q529.32434 345.2625 528.8712 345.3875L528.9962 344.45Q529.1056 344.46564 529.1681 344.46564Q529.83997 344.46564 530.3712 344.1219Q530.9181 343.7625 530.9181 343.02814Q530.9181 342.45 530.52747 342.075Q530.13684 341.6844 529.51184 341.6844Q528.90247 341.6844 528.4806 342.075Q528.07434 342.46564 527.96497 343.23126L526.90247 343.04376Q527.08997 341.9969 527.77747 341.41876Q528.46497 340.825 529.4806 340.825Q530.1837 340.825 530.77747 341.1375Q531.3712 341.4344 531.6837 341.95Q531.9962 342.46564 531.9962 343.0594Q531.9962 343.60626 531.69934 344.075Q531.40247 344.52814 530.82434 344.79376Q531.57434 344.96564 531.9962 345.52814Q532.4181 346.075 532.4181 346.91876Q532.4181 348.04376 531.58997 348.825Q530.77747 349.60626 529.52747 349.60626Q528.40247 349.60626 527.65247 348.9344Q526.90247 348.2469 526.7931 347.1844ZM536.6681 349.45L533.33997 340.85626L534.57434 340.85626L536.8087 347.10626Q537.07434 347.85626 537.26184 348.5125Q537.46497 347.8094 537.7306 347.10626L540.0431 340.85626L541.19934 340.85626L537.83997 349.45L536.6681 349.45Z" fill-rule="nonzero"/></svg>