<svg version="1.1" viewBox="0.0 0.0 600.0 371.0" fill="none" stroke="none" stroke-linecap="square" stroke-miterlimit="10" width="600" height="371" xmlns:xlink="http://www.w3.org/1999/xlink" xmlns="http://www.w3.org/2000/svg"><path fill="#ffffff" d="M0 0L600.0 0L600.0 371.0L0 371.0L0 0Z" fill-rule="nonzero"/><path stroke="#cccccc" stroke-width="1.0" stroke-linecap="butt" d="M45.5 304.5L581.5 304.5" fill-rule="nonzero"/><path stroke="#cccccc" stroke-width="1.0" stroke-linecap="butt" d="M45.5 236.5L581.5 236.5" fill-rule="nonzero"/><path stroke="#cccccc" stroke-width="1.0" stroke-linecap="butt" d="M45.5 207.5L581.5 207.5" fill-rule="nonzero"/><path stroke="#cccccc" stroke-width="1.0" stroke-linecap="butt" d="M45.5 140.5L581.5 140.5" fill-rule="nonzero"/><path stroke="#cccccc" stroke-width="1.0" stroke-linecap="butt" d="M45.5 110.5L581.5 110.5" fill-rule="nonzero"/><clipPath id="id_0"><path d="M45.55 51.916668L581.45 51.916668L581.45 304.45L45.55 304.45L45.55 51.916668Z" clip-rule="nonzero"/></clipPath><path stroke="#000000" stroke-width="2.0" stroke-linecap="butt" stroke-opacity="0.0" clip-path="url(#id_0)" d="M94.0 304.0L72.0 304.0L72.0 104.0C72.0 102.89543 72.89543 102.0 74.0 102.0L92.0 102.0C93.10457 102.0 94.0 102.89543 94.0 104.0Z" fill-rule="nonzero"/><path fill="#4285f4" clip-path="url(#id_0)" d="M94.0 304.0L72.0 304.0L72.0 104.0C72.0 102.89543 72.89543 102.0 74.0 102.0L92.0 102.0C93.10457 102.0 94.0 102.89543 94.0 104.0Z" fill-rule="nonzero"/><path stroke="#000000" stroke-width="2.0" stroke-linecap="butt" stroke-opacity="0.0" clip-path="url(#id_0)" d="M167.0 304.0L145.0 304.0L145.0 110.0C145.0 108.89543 145.89543 108.0 147.0 108.0L165.0 108.0C166.10457 108.0 167.0 108.89543 167.0 110.0Z" fill-rule="nonzero"/><path fill="#4285f4" clip-path="url(#id_0)" d="M167.0 304.0L145.0 304.0L145.0 110.0C145.0 108.89543 145.89543 108.0 147.0 108.0L165.0 108.0C166.10457 108.0 167.0 108.89543 167.0 110.0Z" fill-rule="nonzero"/><path stroke="#000000" stroke-width="2.0" stroke-linecap="butt" stroke-opacity="0.0" clip-path="url(#id_0)" d="M313.0 304.0L291.0 304.0L291.0 155.0C291.0 153.89543 291.89542 153.0 293.0 153.0L311.0 153.0C312.10458 153.0 313.0 153.89543 313.0 155.0Z" fill-rule="nonzero"/><path fill="#4285f4" clip-path="url(#id_0)" d="M313.0 304.0L291.0 304.0L291.0 155.0C291.0 153.89543 291.89542 153.0 293.0 153.0L311.0 153.0C312.10458 153.0 313.0 153.89543 313.0 155.0Z" fill-rule="nonzero"/><path stroke="#000000" stroke-width="2.0" stroke-linecap="butt" stroke-opacity="0.0" clip-path="url(#id_0)" d="M385.0 304.0L363.0 304.0L363.0 133.0C363.0 131.89543 363.89542 131.0 365.0 131.0L383.0 131.0C384.10458 131.0 385.0 131.89543 385.0 133.0Z" fill-rule="nonzero"/><path fill="#4285f4" clip-path="url(#id_0)" d="M385.0 304.0L363.0 304.0L363.0 133.0C363.0 131.89543 363.89542 131.0 365.0 131.0L383.0 131.0C384.10458 131.0 385.0 131.89543 385.0 133.0Z" fill-rule="nonzero"/><path stroke="#000000" stroke-width="2.0" stroke-linecap="butt" stroke-opacity="0.0" clip-path="url(#id_0)" d="M458.0 304.0L436.0 304.0L436.0 164.0C436.0 162.89543 436.89542 162.0 438.0 162.0L456.0 162.0C457.10458 162.0 458.0 162.89543 458.0 164.0Z" fill-rule="nonzero"/><path fill="#4285f4" clip-path="url(#id_0)" d="M458.0 304.0L436.0 304.0L436.0 164.0C436.0 162.89543 436.89542 162.0 438.0 162.0L456.0 162.0C457.10458 162.0 458.0 162.89543 458.0 164.0Z" fill-rule="nonzero"/><path stroke="#000000" stroke-width="2.0" stroke-linecap="butt" stroke-opacity="0.0" clip-path="url(#id_0)" d="M531.0 304.0L509.0 304.0L509.0 131.0C509.0 129.89543 509.89542 129.0 511.0 129.0L529.0 129.0C530.10455 129.0 531.0 129.89543 531.0 131.0Z" fill-rule="nonzero"/><path fill="#4285f4" clip-path="url(#id_0)" d="M531.0 304.0L509.0 304.0L509.0 131.0C509.0 129.89543 509.89542 129.0 511.0 129.0L529.0 129.0C530.10455 129.0 531.0 129.89543 531.0 131.0Z" fill-rule="nonzero"/><path stroke="#000000" stroke-width="2.0" stroke-linecap="butt" stroke-opacity="0.0" clip-path="url(#id_0)" d="M118.0 304.0L96.0 304.0L96.0 251.0C96.0 249.89543 96.89543 249.0 98.0 249.0L116.0 249.0C117.10457 249.0 118.0 249.89543 118.0 251.0Z" fill-rule="nonzero"/><path fill="#ea4335" clip-path="url(#id_0)" d="M118.0 304.0L96.0 304.0L96.0 251.0C96.0 249.89543 96.89543 249.0 98.0 249.0L116.0 249.0C117.10457 249.0 118.0 249.89543 118.0 251.0Z" fill-rule="nonzero"/><path stroke="#000000" stroke-width="2.0" stroke-linecap="butt" stroke-opacity="0.0" clip-path="url(#id_0)" d="M191.0 304.0L169.0 304.0L169.0 210.0C169.0 208.89543 169.89543 208.0 171.0 208.0L189.0 208.0C190.10457 208.0 191.0 208.89543 191.0 210.0Z" fill-rule="nonzero"/><path fill="#ea4335" clip-path="url(#id_0)" d="M191.0 304.0L169.0 304.0L169.0 210.0C169.0 208.89543 169.89543 208.0 171.0 208.0L189.0 208.0C190.10457 208.0 191.0 208.89543 191.0 210.0Z" fill-rule="nonzero"/><path stroke="#000000" stroke-width="2.0" stroke-linecap="butt" stroke-opacity="0.0" clip-path="url(#id_0)" d="M264.0 304.0L242.0 304.0L242.0 54.0C242.0 52.89543 242.89543 52.0 244.0 52.0L262.0 52.0C263.10458 52.0 264.0 52.89543 264.0 54.0Z" fill-rule="nonzero"/><path fill="#ea4335" clip-path="url(#id_0)" d="M264.0 304.0L242.0 304.0L242.0 54.0C242.0 52.89543 242.89543 52.0 244.0 52.0L262.0 52.0C263.10458 52.0 264.0 52.89543 264.0 54.0Z" fill-rule="nonzero"/><path stroke="#000000" stroke-width="2.0" stroke-linecap="butt" stroke-opacity="0.0" clip-path="url(#id_0)" d="M337.0 304.0L315.0 304.0L315.0 247.0C315.0 245.89543 315.89542 245.0 317.0 245.0L335.0 245.0C336.10458 245.0 337.0 245.89543 337.0 247.0Z" fill-rule="nonzero"/><path fill="#ea4335" clip-path="url(#id_0)" d="M337.0 304.0L315.0 304.0L315.0 247.0C315.0 245.89543 315.89542 245.0 317.0 245.0L335.0 245.0C336.10458 245.0 337.0 245.89543 337.0 247.0Z" fill-rule="nonzero"/><path stroke="#000000" stroke-width="2.0" stroke-linecap="butt" stroke-opacity="0.0" clip-path="url(#id_0)" d="M409.0 304.0L387.0 304.0L387.0 194.0C387.0 192.89543 387.89542 192.0 389.0 192.0L407.0 192.0C408.10458 192.0 409.0 192.89543 409.0 194.0Z" fill-rule="nonzero"/><path fill="#ea4335" clip-path="url(#id_0)" d="M409.0 304.0L387.0 304.0L387.0 194.0C387.0 192.89543 387.89542 192.0 389.0 192.0L407.0 192.0C408.10458 192.0 409.0 192.89543 409.0 194.0Z" fill-rule="nonzero"/><path stroke="#000000" stroke-width="2.0" stroke-linecap="butt" stroke-opacity="0.0" clip-path="url(#id_0)" d="M482.0 304.0L460.0 304.0L460.0 194.0C460.0 192.89543 460.89542 192.0 462.0 192.0L480.0 192.0C481.10458 192.0 482.0 192.89543 482.0 194.0Z" fill-rule="nonzero"/><path fill="#ea4335" clip-path="url(#id_0)" d="M482.0 304.0L460.0 304.0L460.0 194.0C460.0 192.89543 460.89542 192.0 462.0 192.0L480.0 192.0C481.10458 192.0 482.0 192.89543 482.0 194.0Z" fill-rule="nonzero"/><path stroke="#000000" stroke-width="2.0" stroke-linecap="butt" stroke-opacity="0.0" clip-path="url(#id_0)" d="M555.0 304.0L533.0 304.0L533.0 219.0C533.0 217.89543 533.89545 217.0 535.0 217.0L553.0 217.0C554.10455 217.0 555.0 217.89543 555.0 219.0Z" fill-rule="nonzero"/><path fill="#ea4335" clip-path="url(#id_0)" d="M555.0 304.0L533.0 304.0L533.0 219.0C533.0 217.89543 533.89545 217.0 535.0 217.0L553.0 217.0C554.10455 217.0 555.0 217.89543 555.0 219.0Z" fill-rule="nonzero"/><path fill="#000000" d="M37.01875 308.45L35.971874 308.45L35.971874 301.73126Q35.58125 302.09064 34.95625 302.46564Q34.346874 302.825 33.8625 302.9969L33.8625 301.98126Q34.7375 301.5594 35.39375 300.98126Q36.065624 300.3875 36.346874 299.825L37.01875 299.825L37.01875 308.45Z" fill-rule="nonzero"/><path fill="#000000" d="M33.05 238.585L34.159374 238.49126Q34.284374 239.30376 34.721874 239.71Q35.175 240.11626 35.815624 240.11626Q36.565624 240.11626 37.096874 239.53813Q37.628124 238.96 37.628124 238.0225Q37.628124 237.11626 37.1125 236.60063Q36.6125 236.06938 35.784374 236.06938Q35.284374 236.06938 34.8625 236.30376Q34.45625 236.53813 34.221874 236.8975L33.2375 236.7725L34.065624 232.36626L38.346874 232.36626L38.346874 233.36626L34.909374 233.36626L34.45625 235.67876Q35.221874 235.13188 36.065624 235.13188Q37.190624 235.13188 37.95625 235.91313Q38.7375 236.69438 38.7375 237.92876Q38.7375 239.085 38.065624 239.94438Q37.2375 240.97563 35.815624 240.97563Q34.64375 240.97563 33.89375 240.31938Q33.159374 239.66313 33.05 238.585Z" fill-rule="nonzero"/><path fill="#000000" d="M30.01875 211.71481L28.971874 211.71481L28.971874 204.99606Q28.58125 205.35544 27.95625 205.73044Q27.346874 206.08981 26.8625 206.26169L26.8625 205.24606Q27.7375 204.82419 28.39375 204.24606Q29.065624 203.65231 29.346874 203.08981L30.01875 203.08981L30.01875 211.71481ZM33.05 207.48044Q33.05 205.94919 33.3625 205.02731Q33.675 204.08981 34.284374 203.58981Q34.909374 203.08981 35.846874 203.08981Q36.534374 203.08981 37.05 203.37106Q37.58125 203.65231 37.925 204.18356Q38.26875 204.69919 38.45625 205.44919Q38.64375 206.19919 38.64375 207.48044Q38.64375 208.99606 38.33125 209.91794Q38.034374 210.83981 37.409374 211.35544Q36.8 211.85544 35.846874 211.85544Q34.6125 211.85544 33.89375 210.96481Q33.05 209.90231 33.05 207.48044ZM34.128124 207.48044Q34.128124 209.58981 34.628124 210.29294Q35.128124 210.99606 35.846874 210.99606Q36.58125 210.99606 37.065624 210.29294Q37.565624 209.58981 37.565624 207.48044Q37.565624 205.35544 37.065624 204.66794Q36.58125 203.96481 35.83125 203.96481Q35.1125 203.96481 34.675 204.57419Q34.128124 205.35544 34.128124 207.48044Z" fill-rule="nonzero"/><path fill="#000000" d="M26.05 141.84981L27.159374 141.75606Q27.284374 142.56856 27.721874 142.97481Q28.175 143.38106 28.815624 143.38106Q29.565624 143.38106 30.096874 142.80293Q30.628124 142.22481 30.628124 141.28731Q30.628124 140.38106 30.1125 139.86543Q29.6125 139.33418 28.784374 139.33418Q28.284374 139.33418 27.8625 139.56856Q27.45625 139.80293 27.221874 140.16231L26.2375 140.03731L27.065624 135.63106L31.346874 135.63106L31.346874 136.63106L27.909374 136.63106L27.45625 138.94356Q28.221874 138.39668 29.065624 138.39668Q30.190624 138.39668 30.95625 139.17793Q31.7375 139.95918 31.7375 141.19356Q31.7375 142.34981 31.065624 143.20918Q30.2375 144.24043 28.815624 144.24043Q27.64375 144.24043 26.89375 143.58418Q26.159374 142.92793 26.05 141.84981ZM33.05 139.86543Q33.05 138.33418 33.3625 137.41231Q33.675 136.47481 34.284374 135.97481Q34.909374 135.47481 35.846874 135.47481Q36.534374 135.47481 37.05 135.75606Q37.58125 136.03731 37.925 136.56856Q38.26875 137.08418 38.45625 137.83418Q38.64375 138.58418 38.64375 139.86543Q38.64375 141.38106 38.33125 142.30293Q38.034374 143.22481 37.409374 143.74043Q36.8 144.24043 35.846874 144.24043Q34.6125 144.24043 33.89375 143.34981Q33.05 142.28731 33.05 139.86543ZM34.128124 139.86543Q34.128124 141.97481 34.628124 142.67793Q35.128124 143.38106 35.846874 143.38106Q36.58125 143.38106 37.065624 142.67793Q37.565624 141.97481 37.565624 139.86543Q37.565624 137.74043 37.065624 137.05293Q36.58125 136.34981 35.83125 136.34981Q35.1125 136.34981 34.675 136.95918Q34.128124 137.74043 34.128124 139.86543Z" fill-rule="nonzero"/><path fill="#000000" d="M23.01875 114.979614L21.971874 114.979614L21.971874 108.260864Q21.58125 108.62024 20.95625 108.99524Q20.346874 109.354614 19.8625 109.52649L19.8625 108.510864Q20.7375 108.08899 21.39375 107.510864Q22.065624 106.917114 22.346874 106.354614L23.01875 106.354614L23.01875 114.979614ZM26.05 110.74524Q26.05 109.21399 26.3625 108.292114Q26.675 107.354614 27.284374 106.854614Q27.909374 106.354614 28.846874 106.354614Q29.534374 106.354614 30.05 106.635864Q30.58125 106.917114 30.925 107.448364Q31.26875 107.96399 31.45625 108.71399Q31.64375 109.46399 31.64375 110.74524Q31.64375 112.260864 31.33125 113.18274Q31.034374 114.104614 30.409374 114.62024Q29.8 115.12024 28.846874 115.12024Q27.6125 115.12024 26.89375 114.229614Q26.05 113.167114 26.05 110.74524ZM27.128124 110.74524Q27.128124 112.854614 27.628124 113.55774Q28.128124 114.260864 28.846874 114.260864Q29.58125 114.260864 30.065624 113.55774Q30.565624 112.854614 30.565624 110.74524Q30.565624 108.62024 30.065624 107.93274Q29.58125 107.229614 28.83125 107.229614Q28.1125 107.229614 27.675 107.83899Q27.128124 108.62024 27.128124 110.74524ZM33.05 110.74524Q33.05 109.21399 33.3625 108.292114Q33.675 107.354614 34.284374 106.854614Q34.909374 106.354614 35.846874 106.354614Q36.534374 106.354614 37.05 106.635864Q37.58125 106.917114 37.925 107.448364Q38.26875 107.96399 38.45625 108.71399Q38.64375 109.46399 38.64375 110.74524Q38.64375 112.260864 38.33125 113.18274Q38.034374 114.104614 37.409374 114.62024Q36.8 115.12024 35.846874 115.12024Q34.6125 115.12024 33.89375 114.229614Q33.05 113.167114 33.05 110.74524ZM34.128124 110.74524Q34.128124 112.854614 34.628124 113.55774Q35.128124 114.260864 35.846874 114.260864Q36.58125 114.260864 37.065624 113.55774Q37.565624 112.854614 37.565624 110.74524Q37.565624 108.62024 37.065624 107.93274Q36.58125 107.229614 35.83125 107.229614Q35.1125 107.229614 34.675 107.83899Q34.128124 108.62024 34.128124 110.74524Z" fill-rule="nonzero"/><path fill="#000000" d="M80.18718 321.45L80.18718 312.85626L83.15593 312.85626Q84.15593 312.85626 84.68718 312.98126Q85.421555 313.15314 85.93718 313.59064Q86.62468 314.16876 86.952805 315.075Q87.296555 315.96564 87.296555 317.10626Q87.296555 318.09064 87.06218 318.84064Q86.84343 319.59064 86.484055 320.09064Q86.12468 320.59064 85.68718 320.8719Q85.265305 321.15314 84.671555 321.3094Q84.077805 321.45 83.296555 321.45L80.18718 321.45ZM81.327805 320.4344L83.15593 320.4344Q84.015305 320.4344 84.49968 320.27814Q84.984055 320.1219 85.265305 319.825Q85.671555 319.4344 85.890305 318.7469Q86.12468 318.0594 86.12468 317.09064Q86.12468 315.7469 85.671555 315.02814Q85.234055 314.29376 84.609055 314.04376Q84.140305 313.8719 83.140305 313.8719L81.327805 313.8719L81.327805 320.4344ZM88.671555 318.34064Q88.671555 316.60626 89.62468 315.77814Q90.421555 315.09064 91.577805 315.09064Q92.859055 315.09064 93.671555 315.9344Q94.49968 316.7625 94.49968 318.2469Q94.49968 319.45 94.140305 320.1375Q93.78093 320.825 93.077805 321.21564Q92.390305 321.59064 91.577805 321.59064Q90.28093 321.59064 89.46843 320.7625Q88.671555 319.91876 88.671555 318.34064ZM89.74968 318.34064Q89.74968 319.52814 90.265305 320.1219Q90.796555 320.71564 91.577805 320.71564Q92.37468 320.71564 92.890305 320.1219Q93.40593 319.52814 93.40593 318.3094Q93.40593 317.15314 92.87468 316.5594Q92.359055 315.96564 91.577805 315.96564Q90.796555 315.96564 90.265305 316.5594Q89.74968 317.1375 89.74968 318.34064ZM96.046555 321.45L96.046555 315.23126L96.99968 315.23126L96.99968 316.16876Q97.359055 315.5125 97.65593 315.3094Q97.96843 315.09064 98.34343 315.09064Q98.87468 315.09064 99.421555 315.41876L99.06218 316.40314Q98.671555 316.16876 98.296555 316.16876Q97.93718 316.16876 97.65593 316.3875Q97.390305 316.59064 97.28093 316.96564Q97.09343 317.52814 97.09343 318.1844L97.09343 321.45L96.046555 321.45ZM100.06218 321.45L100.06218 315.23126L100.99968 315.23126L100.99968 316.10626Q101.296555 315.6375 101.78093 315.3719Q102.265305 315.09064 102.890305 315.09064Q103.577805 315.09064 104.015305 315.3719Q104.46843 315.65314 104.640305 316.16876Q105.390305 315.09064 106.56218 315.09064Q107.49968 315.09064 107.984055 315.60626Q108.484055 316.10626 108.484055 317.1844L108.484055 321.45L107.43718 321.45L107.43718 317.52814Q107.43718 316.90314 107.327805 316.6219Q107.234055 316.34064 106.96843 316.16876Q106.702805 315.9969 106.327805 315.9969Q105.671555 315.9969 105.234055 316.4344Q104.81218 316.8719 104.81218 317.84064L104.81218 321.45L103.74968 321.45L103.74968 317.40314Q103.74968 316.7 103.484055 316.35626Q103.234055 315.9969 102.65593 315.9969Q102.202805 315.9969 101.827805 316.23126Q101.452805 316.46564 101.28093 316.91876Q101.109055 317.3719 101.109055 318.21564L101.109055 321.45L100.06218 321.45Z" fill-rule="nonzero"/><path fill="#000000" d="M78.56218 328.075L78.56218 326.85626L79.62468 326.85626L79.62468 328.075L78.56218 328.075ZM78.56218 335.45L78.56218 329.23126L79.62468 329.23126L79.62468 335.45L78.56218 335.45ZM81.56218 335.45L81.56218 329.23126L82.49968 329.23126L82.49968 330.10626Q83.18718 329.09064 84.484055 329.09064Q85.046555 329.09064 85.515305 329.29376Q85.99968 329.4969 86.234055 329.825Q86.46843 330.15314 86.56218 330.59064Q86.609055 330.8875 86.609055 331.6219L86.609055 335.45L85.56218 335.45L85.56218 331.66876Q85.56218 331.0125 85.43718 330.7Q85.31218 330.3875 84.99968 330.2Q84.68718 329.9969 84.265305 329.9969Q83.59343 329.9969 83.09343 330.4344Q82.609055 330.85626 82.609055 332.04376L82.609055 335.45L81.56218 335.45ZM88.140305 333.59064L89.171555 333.4344Q89.265305 334.0594 89.65593 334.3875Q90.06218 334.71564 90.796555 334.71564Q91.515305 334.71564 91.859055 334.4344Q92.21843 334.1375 92.21843 333.73126Q92.21843 333.3719 91.90593 333.16876Q91.68718 333.02814 90.827805 332.8094Q89.671555 332.5125 89.21843 332.3094Q88.78093 332.09064 88.546555 331.71564Q88.31218 331.34064 88.31218 330.8719Q88.31218 330.46564 88.49968 330.10626Q88.68718 329.7469 89.015305 329.5125Q89.265305 329.34064 89.68718 329.21564Q90.109055 329.09064 90.609055 329.09064Q91.327805 329.09064 91.87468 329.3094Q92.43718 329.5125 92.702805 329.8719Q92.96843 330.23126 93.06218 330.825L92.03093 330.96564Q91.96843 330.4969 91.62468 330.23126Q91.296555 329.95 90.671555 329.95Q89.952805 329.95 89.640305 330.2Q89.327805 330.4344 89.327805 330.7625Q89.327805 330.96564 89.452805 331.1219Q89.59343 331.29376 89.859055 331.40314Q90.015305 331.46564 90.796555 331.66876Q91.921555 331.98126 92.359055 332.16876Q92.796555 332.35626 93.046555 332.71564Q93.296555 333.075 93.296555 333.6219Q93.296555 334.15314 92.984055 334.6219Q92.68718 335.075 92.109055 335.34064Q91.53093 335.59064 90.796555 335.59064Q89.577805 335.59064 88.93718 335.09064Q88.31218 334.575 88.140305 333.59064ZM95.56218 328.075L95.56218 326.85626L96.62468 326.85626L96.62468 328.075L95.56218 328.075ZM95.56218 335.45L95.56218 329.23126L96.62468 329.23126L96.62468 335.45L95.56218 335.45ZM102.59343 335.45L102.59343 334.66876Q101.99968 335.59064 100.859055 335.59064Q100.109055 335.59064 99.484055 335.1844Q98.859055 334.7625 98.515305 334.02814Q98.171555 333.29376 98.171555 332.34064Q98.171555 331.41876 98.484055 330.65314Q98.796555 329.8875 99.421555 329.4969Q100.046555 329.09064 100.81218 329.09064Q101.37468 329.09064 101.81218 329.325Q102.24968 329.5594 102.53093 329.9344L102.53093 326.85626L103.577805 326.85626L103.577805 335.45L102.59343 335.45ZM99.265305 332.34064Q99.265305 333.54376 99.765305 334.1375Q100.265305 334.71564 100.952805 334.71564Q101.640305 334.71564 102.12468 334.15314Q102.609055 333.59064 102.609055 332.4344Q102.609055 331.15314 102.109055 330.5594Q101.62468 329.96564 100.90593 329.96564Q100.202805 329.96564 99.734055 330.54376Q99.265305 331.10626 99.265305 332.34064ZM109.81218 333.45L110.90593 333.575Q110.65593 334.52814 109.952805 335.0594Q109.24968 335.59064 108.171555 335.59064Q106.81218 335.59064 105.99968 334.7469Q105.202805 333.90314 105.202805 332.3875Q105.202805 330.825 106.015305 329.96564Q106.827805 329.09064 108.109055 329.09064Q109.359055 329.09064 110.140305 329.9344Q110.93718 330.77814 110.93718 332.325Q110.93718 332.41876 110.93718 332.60626L106.296555 332.60626Q106.359055 333.6375 106.87468 334.1844Q107.390305 334.71564 108.171555 334.71564Q108.74968 334.71564 109.15593 334.41876Q109.577805 334.10626 109.81218 333.45ZM106.359055 331.7469L109.827805 331.7469Q109.765305 330.95 109.43718 330.5594Q108.921555 329.95 108.12468 329.95Q107.390305 329.95 106.890305 330.4344Q106.40593 330.91876 106.359055 331.7469Z" fill-rule="nonzero"/><path fill="#000000" d="M153.09874 321.45L153.09874 312.85626L156.06749 312.85626Q157.06749 312.85626 157.59874 312.98126Q158.33311 313.15314 158.84874 313.59064Q159.53624 314.16876 159.86436 315.075Q160.20811 315.96564 160.20811 317.10626Q160.20811 318.09064 159.97374 318.84064Q159.75499 319.59064 159.39561 320.09064Q159.03624 320.59064 158.59874 320.8719Q158.17686 321.15314 157.58311 321.3094Q156.98936 321.45 156.20811 321.45L153.09874 321.45ZM154.23936 320.4344L156.06749 320.4344Q156.92686 320.4344 157.41124 320.27814Q157.89561 320.1219 158.17686 319.825Q158.58311 319.4344 158.80186 318.7469Q159.03624 318.0594 159.03624 317.09064Q159.03624 315.7469 158.58311 315.02814Q158.14561 314.29376 157.52061 314.04376Q157.05186 313.8719 156.05186 313.8719L154.23936 313.8719L154.23936 320.4344ZM161.58311 318.34064Q161.58311 316.60626 162.53624 315.77814Q163.33311 315.09064 164.48936 315.09064Q165.77061 315.09064 166.58311 315.9344Q167.41124 316.7625 167.41124 318.2469Q167.41124 319.45 167.05186 320.1375Q166.69249 320.825 165.98936 321.21564Q165.30186 321.59064 164.48936 321.59064Q163.19249 321.59064 162.37999 320.7625Q161.58311 319.91876 161.58311 318.34064ZM162.66124 318.34064Q162.66124 319.52814 163.17686 320.1219Q163.70811 320.71564 164.48936 320.71564Q165.28624 320.71564 165.80186 320.1219Q166.31749 319.52814 166.31749 318.3094Q166.31749 317.15314 165.78624 316.5594Q165.27061 315.96564 164.48936 315.96564Q163.70811 315.96564 163.17686 316.5594Q162.66124 317.1375 162.66124 318.34064ZM168.95811 321.45L168.95811 315.23126L169.91124 315.23126L169.91124 316.16876Q170.27061 315.5125 170.56749 315.3094Q170.87999 315.09064 171.25499 315.09064Q171.78624 315.09064 172.33311 315.41876L171.97374 316.40314Q171.58311 316.16876 171.20811 316.16876Q170.84874 316.16876 170.56749 316.3875Q170.30186 316.59064 170.19249 316.96564Q170.00499 317.52814 170.00499 318.1844L170.00499 321.45L168.95811 321.45ZM172.97374 321.45L172.97374 315.23126L173.91124 315.23126L173.91124 316.10626Q174.20811 315.6375 174.69249 315.3719Q175.17686 315.09064 175.80186 315.09064Q176.48936 315.09064 176.92686 315.3719Q177.37999 315.65314 177.55186 316.16876Q178.30186 315.09064 179.47374 315.09064Q180.41124 315.09064 180.89561 315.60626Q181.39561 316.10626 181.39561 317.1844L181.39561 321.45L180.34874 321.45L180.34874 317.52814Q180.34874 316.90314 180.23936 316.6219Q180.14561 316.34064 179.87999 316.16876Q179.61436 315.9969 179.23936 315.9969Q178.58311 315.9969 178.14561 316.4344Q177.72374 316.8719 177.72374 317.84064L177.72374 321.45L176.66124 321.45L176.66124 317.40314Q176.66124 316.7 176.39561 316.35626Q176.14561 315.9969 175.56749 315.9969Q175.11436 315.9969 174.73936 316.23126Q174.36436 316.46564 174.19249 316.91876Q174.02061 317.3719 174.02061 318.21564L174.02061 321.45L172.97374 321.45Z" fill-rule="nonzero"/><path fill="#000000" d="M147.58311 332.34064Q147.58311 330.60626 148.53624 329.77814Q149.33311 329.09064 150.48936 329.09064Q151.77061 329.09064 152.58311 329.9344Q153.41124 330.7625 153.41124 332.2469Q153.41124 333.45 153.05186 334.1375Q152.69249 334.825 151.98936 335.21564Q151.30186 335.59064 150.48936 335.59064Q149.19249 335.59064 148.37999 334.7625Q147.58311 333.91876 147.58311 332.34064ZM148.66124 332.34064Q148.66124 333.52814 149.17686 334.1219Q149.70811 334.71564 150.48936 334.71564Q151.28624 334.71564 151.80186 334.1219Q152.31749 333.52814 152.31749 332.3094Q152.31749 331.15314 151.78624 330.5594Q151.27061 329.96564 150.48936 329.96564Q149.70811 329.96564 149.17686 330.5594Q148.66124 331.1375 148.66124 332.34064ZM159.05186 335.45L159.05186 334.52814Q158.31749 335.59064 157.06749 335.59064Q156.52061 335.59064 156.03624 335.3875Q155.56749 335.16876 155.33311 334.85626Q155.09874 334.52814 155.00499 334.0594Q154.94249 333.7625 154.94249 333.075L154.94249 329.23126L156.00499 329.23126L156.00499 332.6844Q156.00499 333.4969 156.06749 333.79376Q156.16124 334.2 156.47374 334.45Q156.80186 334.6844 157.28624 334.6844Q157.75499 334.6844 158.16124 334.45Q158.58311 334.2 158.75499 333.77814Q158.94249 333.35626 158.94249 332.5594L158.94249 329.23126L159.98936 329.23126L159.98936 335.45L159.05186 335.45ZM164.27061 334.5125L164.42686 335.4344Q163.97374 335.52814 163.62999 335.52814Q163.05186 335.52814 162.73936 335.35626Q162.42686 335.16876 162.28624 334.8719Q162.16124 334.575 162.16124 333.6219L162.16124 330.04376L161.39561 330.04376L161.39561 329.23126L162.16124 329.23126L162.16124 327.6844L163.20811 327.0594L163.20811 329.23126L164.27061 329.23126L164.27061 330.04376L163.20811 330.04376L163.20811 333.6844Q163.20811 334.1375 163.25499 334.2625Q163.31749 334.3875 163.44249 334.46564Q163.56749 334.54376 163.80186 334.54376Q163.98936 334.54376 164.27061 334.5125ZM164.55186 333.59064L165.58311 333.4344Q165.67686 334.0594 166.06749 334.3875Q166.47374 334.71564 167.20811 334.71564Q167.92686 334.71564 168.27061 334.4344Q168.62999 334.1375 168.62999 333.73126Q168.62999 333.3719 168.31749 333.16876Q168.09874 333.02814 167.23936 332.8094Q166.08311 332.5125 165.62999 332.3094Q165.19249 332.09064 164.95811 331.71564Q164.72374 331.34064 164.72374 330.8719Q164.72374 330.46564 164.91124 330.10626Q165.09874 329.7469 165.42686 329.5125Q165.67686 329.34064 166.09874 329.21564Q166.52061 329.09064 167.02061 329.09064Q167.73936 329.09064 168.28624 329.3094Q168.84874 329.5125 169.11436 329.8719Q169.37999 330.23126 169.47374 330.825L168.44249 330.96564Q168.37999 330.4969 168.03624 330.23126Q167.70811 329.95 167.08311 329.95Q166.36436 329.95 166.05186 330.2Q165.73936 330.4344 165.73936 330.7625Q165.73936 330.96564 165.86436 331.1219Q166.00499 331.29376 166.27061 331.40314Q166.42686 331.46564 167.20811 331.66876Q168.33311 331.98126 168.77061 332.16876Q169.20811 332.35626 169.45811 332.71564Q169.70811 333.075 169.70811 333.6219Q169.70811 334.15314 169.39561 334.6219Q169.09874 335.075 168.52061 335.34064Q167.94249 335.59064 167.20811 335.59064Q165.98936 335.59064 165.34874 335.09064Q164.72374 334.575 164.55186 333.59064ZM171.97374 328.075L171.97374 326.85626L173.03624 326.85626L173.03624 328.075L171.97374 328.075ZM171.97374 335.45L171.97374 329.23126L173.03624 329.23126L173.03624 335.45L171.97374 335.45ZM179.00499 335.45L179.00499 334.66876Q178.41124 335.59064 177.27061 335.59064Q176.52061 335.59064 175.89561 335.1844Q175.27061 334.7625 174.92686 334.02814Q174.58311 333.29376 174.58311 332.34064Q174.58311 331.41876 174.89561 330.65314Q175.20811 329.8875 175.83311 329.4969Q176.45811 329.09064 177.22374 329.09064Q177.78624 329.09064 178.22374 329.325Q178.66124 329.5594 178.94249 329.9344L178.94249 326.85626L179.98936 326.85626L179.98936 335.45L179.00499 335.45ZM175.67686 332.34064Q175.67686 333.54376 176.17686 334.1375Q176.67686 334.71564 177.36436 334.71564Q178.05186 334.71564 178.53624 334.15314Q179.02061 333.59064 179.02061 332.4344Q179.02061 331.15314 178.52061 330.5594Q178.03624 329.96564 177.31749 329.96564Q176.61436 329.96564 176.14561 330.54376Q175.67686 331.10626 175.67686 332.34064ZM186.22374 333.45L187.31749 333.575Q187.06749 334.52814 186.36436 335.0594Q185.66124 335.59064 184.58311 335.59064Q183.22374 335.59064 182.41124 334.7469Q181.61436 333.90314 181.61436 332.3875Q181.61436 330.825 182.42686 329.96564Q183.23936 329.09064 184.52061 329.09064Q185.77061 329.09064 186.55186 329.9344Q187.34874 330.77814 187.34874 332.325Q187.34874 332.41876 187.34874 332.60626L182.70811 332.60626Q182.77061 333.6375 183.28624 334.1844Q183.80186 334.71564 184.58311 334.71564Q185.16124 334.71564 185.56749 334.41876Q185.98936 334.10626 186.22374 333.45ZM182.77061 331.7469L186.23936 331.7469Q186.17686 330.95 185.84874 330.5594Q185.33311 329.95 184.53624 329.95Q183.80186 329.95 183.30186 330.4344Q182.81749 330.91876 182.77061 331.7469Z" fill-rule="nonzero"/><path fill="#000000" d="M224.07281 321.45L224.07281 312.85626L229.86969 312.85626L229.86969 313.8719L225.21344 313.8719L225.21344 316.52814L229.24469 316.52814L229.24469 317.54376L225.21344 317.54376L225.21344 321.45L224.07281 321.45ZM230.49469 318.34064Q230.49469 316.60626 231.44781 315.77814Q232.24469 315.09064 233.40094 315.09064Q234.68219 315.09064 235.49469 315.9344Q236.32281 316.7625 236.32281 318.2469Q236.32281 319.45 235.96344 320.1375Q235.60406 320.825 234.90094 321.21564Q234.21344 321.59064 233.40094 321.59064Q232.10406 321.59064 231.29156 320.7625Q230.49469 319.91876 230.49469 318.34064ZM231.57281 318.34064Q231.57281 319.52814 232.08844 320.1219Q232.61969 320.71564 233.40094 320.71564Q234.19781 320.71564 234.71344 320.1219Q235.22906 319.52814 235.22906 318.3094Q235.22906 317.15314 234.69781 316.5594Q234.18219 315.96564 233.40094 315.96564Q232.61969 315.96564 232.08844 316.5594Q231.57281 317.1375 231.57281 318.34064ZM237.86969 321.45L237.86969 315.23126L238.82281 315.23126L238.82281 316.16876Q239.18219 315.5125 239.47906 315.3094Q239.79156 315.09064 240.16656 315.09064Q240.69781 315.09064 241.24469 315.41876L240.88531 316.40314Q240.49469 316.16876 240.11969 316.16876Q239.76031 316.16876 239.47906 316.3875Q239.21344 316.59064 239.10406 316.96564Q238.91656 317.52814 238.91656 318.1844L238.91656 321.45L237.86969 321.45ZM246.13531 319.45L247.22906 319.575Q246.97906 320.52814 246.27594 321.0594Q245.57281 321.59064 244.49469 321.59064Q243.13531 321.59064 242.32281 320.7469Q241.52594 319.90314 241.52594 318.3875Q241.52594 316.825 242.33844 315.96564Q243.15094 315.09064 244.43219 315.09064Q245.68219 315.09064 246.46344 315.9344Q247.26031 316.77814 247.26031 318.325Q247.26031 318.41876 247.26031 318.60626L242.61969 318.60626Q242.68219 319.6375 243.19781 320.1844Q243.71344 320.71564 244.49469 320.71564Q245.07281 320.71564 245.47906 320.41876Q245.90094 320.10626 246.13531 319.45ZM242.68219 317.7469L246.15094 317.7469Q246.08844 316.95 245.76031 316.5594Q245.24469 315.95 244.44781 315.95Q243.71344 315.95 243.21344 316.4344Q242.72906 316.91876 242.68219 317.7469ZM248.46344 319.59064L249.49469 319.4344Q249.58844 320.0594 249.97906 320.3875Q250.38531 320.71564 251.11969 320.71564Q251.83844 320.71564 252.18219 320.4344Q252.54156 320.1375 252.54156 319.73126Q252.54156 319.3719 252.22906 319.16876Q252.01031 319.02814 251.15094 318.8094Q249.99469 318.5125 249.54156 318.3094Q249.10406 318.09064 248.86969 317.71564Q248.63531 317.34064 248.63531 316.8719Q248.63531 316.46564 248.82281 316.10626Q249.01031 315.7469 249.33844 315.5125Q249.58844 315.34064 250.01031 315.21564Q250.43219 315.09064 250.93219 315.09064Q251.65094 315.09064 252.19781 315.3094Q252.76031 315.5125 253.02594 315.8719Q253.29156 316.23126 253.38531 316.825L252.35406 316.96564Q252.29156 316.4969 251.94781 316.23126Q251.61969 315.95 250.99469 315.95Q250.27594 315.95 249.96344 316.2Q249.65094 316.4344 249.65094 316.7625Q249.65094 316.96564 249.77594 317.1219Q249.91656 317.29376 250.18219 317.40314Q250.33844 317.46564 251.11969 317.66876Q252.24469 317.98126 252.68219 318.16876Q253.11969 318.35626 253.36969 318.71564Q253.61969 319.075 253.61969 319.6219Q253.61969 320.15314 253.30719 320.6219Q253.01031 321.075 252.43219 321.34064Q251.85406 321.59064 251.11969 321.59064Q249.90094 321.59064 249.26031 321.09064Q248.63531 320.575 248.46344 319.59064ZM258.1822 320.5125L258.33844 321.4344Q257.8853 321.52814 257.54156 321.52814Q256.96344 321.52814 256.65094 321.35626Q256.33844 321.16876 256.1978 320.8719Q256.0728 320.575 256.0728 319.6219L256.0728 316.04376L255.30719 316.04376L255.30719 315.23126L256.0728 315.23126L256.0728 313.6844L257.1197 313.0594L257.1197 315.23126L258.1822 315.23126L258.1822 316.04376L257.1197 316.04376L257.1197 319.6844Q257.1197 320.1375 257.16656 320.2625Q257.22906 320.3875 257.35406 320.46564Q257.47906 320.54376 257.71344 320.54376Q257.90094 320.54376 258.1822 320.5125Z" fill-rule="nonzero"/><path fill="#000000" d="M301.92188 321.45L301.92188 312.85626L304.89062 312.85626Q305.89062 312.85626 306.42188 312.98126Q307.15625 313.15314 307.67188 313.59064Q308.35938 314.16876 308.6875 315.075Q309.03125 315.96564 309.03125 317.10626Q309.03125 318.09064 308.79688 318.84064Q308.57812 319.59064 308.21875 320.09064Q307.85938 320.59064 307.42188 320.8719Q307.0 321.15314 306.40625 321.3094Q305.8125 321.45 305.03125 321.45L301.92188 321.45ZM303.0625 320.4344L304.89062 320.4344Q305.75 320.4344 306.23438 320.27814Q306.71875 320.1219 307.0 319.825Q307.40625 319.4344 307.625 318.7469Q307.85938 318.0594 307.85938 317.09064Q307.85938 315.7469 307.40625 315.02814Q306.96875 314.29376 306.34375 314.04376Q305.875 313.8719 304.875 313.8719L303.0625 313.8719L303.0625 320.4344ZM313.10938 321.45L313.10938 313.8719L310.28125 313.8719L310.28125 312.85626L317.09375 312.85626L317.09375 313.8719L314.25 313.8719L314.25 321.45L313.10938 321.45ZM323.5625 312.85626L324.70312 312.85626L324.70312 317.825Q324.70312 319.1219 324.40625 319.8875Q324.10938 320.6375 323.34375 321.1219Q322.57812 321.59064 321.34375 321.59064Q320.14062 321.59064 319.35938 321.1844Q318.59375 320.7625 318.26562 319.98126Q317.9375 319.1844 317.9375 317.825L317.9375 312.85626L319.07812 312.85626L319.07812 317.8094Q319.07812 318.9344 319.28125 319.46564Q319.5 319.9969 320.0 320.29376Q320.51562 320.575 321.25 320.575Q322.5 320.575 323.03125 320.0125Q323.5625 319.4344 323.5625 317.8094L323.5625 312.85626Z" fill-rule="nonzero"/><path fill="#000000" d="M374.83344 321.45L374.83344 312.85626L377.8022 312.85626Q378.8022 312.85626 379.33344 312.98126Q380.0678 313.15314 380.58344 313.59064Q381.27094 314.16876 381.59906 315.075Q381.9428 315.96564 381.9428 317.10626Q381.9428 318.09064 381.70844 318.84064Q381.4897 319.59064 381.1303 320.09064Q380.77094 320.59064 380.33344 320.8719Q379.91156 321.15314 379.3178 321.3094Q378.72406 321.45 377.9428 321.45L374.83344 321.45ZM375.97406 320.4344L377.8022 320.4344Q378.66156 320.4344 379.14594 320.27814Q379.6303 320.1219 379.91156 319.825Q380.3178 319.4344 380.53656 318.7469Q380.77094 318.0594 380.77094 317.09064Q380.77094 315.7469 380.3178 315.02814Q379.8803 314.29376 379.2553 314.04376Q378.78656 313.8719 377.78656 313.8719L375.97406 313.8719L375.97406 320.4344ZM386.02094 321.45L386.02094 313.8719L383.1928 313.8719L383.1928 312.85626L390.0053 312.85626L390.0053 313.8719L387.16156 313.8719L387.16156 321.45L386.02094 321.45ZM396.47406 312.85626L397.6147 312.85626L397.6147 317.825Q397.6147 319.1219 397.3178 319.8875Q397.02094 320.6375 396.2553 321.1219Q395.4897 321.59064 394.2553 321.59064Q393.0522 321.59064 392.27094 321.1844Q391.5053 320.7625 391.1772 319.98126Q390.84906 319.1844 390.84906 317.825L390.84906 312.85626L391.9897 312.85626L391.9897 317.8094Q391.9897 318.9344 392.1928 319.46564Q392.41156 319.9969 392.91156 320.29376Q393.4272 320.575 394.16156 320.575Q395.41156 320.575 395.9428 320.0125Q396.47406 319.4344 396.47406 317.8094L396.47406 312.85626Z" fill-rule="nonzero"/><path fill="#000000" d="M366.3178 332.34064Q366.3178 330.60626 367.27094 329.77814Q368.0678 329.09064 369.22406 329.09064Q370.5053 329.09064 371.3178 329.9344Q372.14594 330.7625 372.14594 332.2469Q372.14594 333.45 371.78656 334.1375Q371.4272 334.825 370.72406 335.21564Q370.03656 335.59064 369.22406 335.59064Q367.9272 335.59064 367.1147 334.7625Q366.3178 333.91876 366.3178 332.34064ZM367.39594 332.34064Q367.39594 333.52814 367.91156 334.1219Q368.4428 334.71564 369.22406 334.71564Q370.02094 334.71564 370.53656 334.1219Q371.0522 333.52814 371.0522 332.3094Q371.0522 331.15314 370.52094 330.5594Q370.0053 329.96564 369.22406 329.96564Q368.4428 329.96564 367.91156 330.5594Q367.39594 331.1375 367.39594 332.34064ZM377.78656 335.45L377.78656 334.52814Q377.0522 335.59064 375.8022 335.59064Q375.2553 335.59064 374.77094 335.3875Q374.3022 335.16876 374.0678 334.85626Q373.83344 334.52814 373.7397 334.0594Q373.6772 333.7625 373.6772 333.075L373.6772 329.23126L374.7397 329.23126L374.7397 332.6844Q374.7397 333.4969 374.8022 333.79376Q374.89594 334.2 375.20844 334.45Q375.53656 334.6844 376.02094 334.6844Q376.4897 334.6844 376.89594 334.45Q377.3178 334.2 377.4897 333.77814Q377.6772 333.35626 377.6772 332.5594L377.6772 329.23126L378.72406 329.23126L378.72406 335.45L377.78656 335.45ZM383.0053 334.5125L383.16156 335.4344Q382.70844 335.52814 382.3647 335.52814Q381.78656 335.52814 381.47406 335.35626Q381.16156 335.16876 381.02094 334.8719Q380.89594 334.575 380.89594 333.6219L380.89594 330.04376L380.1303 330.04376L380.1303 329.23126L380.89594 329.23126L380.89594 327.6844L381.9428 327.0594L381.9428 329.23126L383.0053 329.23126L383.0053 330.04376L381.9428 330.04376L381.9428 333.6844Q381.9428 334.1375 381.9897 334.2625Q382.0522 334.3875 382.1772 334.46564Q382.3022 334.54376 382.53656 334.54376Q382.72406 334.54376 383.0053 334.5125ZM383.28656 333.59064L384.3178 333.4344Q384.41156 334.0594 384.8022 334.3875Q385.20844 334.71564 385.9428 334.71564Q386.66156 334.71564 387.0053 334.4344Q387.3647 334.1375 387.3647 333.73126Q387.3647 333.3719 387.0522 333.16876Q386.83344 333.02814 385.97406 332.8094Q384.8178 332.5125 384.3647 332.3094Q383.9272 332.09064 383.6928 331.71564Q383.45844 331.34064 383.45844 330.8719Q383.45844 330.46564 383.64594 330.10626Q383.83344 329.7469 384.16156 329.5125Q384.41156 329.34064 384.83344 329.21564Q385.2553 329.09064 385.7553 329.09064Q386.47406 329.09064 387.02094 329.3094Q387.58344 329.5125 387.84906 329.8719Q388.1147 330.23126 388.20844 330.825L387.1772 330.96564Q387.1147 330.4969 386.77094 330.23126Q386.4428 329.95 385.8178 329.95Q385.09906 329.95 384.78656 330.2Q384.47406 330.4344 384.47406 330.7625Q384.47406 330.96564 384.59906 331.1219Q384.7397 331.29376 385.0053 331.40314Q385.16156 331.46564 385.9428 331.66876Q387.0678 331.98126 387.5053 332.16876Q387.9428 332.35626 388.1928 332.71564Q388.4428 333.075 388.4428 333.6219Q388.4428 334.15314 388.1303 334.6219Q387.83344 335.075 387.2553 335.34064Q386.6772 335.59064 385.9428 335.59064Q384.72406 335.59064 384.08344 335.09064Q383.45844 334.575 383.28656 333.59064ZM390.70844 328.075L390.70844 326.85626L391.77094 326.85626L391.77094 328.075L390.70844 328.075ZM390.70844 335.45L390.70844 329.23126L391.77094 329.23126L391.77094 335.45L390.70844 335.45ZM397.7397 335.45L397.7397 334.66876Q397.14594 335.59064 396.0053 335.59064Q395.2553 335.59064 394.6303 335.1844Q394.0053 334.7625 393.66156 334.02814Q393.3178 333.29376 393.3178 332.34064Q393.3178 331.41876 393.6303 330.65314Q393.9428 329.8875 394.5678 329.4969Q395.1928 329.09064 395.95844 329.09064Q396.52094 329.09064 396.95844 329.325Q397.39594 329.5594 397.6772 329.9344L397.6772 326.85626L398.72406 326.85626L398.72406 335.45L397.7397 335.45ZM394.41156 332.34064Q394.41156 333.54376 394.91156 334.1375Q395.41156 334.71564 396.09906 334.71564Q396.78656 334.71564 397.27094 334.15314Q397.7553 333.59064 397.7553 332.4344Q397.7553 331.15314 397.2553 330.5594Q396.77094 329.96564 396.0522 329.96564Q395.34906 329.96564 394.8803 330.54376Q394.41156 331.10626 394.41156 332.34064ZM404.95844 333.45L406.0522 333.575Q405.8022 334.52814 405.09906 335.0594Q404.39594 335.59064 403.3178 335.59064Q401.95844 335.59064 401.14594 334.7469Q400.34906 333.90314 400.34906 332.3875Q400.34906 330.825 401.16156 329.96564Q401.97406 329.09064 403.2553 329.09064Q404.5053 329.09064 405.28656 329.9344Q406.08344 330.77814 406.08344 332.325Q406.08344 332.41876 406.08344 332.60626L401.4428 332.60626Q401.5053 333.6375 402.02094 334.1844Q402.53656 334.71564 403.3178 334.71564Q403.89594 334.71564 404.3022 334.41876Q404.72406 334.10626 404.95844 333.45ZM401.5053 331.7469L404.97406 331.7469Q404.91156 330.95 404.58344 330.5594Q404.0678 329.95 403.27094 329.95Q402.53656 329.95 402.03656 330.4344Q401.5522 330.91876 401.5053 331.7469Z" fill-rule="nonzero"/><path fill="#000000" d="M447.29187 321.45L447.29187 312.85626L448.41687 312.85626L448.41687 316.3875L452.88562 316.3875L452.88562 312.85626L454.02625 312.85626L454.02625 321.45L452.88562 321.45L452.88562 317.40314L448.41687 317.40314L448.41687 321.45L447.29187 321.45ZM456.12 314.075L456.12 312.85626L457.1825 312.85626L457.1825 314.075L456.12 314.075ZM456.12 321.45L456.12 315.23126L457.1825 315.23126L457.1825 321.45L456.12 321.45ZM458.91687 321.96564L459.94812 322.1219Q460.01062 322.59064 460.3075 322.8094Q460.69812 323.10626 461.37 323.10626Q462.10437 323.10626 462.495 322.8094Q462.90125 322.5125 463.04187 321.9969Q463.13562 321.66876 463.12 320.6375Q462.4325 321.45 461.40125 321.45Q460.12 321.45 459.41687 320.52814Q458.71375 319.59064 458.71375 318.3094Q458.71375 317.41876 459.02625 316.66876Q459.35437 315.90314 459.96375 315.4969Q460.57312 315.09064 461.40125 315.09064Q462.51062 315.09064 463.22937 315.98126L463.22937 315.23126L464.19812 315.23126L464.19812 320.60626Q464.19812 322.0594 463.90125 322.66876Q463.60437 323.27814 462.96375 323.6219Q462.32312 323.98126 461.38562 323.98126Q460.27625 323.98126 459.58875 323.48126Q458.90125 322.98126 458.91687 321.96564ZM459.79187 318.23126Q459.79187 319.45 460.27625 320.0125Q460.76062 320.575 461.495 320.575Q462.22937 320.575 462.71375 320.0125Q463.21375 319.45 463.21375 318.2625Q463.21375 317.1219 462.69812 316.54376Q462.19812 315.96564 461.47937 315.96564Q460.77625 315.96564 460.27625 316.54376Q459.79187 317.10626 459.79187 318.23126ZM466.12 321.45L466.12 312.85626L467.16687 312.85626L467.16687 315.9344Q467.90125 315.09064 469.02625 315.09064Q469.72937 315.09064 470.22937 315.3719Q470.745 315.6375 470.96375 316.1219Q471.1825 316.59064 471.1825 317.5125L471.1825 321.45L470.13562 321.45L470.13562 317.5125Q470.13562 316.71564 469.79187 316.35626Q469.44812 315.9969 468.82312 315.9969Q468.35437 315.9969 467.9325 316.2469Q467.52625 316.48126 467.33875 316.90314Q467.16687 317.3094 467.16687 318.04376L467.16687 321.45L466.12 321.45Z" fill-rule="nonzero"/><path fill="#000000" d="M444.65125 335.45L444.65125 334.66876Q444.0575 335.59064 442.91687 335.59064Q442.16687 335.59064 441.54187 335.1844Q440.91687 334.7625 440.57312 334.02814Q440.22937 333.29376 440.22937 332.34064Q440.22937 331.41876 440.54187 330.65314Q440.85437 329.8875 441.47937 329.4969Q442.10437 329.09064 442.87 329.09064Q443.4325 329.09064 443.87 329.325Q444.3075 329.5594 444.58875 329.9344L444.58875 326.85626L445.63562 326.85626L445.63562 335.45L444.65125 335.45ZM441.32312 332.34064Q441.32312 333.54376 441.82312 334.1375Q442.32312 334.71564 443.01062 334.71564Q443.69812 334.71564 444.1825 334.15314Q444.66687 333.59064 444.66687 332.4344Q444.66687 331.15314 444.16687 330.5594Q443.6825 329.96564 442.96375 329.96564Q442.26062 329.96564 441.79187 330.54376Q441.32312 331.10626 441.32312 332.34064ZM451.87 333.45L452.96375 333.575Q452.71375 334.52814 452.01062 335.0594Q451.3075 335.59064 450.22937 335.59064Q448.87 335.59064 448.0575 334.7469Q447.26062 333.90314 447.26062 332.3875Q447.26062 330.825 448.07312 329.96564Q448.88562 329.09064 450.16687 329.09064Q451.41687 329.09064 452.19812 329.9344Q452.995 330.77814 452.995 332.325Q452.995 332.41876 452.995 332.60626L448.35437 332.60626Q448.41687 333.6375 448.9325 334.1844Q449.44812 334.71564 450.22937 334.71564Q450.8075 334.71564 451.21375 334.41876Q451.63562 334.10626 451.87 333.45ZM448.41687 331.7469L451.88562 331.7469Q451.82312 330.95 451.495 330.5594Q450.97937 329.95 450.1825 329.95Q449.44812 329.95 448.94812 330.4344Q448.46375 330.91876 448.41687 331.7469ZM454.62 335.45L454.62 329.23126L455.5575 329.23126L455.5575 330.10626Q456.245 329.09064 457.54187 329.09064Q458.10437 329.09064 458.57312 329.29376Q459.0575 329.4969 459.29187 329.825Q459.52625 330.15314 459.62 330.59064Q459.66687 330.8875 459.66687 331.6219L459.66687 335.45L458.62 335.45L458.62 331.66876Q458.62 331.0125 458.495 330.7Q458.37 330.3875 458.0575 330.2Q457.745 329.9969 457.32312 329.9969Q456.65125 329.9969 456.15125 330.4344Q455.66687 330.85626 455.66687 332.04376L455.66687 335.45L454.62 335.45ZM461.19812 333.59064L462.22937 333.4344Q462.32312 334.0594 462.71375 334.3875Q463.12 334.71564 463.85437 334.71564Q464.57312 334.71564 464.91687 334.4344Q465.27625 334.1375 465.27625 333.73126Q465.27625 333.3719 464.96375 333.16876Q464.745 333.02814 463.88562 332.8094Q462.72937 332.5125 462.27625 332.3094Q461.83875 332.09064 461.60437 331.71564Q461.37 331.34064 461.37 330.8719Q461.37 330.46564 461.5575 330.10626Q461.745 329.7469 462.07312 329.5125Q462.32312 329.34064 462.745 329.21564Q463.16687 329.09064 463.66687 329.09064Q464.38562 329.09064 464.9325 329.3094Q465.495 329.5125 465.76062 329.8719Q466.02625 330.23126 466.12 330.825L465.08875 330.96564Q465.02625 330.4969 464.6825 330.23126Q464.35437 329.95 463.72937 329.95Q463.01062 329.95 462.69812 330.2Q462.38562 330.4344 462.38562 330.7625Q462.38562 330.96564 462.51062 331.1219Q462.65125 331.29376 462.91687 331.40314Q463.07312 331.46564 463.85437 331.66876Q464.97937 331.98126 465.41687 332.16876Q465.85437 332.35626 466.10437 332.71564Q466.35437 333.075 466.35437 333.6219Q466.35437 334.15314 466.04187 334.6219Q465.745 335.075 465.16687 335.34064Q464.58875 335.59064 463.85437 335.59064Q462.63562 335.59064 461.995 335.09064Q461.37 334.575 461.19812 333.59064ZM468.62 328.075L468.62 326.85626L469.6825 326.85626L469.6825 328.075L468.62 328.075ZM468.62 335.45L468.62 329.23126L469.6825 329.23126L469.6825 335.45L468.62 335.45ZM473.91687 334.5125L474.07312 335.4344Q473.62 335.52814 473.27625 335.52814Q472.69812 335.52814 472.38562 335.35626Q472.07312 335.16876 471.9325 334.8719Q471.8075 334.575 471.8075 333.6219L471.8075 330.04376L471.04187 330.04376L471.04187 329.23126L471.8075 329.23126L471.8075 327.6844L472.85437 327.0594L472.85437 329.23126L473.91687 329.23126L473.91687 330.04376L472.85437 330.04376L472.85437 333.6844Q472.85437 334.1375 472.90125 334.2625Q472.96375 334.3875 473.08875 334.46564Q473.21375 334.54376 473.44812 334.54376Q473.63562 334.54376 473.91687 334.5125ZM474.57312 337.84064L474.44812 336.85626Q474.79187 336.95 475.0575 336.95Q475.40125 336.95 475.60437 336.825Q475.82312 336.71564 475.96375 336.5125Q476.0575 336.34064 476.29187 335.71564Q476.3075 335.6375 476.38562 335.46564L474.01062 329.23126L475.15125 329.23126L476.44812 332.825Q476.69812 333.5125 476.90125 334.27814Q477.08875 333.54376 477.33875 332.85626L478.66687 329.23126L479.71375 329.23126L477.35437 335.5594Q476.96375 336.575 476.76062 336.96564Q476.47937 337.4969 476.10437 337.73126Q475.745 337.98126 475.245 337.98126Q474.94812 337.98126 474.57312 337.84064Z" fill-rule="nonzero"/><path fill="#000000" d="M432.6825 348.6844Q432.08875 349.1844 431.54187 349.3875Q431.01062 349.59064 430.38562 349.59064Q429.35437 349.59064 428.8075 349.09064Q428.26062 348.59064 428.26062 347.8094Q428.26062 347.35626 428.46375 346.98126Q428.66687 346.59064 429.01062 346.3719Q429.35437 346.1375 429.77625 346.02814Q430.07312 345.9344 430.71375 345.85626Q431.97937 345.71564 432.58875 345.4969Q432.58875 345.27814 432.58875 345.23126Q432.58875 344.575 432.29187 344.3094Q431.88562 343.96564 431.08875 343.96564Q430.35437 343.96564 429.995 344.23126Q429.63562 344.48126 429.46375 345.1375L428.4325 344.9969Q428.57312 344.34064 428.90125 343.9344Q429.22937 343.52814 429.83875 343.3094Q430.44812 343.09064 431.245 343.09064Q432.04187 343.09064 432.54187 343.27814Q433.04187 343.46564 433.27625 343.7469Q433.51062 344.02814 433.60437 344.46564Q433.65125 344.73126 433.65125 345.4344L433.65125 346.84064Q433.65125 348.3094 433.71375 348.7Q433.79187 349.09064 433.995 349.45L432.88562 349.45Q432.72937 349.1219 432.6825 348.6844ZM432.58875 346.325Q432.01062 346.5594 430.87 346.73126Q430.21375 346.825 429.94812 346.95Q429.6825 347.0594 429.52625 347.27814Q429.38562 347.4969 429.38562 347.77814Q429.38562 348.2 429.69812 348.48126Q430.02625 348.7625 430.63562 348.7625Q431.245 348.7625 431.71375 348.4969Q432.19812 348.23126 432.41687 347.7625Q432.58875 347.40314 432.58875 346.71564L432.58875 346.325ZM435.62 351.84064L435.62 343.23126L436.57312 343.23126L436.57312 344.02814Q436.91687 343.5594 437.33875 343.325Q437.77625 343.09064 438.38562 343.09064Q439.1825 343.09064 439.79187 343.4969Q440.40125 343.90314 440.69812 344.65314Q441.01062 345.40314 441.01062 346.29376Q441.01062 347.2469 440.66687 348.0125Q440.33875 348.77814 439.6825 349.1844Q439.02625 349.59064 438.3075 349.59064Q437.77625 349.59064 437.35437 349.3719Q436.9325 349.1375 436.66687 348.8094L436.66687 351.84064L435.62 351.84064ZM436.57312 346.3719Q436.57312 347.575 437.0575 348.15314Q437.54187 348.71564 438.22937 348.71564Q438.9325 348.71564 439.4325 348.1219Q439.9325 347.52814 439.9325 346.27814Q439.9325 345.09064 439.44812 344.5125Q438.96375 343.91876 438.27625 343.91876Q437.60437 343.91876 437.08875 344.54376Q436.57312 345.16876 436.57312 346.3719ZM446.6825 348.6844Q446.08875 349.1844 445.54187 349.3875Q445.01062 349.59064 444.38562 349.59064Q443.35437 349.59064 442.8075 349.09064Q442.26062 348.59064 442.26062 347.8094Q442.26062 347.35626 442.46375 346.98126Q442.66687 346.59064 443.01062 346.3719Q443.35437 346.1375 443.77625 346.02814Q444.07312 345.9344 444.71375 345.85626Q445.97937 345.71564 446.58875 345.4969Q446.58875 345.27814 446.58875 345.23126Q446.58875 344.575 446.29187 344.3094Q445.88562 343.96564 445.08875 343.96564Q444.35437 343.96564 443.995 344.23126Q443.63562 344.48126 443.46375 345.1375L442.4325 344.9969Q442.57312 344.34064 442.90125 343.9344Q443.22937 343.52814 443.83875 343.3094Q444.44812 343.09064 445.245 343.09064Q446.04187 343.09064 446.54187 343.27814Q447.04187 343.46564 447.27625 343.7469Q447.51062 344.02814 447.60437 344.46564Q447.65125 344.73126 447.65125 345.4344L447.65125 346.84064Q447.65125 348.3094 447.71375 348.7Q447.79187 349.09064 447.995 349.45L446.88562 349.45Q446.72937 349.1219 446.6825 348.6844ZM446.58875 346.325Q446.01062 346.5594 444.87 346.73126Q444.21375 346.825 443.94812 346.95Q443.6825 347.0594 443.52625 347.27814Q443.38562 347.4969 443.38562 347.77814Q443.38562 348.2 443.69812 348.48126Q444.02625 348.7625 444.63562 348.7625Q445.245 348.7625 445.71375 348.4969Q446.19812 348.23126 446.41687 347.7625Q446.58875 347.40314 446.58875 346.71564L446.58875 346.325ZM449.60437 349.45L449.60437 343.23126L450.5575 343.23126L450.5575 344.16876Q450.91687 343.5125 451.21375 343.3094Q451.52625 343.09064 451.90125 343.09064Q452.4325 343.09064 452.97937 343.41876L452.62 344.40314Q452.22937 344.16876 451.85437 344.16876Q451.495 344.16876 451.21375 344.3875Q450.94812 344.59064 450.83875 344.96564Q450.65125 345.52814 450.65125 346.1844L450.65125 349.45L449.60437 349.45ZM455.91687 348.5125L456.07312 349.4344Q455.62 349.52814 455.27625 349.52814Q454.69812 349.52814 454.38562 349.35626Q454.07312 349.16876 453.9325 348.8719Q453.8075 348.575 453.8075 347.6219L453.8075 344.04376L453.04187 344.04376L453.04187 343.23126L453.8075 343.23126L453.8075 341.6844L454.85437 341.0594L454.85437 343.23126L455.91687 343.23126L455.91687 344.04376L454.85437 344.04376L454.85437 347.6844Q454.85437 348.1375 454.90125 348.2625Q454.96375 348.3875 455.08875 348.46564Q455.21375 348.54376 455.44812 348.54376Q455.63562 348.54376 455.91687 348.5125ZM456.62 349.45L456.62 343.23126L457.5575 343.23126L457.5575 344.10626Q457.85437 343.6375 458.33875 343.3719Q458.82312 343.09064 459.44812 343.09064Q460.13562 343.09064 460.57312 343.3719Q461.02625 343.65314 461.19812 344.16876Q461.94812 343.09064 463.12 343.09064Q464.0575 343.09064 464.54187 343.60626Q465.04187 344.10626 465.04187 345.1844L465.04187 349.45L463.995 349.45L463.995 345.52814Q463.995 344.90314 463.88562 344.6219Q463.79187 344.34064 463.52625 344.16876Q463.26062 343.9969 462.88562 343.9969Q462.22937 343.9969 461.79187 344.4344Q461.37 344.8719 461.37 345.84064L461.37 349.45L460.3075 349.45L460.3075 345.40314Q460.3075 344.7 460.04187 344.35626Q459.79187 343.9969 459.21375 343.9969Q458.76062 343.9969 458.38562 344.23126Q458.01062 344.46564 457.83875 344.91876Q457.66687 345.3719 457.66687 346.21564L457.66687 349.45L456.62 349.45ZM471.87 347.45L472.96375 347.575Q472.71375 348.52814 472.01062 349.0594Q471.3075 349.59064 470.22937 349.59064Q468.87 349.59064 468.0575 348.7469Q467.26062 347.90314 467.26062 346.3875Q467.26062 344.825 468.07312 343.96564Q468.88562 343.09064 470.16687 343.09064Q471.41687 343.09064 472.19812 343.9344Q472.995 344.77814 472.995 346.325Q472.995 346.41876 472.995 346.60626L468.35437 346.60626Q468.41687 347.6375 468.9325 348.1844Q469.44812 348.71564 470.22937 348.71564Q470.8075 348.71564 471.21375 348.41876Q471.63562 348.10626 471.87 347.45ZM468.41687 345.7469L471.88562 345.7469Q471.82312 344.95 471.495 344.5594Q470.97937 343.95 470.1825 343.95Q469.44812 343.95 468.94812 344.4344Q468.46375 344.91876 468.41687 345.7469ZM474.62 349.45L474.62 343.23126L475.5575 343.23126L475.5575 344.10626Q476.245 343.09064 477.54187 343.09064Q478.10437 343.09064 478.57312 343.29376Q479.0575 343.4969 479.29187 343.825Q479.52625 344.15314 479.62 344.59064Q479.66687 344.8875 479.66687 345.6219L479.66687 349.45L478.62 349.45L478.62 345.66876Q478.62 345.0125 478.495 344.7Q478.37 344.3875 478.0575 344.2Q477.745 343.9969 477.32312 343.9969Q476.65125 343.9969 476.15125 344.4344Q475.66687 344.85626 475.66687 346.04376L475.66687 349.45L474.62 349.45ZM483.91687 348.5125L484.07312 349.4344Q483.62 349.52814 483.27625 349.52814Q482.69812 349.52814 482.38562 349.35626Q482.07312 349.16876 481.9325 348.8719Q481.8075 348.575 481.8075 347.6219L481.8075 344.04376L481.04187 344.04376L481.04187 343.23126L481.8075 343.23126L481.8075 341.6844L482.85437 341.0594L482.85437 343.23126L483.91687 343.23126L483.91687 344.04376L482.85437 344.04376L482.85437 347.6844Q482.85437 348.1375 482.90125 348.2625Q482.96375 348.3875 483.08875 348.46564Q483.21375 348.54376 483.44812 348.54376Q483.63562 348.54376 483.91687 348.5125ZM484.19812 347.59064L485.22937 347.4344Q485.32312 348.0594 485.71375 348.3875Q486.12 348.71564 486.85437 348.71564Q487.57312 348.71564 487.91687 348.4344Q488.27625 348.1375 488.27625 347.73126Q488.27625 347.3719 487.96375 347.16876Q487.745 347.02814 486.88562 346.8094Q485.72937 346.5125 485.27625 346.3094Q484.83875 346.09064 484.60437 345.71564Q484.37 345.34064 484.37 344.8719Q484.37 344.46564 484.5575 344.10626Q484.745 343.7469 485.07312 343.5125Q485.32312 343.34064 485.745 343.21564Q486.16687 343.09064 486.66687 343.09064Q487.38562 343.09064 487.9325 343.3094Q488.495 343.5125 488.76062 343.8719Q489.02625 344.23126 489.12 344.825L488.08875 344.96564Q488.02625 344.4969 487.6825 344.23126Q487.35437 343.95 486.72937 343.95Q486.01062 343.95 485.69812 344.2Q485.38562 344.4344 485.38562 344.7625Q485.38562 344.96564 485.51062 345.1219Q485.65125 345.29376 485.91687 345.40314Q486.07312 345.46564 486.85437 345.66876Q487.97937 345.98126 488.41687 346.16876Q488.85437 346.35626 489.10437 346.71564Q489.35437 347.075 489.35437 347.6219Q489.35437 348.15314 489.04187 348.6219Q488.745 349.075 488.16687 349.34064Q487.58875 349.59064 486.85437 349.59064Q485.63562 349.59064 484.995 349.09064Q484.37 348.575 484.19812 347.59064Z" fill-rule="nonzero"/><path fill="#000000" d="M500.60968 321.45L500.60968 312.85626L501.7503 312.85626L501.7503 320.4344L505.98468 320.4344L505.98468 321.45L500.60968 321.45ZM507.14093 318.34064Q507.14093 316.60626 508.09406 315.77814Q508.89093 315.09064 510.04718 315.09064Q511.32843 315.09064 512.1409 315.9344Q512.96906 316.7625 512.96906 318.2469Q512.96906 319.45 512.6097 320.1375Q512.2503 320.825 511.54718 321.21564Q510.85968 321.59064 510.04718 321.59064Q508.7503 321.59064 507.9378 320.7625Q507.14093 319.91876 507.14093 318.34064ZM508.21906 318.34064Q508.21906 319.52814 508.73468 320.1219Q509.26593 320.71564 510.04718 320.71564Q510.84406 320.71564 511.35968 320.1219Q511.8753 319.52814 511.8753 318.3094Q511.8753 317.15314 511.34406 316.5594Q510.82843 315.96564 510.04718 315.96564Q509.26593 315.96564 508.73468 316.5594Q508.21906 317.1375 508.21906 318.34064ZM515.6722 321.45L513.7659 315.23126L514.8597 315.23126L515.84406 318.825L516.21906 320.15314Q516.2503 320.0594 516.5472 318.8719L517.53156 315.23126L518.6097 315.23126L519.5472 318.84064L519.8597 320.02814L520.21906 318.825L521.28156 315.23126L522.3128 315.23126L520.3597 321.45L519.2659 321.45L518.28156 317.71564L518.03156 316.66876L516.78156 321.45L515.6722 321.45ZM530.5628 321.45L530.5628 320.66876Q529.96906 321.59064 528.8284 321.59064Q528.0784 321.59064 527.4534 321.1844Q526.8284 320.7625 526.4847 320.02814Q526.1409 319.29376 526.1409 318.34064Q526.1409 317.41876 526.4534 316.65314Q526.7659 315.8875 527.3909 315.4969Q528.0159 315.09064 528.78156 315.09064Q529.34406 315.09064 529.78156 315.325Q530.21906 315.5594 530.5003 315.9344L530.5003 312.85626L531.5472 312.85626L531.5472 321.45L530.5628 321.45ZM527.2347 318.34064Q527.2347 319.54376 527.7347 320.1375Q528.2347 320.71564 528.9222 320.71564Q529.6097 320.71564 530.09406 320.15314Q530.5784 319.59064 530.5784 318.4344Q530.5784 317.15314 530.0784 316.5594Q529.59406 315.96564 528.8753 315.96564Q528.1722 315.96564 527.7034 316.54376Q527.2347 317.10626 527.2347 318.34064ZM537.78156 319.45L538.8753 319.575Q538.6253 320.52814 537.9222 321.0594Q537.21906 321.59064 536.1409 321.59064Q534.78156 321.59064 533.96906 320.7469Q533.1722 319.90314 533.1722 318.3875Q533.1722 316.825 533.9847 315.96564Q534.7972 315.09064 536.0784 315.09064Q537.3284 315.09064 538.1097 315.9344Q538.90656 316.77814 538.90656 318.325Q538.90656 318.41876 538.90656 318.60626L534.2659 318.60626Q534.3284 319.6375 534.84406 320.1844Q535.3597 320.71564 536.1409 320.71564Q536.71906 320.71564 537.1253 320.41876Q537.5472 320.10626 537.78156 319.45ZM534.3284 317.7469L537.7972 317.7469Q537.7347 316.95 537.40656 316.5594Q536.8909 315.95 536.09406 315.95Q535.3597 315.95 534.8597 316.4344Q534.3753 316.91876 534.3284 317.7469ZM540.53156 321.45L540.53156 315.23126L541.46906 315.23126L541.46906 316.10626Q542.15656 315.09064 543.4534 315.09064Q544.0159 315.09064 544.4847 315.29376Q544.96906 315.4969 545.2034 315.825Q545.4378 316.15314 545.53156 316.59064Q545.5784 316.8875 545.5784 317.6219L545.5784 321.45L544.53156 321.45L544.53156 317.66876Q544.53156 317.0125 544.40656 316.7Q544.28156 316.3875 543.96906 316.2Q543.65656 315.9969 543.2347 315.9969Q542.5628 315.9969 542.0628 316.4344Q541.5784 316.85626 541.5784 318.04376L541.5784 321.45L540.53156 321.45ZM547.1097 319.59064L548.1409 319.4344Q548.2347 320.0594 548.6253 320.3875Q549.03156 320.71564 549.7659 320.71564Q550.4847 320.71564 550.8284 320.4344Q551.1878 320.1375 551.1878 319.73126Q551.1878 319.3719 550.8753 319.16876Q550.65656 319.02814 549.7972 318.8094Q548.6409 318.5125 548.1878 318.3094Q547.7503 318.09064 547.5159 317.71564Q547.28156 317.34064 547.28156 316.8719Q547.28156 316.46564 547.46906 316.10626Q547.65656 315.7469 547.9847 315.5125Q548.2347 315.34064 548.65656 315.21564Q549.0784 315.09064 549.5784 315.09064Q550.2972 315.09064 550.84406 315.3094Q551.40656 315.5125 551.6722 315.8719Q551.9378 316.23126 552.03156 316.825L551.0003 316.96564Q550.9378 316.4969 550.59406 316.23126Q550.2659 315.95 549.6409 315.95Q548.9222 315.95 548.6097 316.2Q548.2972 316.4344 548.2972 316.7625Q548.2972 316.96564 548.4222 317.1219Q548.5628 317.29376 548.8284 317.40314Q548.9847 317.46564 549.7659 317.66876Q550.8909 317.98126 551.3284 318.16876Q551.7659 318.35626 552.0159 318.71564Q552.2659 319.075 552.2659 319.6219Q552.2659 320.15314 551.9534 320.6219Q551.65656 321.075 551.0784 321.34064Q550.5003 321.59064 549.7659 321.59064Q548.5472 321.59064 547.90656 321.09064Q547.28156 320.575 547.1097 319.59064ZM554.53156 314.075L554.53156 312.85626L555.59406 312.85626L555.59406 314.075L554.53156 314.075ZM554.53156 321.45L554.53156 315.23126L555.59406 315.23126L555.59406 321.45L554.53156 321.45ZM559.8284 320.5125L559.9847 321.4344Q559.53156 321.52814 559.1878 321.52814Q558.6097 321.52814 558.2972 321.35626Q557.9847 321.16876 557.84406 320.8719Q557.71906 320.575 557.71906 319.6219L557.71906 316.04376L556.9534 316.04376L556.9534 315.23126L557.71906 315.23126L557.71906 313.6844L558.7659 313.0594L558.7659 315.23126L559.8284 315.23126L559.8284 316.04376L558.7659 316.04376L558.7659 319.6844Q558.7659 320.1375 558.8128 320.2625Q558.8753 320.3875 559.0003 320.46564Q559.1253 320.54376 559.3597 320.54376Q559.5472 320.54376 559.8284 320.5125ZM560.4847 323.84064L560.3597 322.85626Q560.7034 322.95 560.96906 322.95Q561.3128 322.95 561.5159 322.825Q561.7347 322.71564 561.8753 322.5125Q561.96906 322.34064 562.2034 321.71564Q562.21906 321.6375 562.2972 321.46564L559.9222 315.23126L561.0628 315.23126L562.3597 318.825Q562.6097 319.5125 562.8128 320.27814Q563.0003 319.54376 563.2503 318.85626L564.5784 315.23126L565.6253 315.23126L563.2659 321.5594Q562.8753 322.575 562.6722 322.96564Q562.3909 323.4969 562.0159 323.73126Q561.65656 323.98126 561.15656 323.98126Q560.8597 323.98126 560.4847 323.84064Z" fill-rule="nonzero"/><path fill="#000000" d="M505.59406 334.6844Q505.0003 335.1844 504.45343 335.3875Q503.92218 335.59064 503.29718 335.59064Q502.26593 335.59064 501.71906 335.09064Q501.17218 334.59064 501.17218 333.8094Q501.17218 333.35626 501.3753 332.98126Q501.57843 332.59064 501.92218 332.3719Q502.26593 332.1375 502.6878 332.02814Q502.98468 331.9344 503.6253 331.85626Q504.89093 331.71564 505.5003 331.4969Q505.5003 331.27814 505.5003 331.23126Q505.5003 330.575 505.20343 330.3094Q504.79718 329.96564 504.0003 329.96564Q503.26593 329.96564 502.90656 330.23126Q502.54718 330.48126 502.3753 331.1375L501.34406 330.9969Q501.48468 330.34064 501.8128 329.9344Q502.14093 329.52814 502.7503 329.3094Q503.35968 329.09064 504.15656 329.09064Q504.95343 329.09064 505.45343 329.27814Q505.95343 329.46564 506.1878 329.7469Q506.42218 330.02814 506.51593 330.46564Q506.5628 330.73126 506.5628 331.4344L506.5628 332.84064Q506.5628 334.3094 506.6253 334.7Q506.70343 335.09064 506.90656 335.45L505.79718 335.45Q505.64093 335.1219 505.59406 334.6844ZM505.5003 332.325Q504.92218 332.5594 503.78156 332.73126Q503.1253 332.825 502.85968 332.95Q502.59406 333.0594 502.4378 333.27814Q502.29718 333.4969 502.29718 333.77814Q502.29718 334.2 502.60968 334.48126Q502.9378 334.7625 503.54718 334.7625Q504.15656 334.7625 504.6253 334.4969Q505.10968 334.23126 505.32843 333.7625Q505.5003 333.40314 505.5003 332.71564L505.5003 332.325ZM508.53156 337.84064L508.53156 329.23126L509.48468 329.23126L509.48468 330.02814Q509.82843 329.5594 510.2503 329.325Q510.6878 329.09064 511.29718 329.09064Q512.09406 329.09064 512.7034 329.4969Q513.3128 329.90314 513.6097 330.65314Q513.9222 331.40314 513.9222 332.29376Q513.9222 333.2469 513.5784 334.0125Q513.2503 334.77814 512.59406 335.1844Q511.9378 335.59064 511.21906 335.59064Q510.6878 335.59064 510.26593 335.3719Q509.84406 335.1375 509.57843 334.8094L509.57843 337.84064L508.53156 337.84064ZM509.48468 332.3719Q509.48468 333.575 509.96906 334.15314Q510.45343 334.71564 511.14093 334.71564Q511.84406 334.71564 512.34406 334.1219Q512.84406 333.52814 512.84406 332.27814Q512.84406 331.09064 512.3597 330.5125Q511.8753 329.91876 511.1878 329.91876Q510.51593 329.91876 510.0003 330.54376Q509.48468 331.16876 509.48468 332.3719ZM519.59406 334.6844Q519.0003 335.1844 518.4534 335.3875Q517.9222 335.59064 517.2972 335.59064Q516.2659 335.59064 515.71906 335.09064Q515.1722 334.59064 515.1722 333.8094Q515.1722 333.35626 515.3753 332.98126Q515.5784 332.59064 515.9222 332.3719Q516.2659 332.1375 516.6878 332.02814Q516.9847 331.9344 517.6253 331.85626Q518.8909 331.71564 519.5003 331.4969Q519.5003 331.27814 519.5003 331.23126Q519.5003 330.575 519.2034 330.3094Q518.7972 329.96564 518.0003 329.96564Q517.2659 329.96564 516.90656 330.23126Q516.5472 330.48126 516.3753 331.1375L515.34406 330.9969Q515.4847 330.34064 515.8128 329.9344Q516.1409 329.52814 516.7503 329.3094Q517.3597 329.09064 518.15656 329.09064Q518.9534 329.09064 519.4534 329.27814Q519.9534 329.46564 520.1878 329.7469Q520.4222 330.02814 520.5159 330.46564Q520.5628 330.73126 520.5628 331.4344L520.5628 332.84064Q520.5628 334.3094 520.6253 334.7Q520.7034 335.09064 520.90656 335.45L519.7972 335.45Q519.6409 335.1219 519.59406 334.6844ZM519.5003 332.325Q518.9222 332.5594 517.78156 332.73126Q517.1253 332.825 516.8597 332.95Q516.59406 333.0594 516.4378 333.27814Q516.2972 333.4969 516.2972 333.77814Q516.2972 334.2 516.6097 334.48126Q516.9378 334.7625 517.5472 334.7625Q518.15656 334.7625 518.6253 334.4969Q519.1097 334.23126 519.3284 333.7625Q519.5003 333.40314 519.5003 332.71564L519.5003 332.325ZM522.5159 335.45L522.5159 329.23126L523.46906 329.23126L523.46906 330.16876Q523.8284 329.5125 524.1253 329.3094Q524.4378 329.09064 524.8128 329.09064Q525.34406 329.09064 525.8909 329.41876L525.53156 330.40314Q525.1409 330.16876 524.7659 330.16876Q524.40656 330.16876 524.1253 330.3875Q523.8597 330.59064 523.7503 330.96564Q523.5628 331.52814 523.5628 332.1844L523.5628 335.45L522.5159 335.45ZM528.8284 334.5125L528.9847 335.4344Q528.53156 335.52814 528.1878 335.52814Q527.6097 335.52814 527.2972 335.35626Q526.9847 335.16876 526.84406 334.8719Q526.71906 334.575 526.71906 333.6219L526.71906 330.04376L525.9534 330.04376L525.9534 329.23126L526.71906 329.23126L526.71906 327.6844L527.7659 327.0594L527.7659 329.23126L528.8284 329.23126L528.8284 330.04376L527.7659 330.04376L527.7659 333.6844Q527.7659 334.1375 527.8128 334.2625Q527.8753 334.3875 528.0003 334.46564Q528.1253 334.54376 528.3597 334.54376Q528.5472 334.54376 528.8284 334.5125ZM529.53156 335.45L529.53156 329.23126L530.46906 329.23126L530.46906 330.10626Q530.7659 329.6375 531.2503 329.3719Q531.7347 329.09064 532.3597 329.09064Q533.0472 329.09064 533.4847 329.3719Q533.9378 329.65314 534.1097 330.16876Q534.8597 329.09064 536.03156 329.09064Q536.96906 329.09064 537.4534 329.60626Q537.9534 330.10626 537.9534 331.1844L537.9534 335.45L536.90656 335.45L536.90656 331.52814Q536.90656 330.90314 536.7972 330.6219Q536.7034 330.34064 536.4378 330.16876Q536.1722 329.9969 535.7972 329.9969Q535.1409 329.9969 534.7034 330.4344Q534.28156 330.8719 534.28156 331.84064L534.28156 335.45L533.21906 335.45L533.21906 331.40314Q533.21906 330.7 532.9534 330.35626Q532.7034 329.9969 532.1253 329.9969Q531.6722 329.9969 531.2972 330.23126Q530.9222 330.46564 530.7503 330.91876Q530.5784 331.3719 530.5784 332.21564L530.5784 335.45L529.53156 335.45ZM544.78156 333.45L545.8753 333.575Q545.6253 334.52814 544.9222 335.0594Q544.21906 335.59064 543.1409 335.59064Q541.78156 335.59064 540.96906 334.7469Q540.1722 333.90314 540.1722 332.3875Q540.1722 330.825 540.9847 329.96564Q541.7972 329.09064 543.0784 329.09064Q544.3284 329.09064 545.1097 329.9344Q545.90656 330.77814 545.90656 332.325Q545.90656 332.41876 545.90656 332.60626L541.2659 332.60626Q541.3284 333.6375 541.84406 334.1844Q542.3597 334.71564 543.1409 334.71564Q543.71906 334.71564 544.1253 334.41876Q544.5472 334.10626 544.78156 333.45ZM541.3284 331.7469L544.7972 331.7469Q544.7347 330.95 544.40656 330.5594Q543.8909 329.95 543.09406 329.95Q542.3597 329.95 541.8597 330.4344Q541.3753 330.91876 541.3284 331.7469ZM547.53156 335.45L547.53156 329.23126L548.46906 329.23126L548.46906 330.10626Q549.15656 329.09064 550.4534 329.09064Q551.0159 329.09064 551.4847 329.29376Q551.96906 329.4969 552.2034 329.825Q552.4378 330.15314 552.53156 330.59064Q552.5784 330.8875 552.5784 331.6219L552.5784 335.45L551.53156 335.45L551.53156 331.66876Q551.53156 331.0125 551.40656 330.7Q551.28156 330.3875 550.96906 330.2Q550.65656 329.9969 550.2347 329.9969Q549.5628 329.9969 549.0628 330.4344Q548.5784 330.85626 548.5784 332.04376L548.5784 335.45L547.53156 335.45ZM556.8284 334.5125L556.9847 335.4344Q556.53156 335.52814 556.1878 335.52814Q555.6097 335.52814 555.2972 335.35626Q554.9847 335.16876 554.84406 334.8719Q554.71906 334.575 554.71906 333.6219L554.71906 330.04376L553.9534 330.04376L553.9534 329.23126L554.71906 329.23126L554.71906 327.6844L555.7659 327.0594L555.7659 329.23126L556.8284 329.23126L556.8284 330.04376L555.7659 330.04376L555.7659 333.6844Q555.7659 334.1375 555.8128 334.2625Q555.8753 334.3875 556.0003 334.46564Q556.1253 334.54376 556.3597 334.54376Q556.5472 334.54376 556.8284 334.5125ZM557.1097 333.59064L558.1409 333.4344Q558.2347 334.0594 558.6253 334.3875Q559.03156 334.71564 559.7659 334.71564Q560.4847 334.71564 560.8284 334.4344Q561.1878 334.1375 561.1878 333.73126Q561.1878 333.3719 560.8753 333.16876Q560.65656 333.02814 559.7972 332.8094Q558.6409 332.5125 558.1878 332.3094Q557.7503 332.09064 557.5159 331.71564Q557.28156 331.34064 557.28156 330.8719Q557.28156 330.46564 557.46906 330.10626Q557.65656 329.7469 557.9847 329.5125Q558.2347 329.34064 558.65656 329.21564Q559.0784 329.09064 559.5784 329.09064Q560.2972 329.09064 560.84406 329.3094Q561.40656 329.5125 561.6722 329.8719Q561.9378 330.23126 562.03156 330.825L561.0003 330.96564Q560.9378 330.4969 560.59406 330.23126Q560.2659 329.95 559.6409 329.95Q558.9222 329.95 558.6097 330.2Q558.2972 330.4344 558.2972 330.7625Q558.2972 330.96564 558.4222 331.1219Q558.5628 331.29376 558.8284 331.40314Q558.9847 331.46564 559.7659 331.66876Q560.8909 331.98126 561.3284 332.16876Q561.7659 332.35626 562.0159 332.71564Q562.2659 333.075 562.2659 333.6219Q562.2659 334.15314 561.9534 334.6219Q561.65656 335.075 561.0784 335.34064Q560.5003 335.59064 559.7659 335.59064Q558.5472 335.59064 557.90656 335.09064Q557.28156 334.575 557.1097 333.59064Z" fill-rule="nonzero"/><path fill="#4285f4" d="M247.5 20.55C247.5 19.997715 247.94771 19.55 248.5 19.55L258.5 19.55C259.05228 19.55 259.5 19.997715 259.5 20.55L259.5 30.55C259.5 31.102285 259.05228 31.55 258.5 31.55L248.5 31.55C247.94771 31.55 247.5 31.102285 247.5 30.55Z" fill-rule="nonzero"/><path fill="#1a1a1a" d="M269.92188 29.55L267.64062 20.95625L268.8125 20.95625L270.125 26.596874Q270.32812 27.471874 270.48438 28.346874Q270.8125 26.971874 270.875 26.753124L272.5 20.95625L273.875 20.95625L275.10938 25.3Q275.5625 26.925 275.78125 28.346874Q275.9375 27.534374 276.20312 26.471874L277.54688 20.95625L278.6875 20.95625L276.34375 29.55L275.23438 29.55L273.4375 23.003124Q273.20312 22.190624 273.15625 22.003124Q273.03125 22.58125 272.90625 23.003124L271.09375 29.55L269.92188 29.55ZM279.29688 22.175L279.29688 20.95625L280.35938 20.95625L280.35938 22.175L279.29688 22.175ZM279.29688 29.55L279.29688 23.33125L280.35938 23.33125L280.35938 29.55L279.29688 29.55ZM282.48438 29.55L282.48438 20.95625L288.28125 20.95625L288.28125 21.971874L283.625 21.971874L283.625 24.628124L287.65625 24.628124L287.65625 25.64375L283.625 25.64375L283.625 29.55L282.48438 29.55ZM289.29688 22.175L289.29688 20.95625L290.35938 20.95625L290.35938 22.175L289.29688 22.175ZM289.29688 29.55L289.29688 23.33125L290.35938 23.33125L290.35938 29.55L289.29688 29.55Z" fill-rule="nonzero"/><path fill="#ea4335" d="M307.5 20.55C307.5 19.997715 307.94772 19.55 308.5 19.55L318.5 19.55C319.05228 19.55 319.5 19.997715 319.5 20.55L319.5 30.55C319.5 31.102285 319.05228 31.55 318.5 31.55L308.5 31.55C307.94772 31.55 307.5 31.102285 307.5 30.55Z" fill-rule="nonzero"/><path fill="#1a1a1a" d="M332.45312 26.175L332.45312 25.175L336.07812 25.159374L336.07812 28.346874Q335.25 29.01875 334.35938 29.3625Q333.46875 29.690624 332.53125 29.690624Q331.26562 29.690624 330.21875 29.159374Q329.1875 28.6125 328.65625 27.596874Q328.14062 26.565624 328.14062 25.3Q328.14062 24.034374 328.65625 22.95625Q329.1875 21.8625 330.17188 21.346874Q331.15625 20.815624 332.4375 20.815624Q333.375 20.815624 334.125 21.1125Q334.875 21.409374 335.29688 21.95625Q335.73438 22.4875 335.95312 23.3625L334.9375 23.64375Q334.73438 22.9875 334.4375 22.6125Q334.15625 22.2375 333.625 22.01875Q333.09375 21.784374 332.45312 21.784374Q331.67188 21.784374 331.09375 22.01875Q330.53125 22.253124 330.17188 22.64375Q329.82812 23.034374 329.64062 23.503124Q329.3125 24.3 329.3125 25.221874Q329.3125 26.378124 329.70312 27.159374Q330.10938 27.925 330.85938 28.3Q331.60938 28.675 332.46875 28.675Q333.20312 28.675 333.90625 28.39375Q334.60938 28.096874 334.96875 27.784374L334.96875 26.175L332.45312 26.175ZM337.42188 29.55L337.42188 20.95625L340.67188 20.95625Q341.51562 20.95625 341.96875 21.034374Q342.60938 21.14375 343.03125 21.440624Q343.46875 21.7375 343.71875 22.26875Q343.98438 22.8 343.98438 23.440624Q343.98438 24.534374 343.28125 25.3Q342.59375 26.05 340.76562 26.05L338.5625 26.05L338.5625 29.55L337.42188 29.55ZM338.5625 25.05L340.78125 25.05Q341.89062 25.05 342.34375 24.64375Q342.8125 24.221874 342.8125 23.471874Q342.8125 22.940624 342.53125 22.565624Q342.26562 22.175 341.82812 22.05Q341.53125 21.971874 340.76562 21.971874L338.5625 21.971874L338.5625 25.05ZM345.04688 26.784374L346.10938 26.690624Q346.1875 27.346874 346.46875 27.753124Q346.75 28.159374 347.32812 28.425Q347.92188 28.675 348.65625 28.675Q349.29688 28.675 349.79688 28.4875Q350.29688 28.284374 350.53125 27.95625Q350.78125 27.6125 350.78125 27.221874Q350.78125 26.815624 350.54688 26.51875Q350.3125 26.20625 349.78125 26.003124Q349.42188 25.8625 348.23438 25.58125Q347.0625 25.3 346.59375 25.05Q345.96875 24.721874 345.67188 24.253124Q345.375 23.76875 345.375 23.175Q345.375 22.534374 345.73438 21.971874Q346.10938 21.39375 346.8125 21.1125Q347.53125 20.815624 348.39062 20.815624Q349.34375 20.815624 350.07812 21.128124Q350.8125 21.425 351.20312 22.034374Q351.59375 22.628124 351.625 23.378124L350.53125 23.45625Q350.4375 22.64375 349.92188 22.2375Q349.42188 21.815624 348.4375 21.815624Q347.40625 21.815624 346.9375 22.190624Q346.46875 22.565624 346.46875 23.096874Q346.46875 23.565624 346.79688 23.8625Q347.125 24.159374 348.5 24.471874Q349.89062 24.784374 350.40625 25.01875Q351.15625 25.378124 351.51562 25.909374Q351.875 26.425 351.875 27.128124Q351.875 27.815624 351.48438 28.425Q351.09375 29.01875 350.35938 29.3625Q349.625 29.690624 348.70312 29.690624Q347.53125 29.690624 346.73438 29.3625Q345.95312 29.01875 345.5 28.33125Q345.0625 27.64375 345.04688 26.784374Z" fill-rule="nonzero"/></svg>